{
.appVersion = "3414";
.formatVersion = 3;
DisplayStrings = (
"/nbspace"
);
axes = (
{
name = Weight;
tag = wght;
}
);
classes = (
{
automatic = 1;
code = "A Aacute Abreve Abreveacute Abrevedotbelow Abrevegrave Abrevehookabove Abrevetilde Acircumflex Acircumflexacute Acircumflexdotbelow Acircumflexgrave Acircumflexhookabove Acircumflextilde Adieresis Adotbelow Agrave Ahookabove Amacron Aogonek Aring Atilde AE B C Cacute Ccaron Ccedilla Cdotaccent D Dcaron Dcroat Eth E Eacute Ecaron Ecircumflex Ecircumflexacute Ecircumflexdotbelow Ecircumflexgrave Ecircumflexhookabove Ecircumflextilde Edieresis Edotaccent Edotbelow Egrave Ehookabove Emacron Eogonek Etilde F G Gbreve Gcommaaccent Gdotaccent H Hbar I Iacute Icircumflex Idieresis Idotaccent Idotbelow Igrave Ihookabove Imacron Iogonek Itilde J K Kcommaaccent L Lacute Lcaron Lcommaaccent Lslash M M.ss01 N N.ss01 Nacute Ncaron Ncommaaccent Ntilde O Oacute Ocircumflex Ocircumflexacute Ocircumflexdotbelow Ocircumflexgrave Ocircumflexhookabove Ocircumflextilde Odieresis Odotbelow Ograve Ohookabove Ohorn Ohornacute Ohorndotbelow Ohorngrave Ohornhookabove Ohorntilde Ohungarumlaut Oslash Otilde OE P Thorn Q R Racute Rcaron S Sacute Scaron Scedilla Scommaaccent Germandbls T Tcaron Tcommaaccent U Uacute Ucircumflex Udieresis Udotbelow Ugrave Uhookabove Uhorn Uhornacute Uhorndotbelow Uhorngrave Uhornhookabove Uhorntilde Uhungarumlaut Umacron Uogonek Uring Utilde V W Wacute Wcircumflex Wdieresis Wgrave X Y Yacute Ycircumflex Ydieresis Ydotbelow Ygrave Yhookabove Ytilde Z Zacute Zcaron Zdotaccent";
name = Uppercase;
}
);
customParameters = (
{
name = panose;
value = (
3,
2,
8,
2,
4,
5,
2,
2,
11,
6
);
},
{
name = unicodeRanges;
value = (
0,
1,
2,
3,
5,
6,
7,
29,
31,
33,
35,
37,
38,
45
);
},
{
name = codePageRanges;
value = (
"1252",
"1258",
"bit 29"
);
},
{
name = blueScale;
value = 0.037;
},
{
disabled = 1;
name = glyphOrder;
value = (
.notdef,
space,
A,
Aacute,
Abreve,
Acircumflex,
Agrave,
Atilde,
B,
C,
D,
Dcroat,
E,
Eacute,

glyphs = (
{
glyphname = A;
kernLeft = KO_A;
kernRight = KO_A;
lastChange = "2025-03-16 19:12:55 +0000";
layers = (
{
anchors = (
{
name = bottom;
pos = (373,0);
},
{
name = ogonek;
pos = (737,0);
},
{
name = top;
pos = (373,750);
}
);
layerId = m002;
shapes = (
{
closed = 1;
nodes = (
(188,0,l),
(396,644,l),
(350,644,l),
(557,0,l),
(737,0,l),
(471,750,l),
(278,750,l),
(11,0,l)
);
},
{
closed = 1;
nodes = (
(575,159,l),
(575,307,l),
(184,307,l),
(184,159,l)
);
}
);
userData = {
assembly = "NPUSHB[ ]	/* 47 values pushed */
5 1 3 0 1 76 0 3 6 1 4 1 3 4 104 0 0 0 38 77 5 2 2 1 1 39 1 78 7 7 0 0 7 10 7 10 9 8 0 6 0 6 17 17 7 8 24 
CALL[ ]	/* CallFunction */";
};
width = 748;
},
{
anchors = (
{
name = bottom;
pos = (376,0);
},
{
name = ogonek;
pos = (721,0);
},
{
name = top;
pos = (376,750);
}
);
layerId = m003;
shapes = (
{
closed = 1;
nodes = (
(131,0,l),
(391,688,l),
(360,688,l),
(619,0,l),
(721,0,l),
(430,750,l),
(321,750,l),
(29,0,l)
);
},
{
closed = 1;
nodes = (
(594,180,l),
(582,267,l),
(172,267,l),
(161,180,l)
);
}
);
width = 749;
},
{
anchors = (
{
name = bottom;
pos = (378,0);
},
{
name = ogonek;
pos = (722,0);
},
{
name = top;
pos = (378,750);
}
);
layerId = m004;
shapes = (
{
closed = 1;
nodes = (
(85,0,l),
(389,719,l),
(367,719,l),
(670,0,l),
(722,0,l),
(404,750,l),
(352,750,l),
(34,0,l)
);
},
{
closed = 1;
nodes = (
(614,196,l),
(594,238,l),
(161,238,l),
(141,196,l)
);
}
);
width = 756;
}
);
note = A;
unicode = 65;
userData = {
KernOnName = A;
};
},
{
glyphname = AE;
lastChange = "2025-03-16 19:02:43 +0000";
layers = (
{
layerId = m002;
shapes = (
{
closed = 1;
nodes = (
(208,0,l),
(262,119,l),
(470,119,l),
(470,0,l),
(985,0,l),
(985,151,l),
(649,151,l),
(649,313,l),
(964,313,l),
(964,458,l),
(649,458,l),
(649,599,l),
(985,599,l),
(985,750,l),
(369,750,l),
(11,0,l)
);
},
{
closed = 1;
nodes = (
(470,584,l),
(470,276,l),
(331,276,l)
);
}
);
width = 1034;
},
{
layerId = m003;
shapes = (
{
closed = 1;
nodes = (
(144,0,l),
(237,168,l),
(496,168,l),
(496,0,l),
(961,0,l),
(961,88,l),
(599,88,l),
(599,344,l),
(937,344,l),
(937,429,l),
(599,429,l),
(599,661,l),
(961,661,l),
(961,749,l),
(438,749,l),
(29,0,l)
);
},
{
closed = 1;
nodes = (
(496,654,l),
(496,261,l),
(281,261,l)
);
}
);
width = 1017;
},
{
layerId = m004;
shapes = (
{
closed = 1;
nodes = (
(89,0,l),
(210,204,l),
(507,204,l),
(507,0,l),
(935,0,l),
(935,42,l),
(555,42,l),
(555,366,l),
(909,366,l),
(909,408,l),
(555,408,l),
(555,706,l),
(935,706,l),
(935,748,l),
(480,748,l),
(34,0,l)
);
},
{
closed = 1;
nodes = (
(507,704,l),
(507,250,l),
(237,250,l)
);
}
);
width = 993;
}
);
metricLeft = A;
metricRight = E;
unicode = 198;
},
{
glyphname = B;
kernLeft = KO_E;
kernRight = KO_B;
lastChange = "2025-03-16 19:02:43 +0000";
layers = (
{
layerId = m002;
shapes = (
{
closed = 1;
nodes = (
(415,0,ls),
(578,0,o),
(669,80,o),
(669,209,cs),
(669,317,o),
(605,378,o),
(518,392,c),
(514,377,l),
(599,394,o),
(653,459,o),
(653,546,cs),
(653,673,o),
(562,750,o),
(399,750,cs),
(74,750,l),
(74,0,l)
);
},
{
closed = 1;
nodes = (
(247,321,l),
(409,321,ls),
(461,321,o),
(500,288,o),
(500,235,cs),
(500,182,o),
(461,148,o),
(409,148,cs),
(247,148,l)
);
},
{
closed = 1;
nodes = (
(247,602,l),
(390,602,ls),
(442,602,o),
(481,576,o),
(481,527,cs),
(481,477,o),
(442,451,o),
(390,451,cs),
(247,451,l)
);
}
);
userData = {
assembly = "NPUSHB[ ]	/* 52 values pushed */
7 1 4 0 3 2 4 3 103 0 5 5 1 95 0 1 1 38 77 6 1 2 2 0 95 0 0 0 39 0 78 29 28 20 19 35 33 28 36 29 36 26 24 19 27 20 27 33 39 8 8 24 
CALL[ ]	/* CallFunction */";
};
width = 715;
},
{
layerId = m003;
shapes = (
{
closed = 1;
nodes = (
(403,0,ls),
(549,0,o),
(639,78,o),
(639,202,cs),
(639,310,o),
(567,376,o),
(465,385,c),
(464,373,l),
(565,385,o),
(625,452,o),
(625,550,cs),
(625,672,o),
(537,750,o),
(390,750,cs),
(97,750,l),
(97,0,l)
);
},
{
closed = 1;
nodes = (
(196,340,l),
(399,340,ls),
(485,340,o),
(541,290,o),
(541,214,cs),
(541,135,o),
(485,85,o),
(399,85,cs),
(196,85,l)
);
},
{
closed = 1;
nodes = (
(196,665,l),
(384,665,ls),
(470,665,o),
(526,618,o),
(526,541,cs),
(526,465,o),
(470,419,o),
(384,419,cs),
(196,419,l)
);
}
);
width = 706;
},
{
layerId = m004;
shapes = (
{
closed = 1;
nodes = (
(392,0,ls),
(531,0,o),
(620,76,o),
(620,196,cs),
(620,309,o),
(547,382,o),
(428,388,c),
(428,379,l),
(543,388,o),
(609,456,o),
(609,560,cs),
(609,672,o),
(520,750,o),
(381,750,cs),
(103,750,l),
(103,0,l)
);
},
{
closed = 1;
nodes = (
(151,361,l),
(389,361,ls),
(501,361,o),
(571,301,o),
(571,198,cs),
(571,102,o),
(501,42,o),
(389,42,cs),
(151,42,l)
);
},
{
closed = 1;
nodes = (
(151,708,l),
(378,708,ls),
(490,708,o),
(560,646,o),
(560,559,cs),
(560,464,o),
(490,404,o),
(378,404,cs),
(151,404,l)
);
}
);
width = 693;
}
);
metricLeft = H;
note = B;
unicode = 66;
userData = {
KernOnName = B;
};
},
{
glyphname = C;
kernLeft = KO_O;
kernRight = KO_C;
lastChange = "2025-03-16 19:02:43 +0000";
layers = (
{
anchors = (
{
name = bottom;
pos = (382,0);
},
{
name = top;
pos = (382,750);
}
);
layerId = m002;
shapes = (
{
closed = 1;
nodes = (
(586,-15,o),
(708,94,o),
(717,280,c),
(542,280,l),
(533,206,o),
(497,138,o),
(401,138,cs),
(289,138,o),
(226,232,o),
(226,374,cs),
(226,518,o),
(291,610,o),
(396,610,cs),
(475,610,o),
(525,557,o),
(536,482,c),
(712,482,l),
(707,648,o),
(583,765,o),
(394,765,cs),
(181,765,o),
(46,615,o),
(46,375,cs),
(46,134,o),
(181,-15,o),
(399,-15,cs)
);
}
);
userData = {
assembly = "NPUSHB[ ]	/* 56 values pushed */
0 1 2 4 2 1 4 128 0 4 3 2 4 3 126 0 2 2 0 97 6 1 0 0 46 77 0 3 3 5 97 0 5 5 47 5 78 1 0 26 24 21 20 17 15 9 7 5 4 0 32 1 32 7 8 22 
CALL[ ]	/* CallFunction */";
};
width = 763;
},
{
anchors = (
{
name = bottom;
pos = (386,0);
},
{
name = top;
pos = (386,750);
}
);
layerId = m003;
shapes = (
{
closed = 1;
nodes = (
(580,-15,o),
(690,91,o),
(707,259,c),
(608,259,l),
(591,159,o),
(533,74,o),
(407,74,cs),
(262,74,o),
(167,196,o),
(167,375,cs),
(167,552,o),
(262,675,o),
(405,675,cs),
(511,675,o),
(572,609,o),
(596,512,c),
(695,512,l),
(673,664,o),
(571,765,o),
(404,765,cs),
(201,765,o),
(64,607,o),
(64,375,cs),
(64,143,o),
(201,-15,o),
(407,-15,cs)
);
}
);
width = 771;
},
{
anchors = (
{
name = bottom;
pos = (389,0);
},
{
name = top;
pos = (389,750);
}
);
layerId = m004;
shapes = (
{
closed = 1;
nodes = (
(582,-15,o),
(682,91,o),
(708,245,c),
(662,245,l),
(636,119,o),
(558,28,o),
(413,28,cs),
(237,28,o),
(118,173,o),
(118,375,cs),
(118,577,o),
(237,722,o),
(411,722,cs),
(526,722,o),
(626,642,o),
(645,532,c),
(692,532,l),
(672,672,o),
(552,765,o),
(413,765,cs),
(210,765,o),
(69,601,o),
(69,375,cs),
(69,149,o),
(210,-15,o),
(413,-15,cs)
);
}
);
width = 777;
}
);
metricLeft = O;
metricRight = O;
note = C;
unicode = 67;
userData = {
KernOnName = C;
};
},
{
glyphname = D;
kernLeft = KO_E;
kernRight = KO_O;
lastChange = "2025-03-16 19:02:43 +0000";
layers = (
{
anchors = (
{
name = bottom;
pos = (384,0);
},
{
name = center;
pos = (192,375);
},
{
name = top;
pos = (384,750);
}
);
layerId = m002;
shapes = (
{
closed = 1;
nodes = (
(375,0,ls),
(588,0,o),
(722,146,o),
(722,376,cs),
(722,607,o),
(588,750,o),
(375,750,cs),
(74,750,l),
(74,0,l)
);
},
{
closed = 1;
nodes = (
(248,606,l),
(375,606,ls),
(479,606,o),
(542,523,o),
(542,376,cs),
(542,228,o),
(479,144,o),
(375,144,cs),
(248,144,l)
);
}
);
userData = {
assembly = "NPUSHB[ ]	/* 42 values pushed */
5 1 2 2 0 95 4 1 0 0 38 77 0 3 3 1 95 0 1 1 39 1 78 12 11 1 0 15 13 11 21 12 21 9 7 0 10 1 10 6 8 22 
CALL[ ]	/* CallFunction */";
};
width = 767;
},
{
anchors = (
{
name = bottom;
pos = (385,0);
},
{
name = center;
pos = (193,375);
},
{
name = top;
pos = (385,750);
}
);
layerId = m003;
shapes = (
{
closed = 1;
nodes = (
(350,0,ls),
(568,0,o),
(706,151,o),
(706,375,cs),
(706,599,o),
(568,750,o),
(350,750,cs),
(97,750,l),
(97,0,l)
);
},
{
closed = 1;
nodes = (
(196,667,l),
(350,667,ls),
(508,667,o),
(604,552,o),
(604,375,cs),
(604,198,o),
(508,83,o),
(350,83,cs),
(196,83,l)
);
}
);
width = 770;
},
{
anchors = (
{
name = bottom;
pos = (384,0);
},
{
name = center;
pos = (192,375);
},
{
name = top;
pos = (384,750);
}
);
layerId = m004;
shapes = (
{
closed = 1;
nodes = (
(328,0,ls),
(555,0,o),
(699,153,o),
(699,375,cs),
(699,596,o),
(555,750,o),
(328,750,cs),
(103,750,l),
(103,0,l)
);
},
{
closed = 1;
nodes = (
(151,709,l),
(328,709,ls),
(528,709,o),
(651,574,o),
(651,375,cs),
(651,177,o),
(529,41,o),
(328,41,cs),
(151,41,l)
);
}
);
width = 768;
}
);
metricLeft = H;
note = D;
unicode = 68;
},
{
glyphname = Dcroat;
kernLeft = KO_Dcroat;
kernRight = KO_O;
lastChange = "2025-03-16 19:02:43 +0000";
layers = (
{
layerId = m002;
shapes = (
{
closed = 1;
nodes = (
(369,318,l),
(369,433,l),
(-3,433,l),
(-3,318,l)
);
},
{
ref = D;
}
);
width = 769;
},
{
layerId = m003;
shapes = (
{
closed = 1;
nodes = (
(369,339,l),
(369,419,l),
(-3,419,l),
(-3,339,l)
);
},
{
ref = D;
}
);
width = 773;
},
{
layerId = m004;
shapes = (
{
closed = 1;
nodes = (
(369,354,l),
(369,397,l),
(-3,397,l),
(-3,354,l)
);
},
{
ref = D;
}
);
width = 769;
}
);
note = Dcroat;
unicode = 272;
},
{
glyphname = E;
kernLeft = KO_E;
kernRight = KO_E;
lastChange = "2025-03-16 19:02:43 +0000";
layers = (
{
anchors = (
{
name = bottom;
pos = (340,0);
},
{
name = ogonek;
pos = (584,0);
},
{
name = top;
pos = (340,750);
},
{
name = topleft;
pos = (74,750);
}
);
layerId = m002;
shapes = (
{
closed = 1;
nodes = (
(584,0,l),
(584,151,l),
(248,151,l),
(248,313,l),
(563,313,l),
(563,458,l),
(248,458,l),
(248,599,l),
(584,599,l),
(584,750,l),
(74,750,l),
(74,0,l)
);
}
);
userData = {
assembly = "NPUSHB[ ]	/* 44 values pushed */
0 1 0 2 3 1 2 103 0 0 0 5 95 6 1 5 5 38 77 0 3 3 4 95 0 4 4 39 4 78 0 0 0 11 0 11 17 17 17 17 17 7 8 27 
CALL[ ]	/* CallFunction */";
};
width = 633;
},
{
anchors = (
{
name = bottom;
pos = (328,0);
},
{
name = ogonek;
pos = (552,0);
},
{
name = top;
pos = (328,750);
},
{
name = topleft;
pos = (97,750);
}
);
layerId = m003;
shapes = (
{
closed = 1;
nodes = (
(552,0,l),
(552,88,l),
(196,88,l),
(196,345,l),
(528,345,l),
(528,430,l),
(196,430,l),
(196,662,l),
(552,662,l),
(552,750,l),
(97,750,l),
(97,0,l)
);
}
);
width = 608;
},
{
anchors = (
{
name = bottom;
pos = (314,0);
},
{
name = ogonek;
pos = (531,0);
},
{
name = top;
pos = (314,750);
},
{
name = topleft;
pos = (103,750);
}
);
layerId = m004;
shapes = (
{
closed = 1;
nodes = (
(531,0,l),
(531,42,l),
(151,42,l),
(151,368,l),
(505,368,l),
(505,410,l),
(151,410,l),
(151,708,l),
(531,708,l),
(531,750,l),
(103,750,l),
(103,0,l)
);
}
);
width = 589;
}
);
metricLeft = H;
note = E;
unicode = 69;
userData = {
KernOnName = E;
};
},
{
glyphname = F;
kernLeft = KO_E;
kernRight = KO_F;
lastChange = "2025-03-16 19:02:43 +0000";
layers = (
{
layerId = m002;
shapes = (
{
closed = 1;
nodes = (
(248,0,l),
(248,290,l),
(554,290,l),
(554,437,l),
(248,437,l),
(248,599,l),
(573,599,l),
(573,750,l),
(74,750,l),
(74,0,l)
);
}
);
userData = {
assembly = "NPUSHB[ ]	/* 38 values pushed */
0 1 0 2 3 1 2 103 0 0 0 4 95 5 1 4 4 38 77 0 3 3 39 3 78 0 0 0 9 0 9 17 17 17 17 6 8 26 
CALL[ ]	/* CallFunction */";
};
width = 607;
},
{
layerId = m003;
shapes = (
{
closed = 1;
nodes = (
(196,0,l),
(196,336,l),
(525,336,l),
(525,421,l),
(196,421,l),
(196,662,l),
(547,662,l),
(547,750,l),
(97,750,l),
(97,0,l)
);
}
);
width = 580;
},
{
layerId = m004;
shapes = (
{
closed = 1;
nodes = (
(151,0,l),
(151,368,l),
(505,368,l),
(505,410,l),
(151,410,l),
(151,708,l),
(531,708,l),
(531,750,l),
(103,750,l),
(103,0,l)
);
}
);
width = 564;
}
);
metricLeft = H;
note = F;
unicode = 70;
},
{
glyphname = G;
kernLeft = KO_O;
kernRight = KO_G;
lastChange = "2025-03-16 19:02:43 +0000";
layers = (
{
anchors = (
{
name = bottom;
pos = (388,0);
},
{
name = top;
pos = (388,750);
}
);
layerId = m002;
shapes = (
{
closed = 1;
nodes = (
(631,-15,o),
(748,144,o),
(728,415,c),
(418,415,l),
(418,274,l),
(591,274,l),
(550,314,l),
(551,199,o),
(496,138,o),
(407,138,cs),
(295,138,o),
(226,226,o),
(226,376,cs),
(226,523,o),
(292,611,o),
(392,611,cs),
(473,611,o),
(523,566,o),
(533,492,c),
(715,492,l),
(701,659,o),
(580,764,o),
(400,764,cs),
(183,764,o),
(46,614,o),
(46,374,cs),
(46,135,o),
(182,-15,o),
(405,-15,cs)
);
}
);
userData = {
assembly = "NPUSHB[ ]	/* 47 values pushed */
0 4 5 1 5 4 1 128 0 1 0 0 6 1 0 103 0 5 5 3 97 0 3 3 46 77 0 6 6 2 97 0 2 2 47 2 78 38 34 19 38 35 17 16 7 8 29 
CALL[ ]	/* CallFunction */";
};
width = 776;
},
{
anchors = (
{
name = bottom;
pos = (392,0);
},
{
name = top;
pos = (392,750);
}
);
layerId = m003;
shapes = (
{
closed = 1;
nodes = (
(607,-15,o),
(728,135,o),
(719,387,c),
(451,387,l),
(451,305,l),
(660,305,l),
(619,331,l),
(620,180,o),
(535,75,o),
(406,75,cs),
(258,75,o),
(167,198,o),
(167,375,cs),
(167,555,o),
(257,675,o),
(399,675,cs),
(500,675,o),
(575,613,o),
(596,522,c),
(698,522,l),
(675,670,o),
(559,765,o),
(404,765,cs),
(195,765,o),
(64,608,o),
(64,375,cs),
(64,145,o),
(195,-15,o),
(406,-15,cs)
);
}
);
width = 783;
},
{
anchors = (
{
name = bottom;
pos = (396,0);
},
{
name = top;
pos = (396,750);
}
);
layerId = m004;
shapes = (
{
closed = 1;
nodes = (
(600,-15,o),
(724,132,o),
(723,367,c),
(478,367,l),
(478,326,l),
(719,326,l),
(675,342,l),
(676,163,o),
(566,29,o),
(408,29,cs),
(228,29,o),
(118,176,o),
(118,375,cs),
(118,579,o),
(227,722,o),
(405,722,cs),
(523,722,o),
(617,646,o),
(646,542,c),
(695,542,l),
(665,677,o),
(548,765,o),
(407,765,cs),
(200,765,o),
(69,604,o),
(69,375,cs),
(69,150,o),
(200,-15,o),
(408,-15,cs)
);
}
);
width = 792;
}
);
metricLeft = C;
metricRight = C;
note = G;
unicode = 71;
userData = {
KernOnName = G;
};
},
{
glyphname = H;
kernLeft = KO_E;
kernRight = KO_H;
lastChange = "2025-03-16 19:47:44 +0000";
layers = (
{
layerId = m002;
shapes = (
{
closed = 1;
nodes = (
(250,0,l),
(250,750,l),
(74,750,l),
(74,0,l)
);
},
{
closed = 1;
nodes = (
(691,0,l),
(691,750,l),
(515,750,l),
(515,0,l)
);
},
{
closed = 1;
nodes = (
(545,317,l),
(545,473,l),
(220,473,l),
(220,317,l)
);
}
);
userData = {
assembly = "NPUSHB[ ]	/* 50 values pushed */
0 4 8 1 5 1 4 5 104 2 1 0 0 38 77 7 3 6 3 1 1 39 1 78 8 8 4 4 0 0 8 11 8 11 10 9 4 7 4 7 6 5 0 3 0 3 17 9 8 23 
CALL[ ]	/* CallFunction */";
};
width = 765;
},
{
layerId = m003;
shapes = (
{
closed = 1;
nodes = (
(197,0,l),
(197,750,l),
(97,750,l),
(97,0,l)
);
},
{
closed = 1;
nodes = (
(685,0,l),
(685,750,l),
(586,750,l),
(586,0,l)
);
},
{
closed = 1;
nodes = (
(606,346,l),
(606,436,l),
(177,436,l),
(177,346,l)
);
}
);
width = 782;
},
{
layerId = m004;
shapes = (
{
closed = 1;
nodes = (
(151,0,l),
(151,750,l),
(103,750,l),
(103,0,l)
);
},
{
closed = 1;
nodes = (
(687,0,l),
(687,750,l),
(639,750,l),
(639,0,l)
);
},
{
closed = 1;
nodes = (
(653,366,l),
(653,409,l),
(137,409,l),
(137,366,l)
);
}
);
width = 791;
}
);
note = H;
unicode = 72;
userData = {
KernOnName = H;
};
},
{
glyphname = I;
kernLeft = KO_E;
kernRight = KO_H;
lastChange = "2025-03-16 19:02:43 +0000";
layers = (
{
anchors = (
{
name = bottom;
pos = (163,0);
},
{
name = ogonek;
pos = (251,0);
},
{
name = top;
pos = (163,750);
},
{
name = topleft;
pos = (74,750);
}
);
layerId = m002;
shapes = (
{
closed = 1;
nodes = (
(251,0,l),
(251,750,l),
(74,750,l),
(74,0,l)
);
}
);
userData = {
assembly = "NPUSHB[ ]	/* 22 values pushed */
2 1 1 1 38 77 0 0 0 39 0 78 0 0 0 3 0 3 17 3 8 23 
CALL[ ]	/* CallFunction */";
};
width = 325;
},
{
anchors = (
{
name = bottom;
pos = (148,0);
},
{
name = ogonek;
pos = (197,0);
},
{
name = top;
pos = (148,750);
},
{
name = topleft;
pos = (97,750);
}
);
layerId = m003;
shapes = (
{
closed = 1;
nodes = (
(197,0,l),
(197,750,l),
(97,750,l),
(97,0,l)
);
}
);
width = 294;
},
{
anchors = (
{
name = bottom;
pos = (127,0);
},
{
name = ogonek;
pos = (151,0);
},
{
name = top;
pos = (127,750);
},
{
name = topleft;
pos = (103,750);
}
);
layerId = m004;
shapes = (
{
closed = 1;
nodes = (
(151,0,l),
(151,750,l),
(103,750,l),
(103,0,l)
);
}
);
width = 255;
}
);
metricLeft = H;
metricRight = H;
note = I;
unicode = 73;
userData = {
KernOnName = I;
};
},
{
glyphname = J;
kernLeft = KO_J;
kernRight = KO_H;
lastChange = "2025-07-03 09:34:56 +0000";
layers = (
{
anchors = (
{
name = bottom;
pos = (242,0);
},
{
name = top;
pos = (322,750);
}
);
layerId = m002;
shapes = (
{
closed = 1;
nodes = (
(317,-15,o),
(410,83,o),
(410,268,cs),
(410,750,l),
(233,750,l),
(233,269,ls),
(233,175,o),
(196,135,o),
(118,135,cs),
(89,135,o),
(58,140,o),
(31,148,c),
(31,0,l),
(72,-9,o),
(113,-15,o),
(152,-15,cs)
);
}
);
userData = {
assembly = "NPUSHB[ ]	/* 30 values pushed */
0 2 2 38 77 0 1 1 0 96 3 1 0 0 39 0 78 1 0 8 7 4 2 0 11 1 11 4 8 22 
CALL[ ]	/* CallFunction */";
};
width = 484;
},
{
anchors = (
{
name = bottom;
pos = (232,0);
},
{
name = top;
pos = (316,750);
}
);
layerId = m003;
shapes = (
{
closed = 1;
nodes = (
(288,-15,o),
(366,77,o),
(366,262,cs),
(366,750,l),
(267,750,l),
(267,263,ls),
(267,132,o),
(221,72,o),
(127,72,cs),
(94,72,o),
(72,77,o),
(36,88,c),
(36,3,l),
(74,-9,o),
(105,-15,o),
(142,-15,cs)
);
}
);
width = 463;
},
{
anchors = (
{
name = bottom;
pos = (224,0);
},
{
name = top;
pos = (318,750);
}
);
layerId = m004;
shapes = (
{
closed = 1;
nodes = (
(274,-15,o),
(343,72,o),
(343,259,cs),
(343,750,l),
(296,750,l),
(296,260,ls),
(296,100,o),
(243,27,o),
(134,27,cs),
(94,27,o),
(72,35,o),
(38,46,c),
(38,5,l),
(72,-8,o),
(96,-15,o),
(137,-15,cs)
);
}
);
width = 447;
}
);
note = J;
unicode = 74;
userData = {
KernOnName = J;
};
},
{
glyphname = K;
kernLeft = KO_E;
kernRight = KO_K;
lastChange = "2025-03-16 19:02:43 +0000";
layers = (
{
layerId = m002;
shapes = (
{
closed = 1;
nodes = (
(689,750,l),
(474,750,l),
(155,321,l),
(201,136,l)
);
},
{
closed = 1;
nodes = (
(249,0,l),
(249,750,l),
(74,750,l),
(74,0,l)
);
},
{
closed = 1;
nodes = (
(708,0,l),
(450,511,l),
(327,371,l),
(495,0,l)
);
}
);
userData = {
assembly = "NPUSHB[ ]	/* 27 values pushed */
11 7 2 0 1 1 76 3 1 1 1 38 77 2 1 0 0 39 0 78 19 18 17 16 4 8 26 
CALL[ ]	/* CallFunction */";
};
width = 719;
},
{
layerId = m003;
shapes = (
{
closed = 1;
nodes = (
(644,750,l),
(522,750,l),
(151,309,l),
(172,198,l)
);
},
{
closed = 1;
nodes = (
(196,0,l),
(196,750,l),
(97,750,l),
(97,0,l)
);
},
{
closed = 1;
nodes = (
(657,0,l),
(382,478,l),
(313,400,l),
(537,0,l)
);
}
);
width = 685;
},
{
layerId = m004;
shapes = (
{
closed = 1;
nodes = (
(616,750,l),
(556,750,l),
(140,301,l),
(141,241,l)
);
},
{
closed = 1;
nodes = (
(151,0,l),
(151,750,l),
(103,750,l),
(103,0,l)
);
},
{
closed = 1;
nodes = (
(625,0,l),
(330,454,l),
(298,420,l),
(569,0,l)
);
}
);
width = 659;
}
);
metricLeft = H;
metricRight = A;
note = K;
unicode = 75;
userData = {
KernOnName = K;
};
},
{
glyphname = L;
kernLeft = KO_E;
kernRight = KO_L;
lastChange = "2025-03-16 19:02:43 +0000";
layers = (
{
anchors = (
{
name = bottom;
pos = (303,0);
},
{
name = center;
pos = (303,375);
},
{
name = top;
pos = (303,750);
},
{
name = topright;
pos = (586,750);
}
);
layerId = m002;
shapes = (
{
closed = 1;
nodes = (
(579,0,l),
(579,155,l),
(250,155,l),
(250,750,l),
(74,750,l),
(74,0,l)
);
}
);
userData = {
assembly = "NPUSHB[ ]	/* 28 values pushed */
3 1 2 2 38 77 0 0 0 1 96 0 1 1 39 1 78 0 0 0 5 0 5 17 17 4 8 24 
CALL[ ]	/* CallFunction */";
};
width = 606;
},
{
anchors = (
{
name = bottom;
pos = (294,0);
},
{
name = center;
pos = (294,375);
},
{
name = top;
pos = (294,750);
},
{
name = topright;
pos = (567,750);
}
);
layerId = m003;
shapes = (
{
closed = 1;
nodes = (
(552,0,l),
(552,89,l),
(197,89,l),
(197,750,l),
(97,750,l),
(97,0,l)
);
}
);
width = 587;
},
{
anchors = (
{
name = bottom;
pos = (286,0);
},
{
name = center;
pos = (286,375);
},
{
name = top;
pos = (286,750);
},
{
name = topright;
pos = (551,750);
}
);
layerId = m004;
shapes = (
{
closed = 1;
nodes = (
(534,0,l),
(534,42,l),
(151,42,l),
(151,750,l),
(103,750,l),
(103,0,l)
);
}
);
width = 571;
}
);
metricLeft = H;
note = L;
unicode = 76;
userData = {
KernOnName = L;
};
},
{
glyphname = Lcaron;
lastChange = "2025-03-16 19:28:21 +0000";
layers = (
{
layerId = m002;
shapes = (
{
ref = L;
},
{
closed = 1;
nodes = (
(512,850,l),
(370,868,l),
(340,636,l),
(473,618,l)
);
}
);
width = 606;
},
{
layerId = m003;
shapes = (
{
ref = L;
},
{
closed = 1;
nodes = (
(403,857,l),
(317,868,l),
(287,636,l),
(364,625,l)
);
}
);
width = 587;
},
{
layerId = m004;
shapes = (
{
ref = L;
},
{
closed = 1;
nodes = (
(340,863,l),
(295,868,l),
(265,636,l),
(301,631,l)
);
}
);
width = 571;
}
);
unicode = 317;
},
{
glyphname = Lslash;
lastChange = "2025-03-16 19:02:43 +0000";
layers = (
{
layerId = m002;
shapes = (
{
closed = 1;
nodes = (
(373,391,l),
(337,528,l),
(-13,434,l),
(23,297,l)
);
},
{
ref = L;
}
);
width = 600;
},
{
layerId = m003;
shapes = (
{
closed = 1;
nodes = (
(359,410,l),
(337,494,l),
(-13,400,l),
(9,316,l)
);
},
{
ref = L;
}
);
width = 573;
},
{
layerId = m004;
shapes = (
{
closed = 1;
nodes = (
(349,424,l),
(337,468,l),
(-13,374,l),
(-1,330,l)
);
},
{
ref = L;
}
);
width = 555;
}
);
unicode = 321;
},
{
glyphname = M;
kernLeft = KO_E;
kernRight = KO_H;
lastChange = "2025-03-16 19:02:43 +0000";
layers = (
{
layerId = m002;
shapes = (
{
closed = 1;
nodes = (
(238,0,l),
(238,622,l),
(215,620,l),
(263,446,l),
(410,0,l),
(551,0,l),
(707,449,l),
(757,620,l),
(728,622,l),
(728,0,l),
(898,0,l),
(898,750,l),
(671,750,l),
(457,139,l),
(520,139,l),
(309,750,l),
(74,750,l),
(74,0,l)
);
}
);
userData = {
assembly = "NPUSHB[ ]	/* 36 values pushed */
13 8 3 3 0 3 1 76 5 4 2 3 3 38 77 2 1 2 0 0 39 0 78 0 0 0 14 0 14 17 19 19 17 6 8 26 
CALL[ ]	/* CallFunction */";
};
width = 972;
},
{
layerId = m003;
shapes = (
{
closed = 1;
nodes = (
(192,0,l),
(192,686,l),
(173,682,l),
(229,523,l),
(439,0,l),
(526,0,l),
(745,526,l),
(802,682,l),
(779,686,l),
(779,0,l),
(877,0,l),
(877,750,l),
(743,750,l),
(463,65,l),
(509,65,l),
(235,750,l),
(97,750,l),
(97,0,l)
);
}
);
width = 974;
},
{
layerId = m004;
shapes = (
{
closed = 1;
nodes = (
(151,0,l),
(151,730,l),
(133,726,l),
(197,580,l),
(459,0,l),
(510,0,l),
(779,584,l),
(844,726,l),
(825,730,l),
(825,0,l),
(873,0,l),
(873,750,l),
(802,750,l),
(466,14,l),
(503,14,l),
(175,750,l),
(103,750,l),
(103,0,l)
);
}
);
width = 977;
}
);
metricLeft = H;
metricRight = H;
note = M;
unicode = 77;
userData = {
KernOnName = M;
};
},
{
color = 6;
glyphname = M.ss01;
kernLeft = KO_H;
kernRight = KO_H;
lastChange = "2025-07-03 09:43:10 +0000";
layers = (
{
layerId = m002;
shapes = (
{
closed = 1;
nodes = (
(240,0,l),
(240,505,ls),
(240,576,o),
(280,619,o),
(344,619,cs),
(410,619,o),
(451,576,o),
(451,505,cs),
(451,0,l),
(617,0,l),
(617,505,ls),
(617,576,o),
(657,619,o),
(723,619,cs),
(787,619,o),
(825,576,o),
(825,505,cs),
(825,0,l),
(992,0,l),
(992,505,ls),
(992,662,o),
(895,765,o),
(746,765,cs),
(639,765,o),
(554,714,o),
(515,632,c),
(556,632,l),
(517,714,o),
(431,765,o),
(323,765,cs),
(173,765,o),
(74,662,o),
(74,505,cs),
(74,0,l)
);
}
);
userData = {
assembly = "NPUSHB[ ]	/* 36 values pushed */
13 8 3 3 0 3 1 76 5 4 2 3 3 38 77 2 1 2 0 0 39 0 78 0 0 0 14 0 14 17 19 19 17 6 8 26 
CALL[ ]	/* CallFunction */";
};
width = 1066;
},
{
layerId = m003;
shapes = (
{
closed = 1;
nodes = (
(198,0,l),
(198,513,ls),
(198,614,o),
(255,677,o),
(344,677,cs),
(436,677,o),
(494,614,o),
(494,513,cs),
(494,0,l),
(595,0,l),
(595,513,ls),
(595,613,o),
(652,677,o),
(744,677,cs),
(833,677,o),
(889,615,o),
(889,513,cs),
(889,0,l),
(990,0,l),
(990,513,ls),
(990,667,o),
(898,765,o),
(753,765,cs),
(647,765,o),
(563,709,o),
(532,617,c),
(560,617,l),
(528,710,o),
(442,765,o),
(337,765,cs),
(191,765,o),
(97,667,o),
(97,513,cs),
(97,0,l)
);
}
);
width = 1087;
},
{
layerId = m004;
shapes = (
{
closed = 1;
nodes = (
(150,0,l),
(150,520,ls),
(150,645,o),
(220,724,o),
(332,724,cs),
(445,724,o),
(516,645,o),
(516,520,cs),
(516,0,l),
(565,0,l),
(565,520,ls),
(565,645,o),
(636,724,o),
(748,724,cs),
(859,724,o),
(929,645,o),
(929,520,cs),
(929,0,l),
(975,0,l),
(975,520,ls),
(975,671,o),
(887,765,o),
(746,765,cs),
(639,765,o),
(557,703,o),
(533,604,c),
(550,604,l),
(525,703,o),
(442,765,o),
(336,765,cs),
(193,765,o),
(103,671,o),
(103,520,cs),
(103,0,l)
);
}
);
width = 1079;
}
);
metricLeft = M;
metricRight = M;
},
{
glyphname = N;
kernLeft = KO_E;
kernRight = KO_H;
lastChange = "2025-03-16 19:02:43 +0000";
layers = (
{
anchors = (
{
name = bottom;
pos = (387,0);
},
{
name = top;
pos = (387,750);
}
);
layerId = m002;
shapes = (
{
closed = 1;
nodes = (
(240,0,l),
(240,594,l),
(204,590,l),
(252,477,l),
(489,0,l),
(700,0,l),
(700,750,l),
(534,750,l),
(534,156,l),
(569,160,l),
(516,283,l),
(285,750,l),
(74,750,l),
(74,0,l)
);
}
);
userData = {
assembly = "NPUSHB[ ]	/* 27 values pushed */
11 5 2 1 0 1 76 3 1 0 0 38 77 2 1 1 1 39 1 78 17 19 17 16 4 8 26 
CALL[ ]	/* CallFunction */";
};
width = 774;
},
{
anchors = (
{
name = bottom;
pos = (379,0);
},
{
name = top;
pos = (379,750);
}
);
layerId = m003;
shapes = (
{
closed = 1;
nodes = (
(193,0,l),
(193,674,l),
(164,668,l),
(218,563,l),
(538,0,l),
(660,0,l),
(660,750,l),
(565,750,l),
(565,76,l),
(594,82,l),
(535,191,l),
(220,750,l),
(97,750,l),
(97,0,l)
);
}
);
width = 757;
},
{
anchors = (
{
name = bottom;
pos = (371,0);
},
{
name = top;
pos = (371,750);
}
);
layerId = m004;
shapes = (
{
closed = 1;
nodes = (
(151,0,l),
(151,731,l),
(128,725,l),
(187,626,l),
(575,0,l),
(637,0,l),
(637,750,l),
(590,750,l),
(590,19,l),
(614,26,l),
(551,126,l),
(166,750,l),
(103,750,l),
(103,0,l)
);
}
);
width = 741;
}
);
metricLeft = H;
metricRight = H;
note = N;
unicode = 78;
userData = {
KernOnName = N;
};
},
{
color = 6;
glyphname = N.ss01;
kernLeft = KO_H;
kernRight = KO_H;
lastChange = "2025-03-16 19:02:43 +0000";
layers = (
{
layerId = m002;
shapes = (
{
closed = 1;
nodes = (
(240,0,l),
(240,486,ls),
(240,569,o),
(290,621,o),
(369,621,cs),
(448,621,o),
(498,569,o),
(498,486,cs),
(498,0,l),
(665,0,l),
(665,488,ls),
(665,658,o),
(551,765,o),
(369,765,cs),
(188,765,o),
(74,658,o),
(74,488,cs),
(74,0,l)
);
}
);
userData = {
assembly = "NPUSHB[ ]	/* 27 values pushed */
11 5 2 1 0 1 76 3 1 0 0 38 77 2 1 1 1 39 1 78 17 19 17 16 4 8 26 
CALL[ ]	/* CallFunction */";
};
width = 739;
},
{
layerId = m003;
shapes = (
{
closed = 1;
nodes = (
(199,0,l),
(199,494,ls),
(199,601,o),
(265,675,o),
(369,675,cs),
(474,675,o),
(540,601,o),
(540,494,cs),
(540,0,l),
(642,0,l),
(642,499,ls),
(642,659,o),
(537,765,o),
(369,765,cs),
(202,765,o),
(97,659,o),
(97,499,cs),
(97,0,l)
);
}
);
width = 739;
},
{
layerId = m004;
shapes = (
{
closed = 1;
nodes = (
(152,0,l),
(152,500,ls),
(152,628,o),
(231,719,o),
(357,719,cs),
(483,719,o),
(562,628,o),
(562,500,cs),
(562,0,l),
(611,0,l),
(611,508,ls),
(611,660,o),
(513,765,o),
(357,765,cs),
(201,765,o),
(103,660,o),
(103,508,cs),
(103,0,l)
);
}
);
width = 715;
}
);
metricLeft = H;
metricRight = H;
},
{
glyphname = O;
kernLeft = KO_O;
kernRight = KO_O;
lastChange = "2025-03-16 19:02:43 +0000";
layers = (
{
anchors = (
{
name = bottom;
pos = (400,0);
},
{
name = top;
pos = (400,750);
}
);
layerId = m002;
shapes = (
{
closed = 1;
nodes = (
(617,-15,o),
(754,135,o),
(754,374,cs),
(754,614,o),
(617,765,o),
(400,765,cs),
(183,765,o),
(46,614,o),
(46,374,cs),
(46,135,o),
(183,-15,o),
(400,-15,cs)
);
},
{
closed = 1;
nodes = (
(293,140,o),
(226,230,o),
(226,374,cs),
(226,519,o),
(293,610,o),
(400,610,cs),
(507,610,o),
(574,519,o),
(574,374,cs),
(574,230,o),
(507,140,o),
(400,140,cs)
);
}
);
userData = {
assembly = "NPUSHB[ ]	/* 42 values pushed */
0 3 3 1 97 0 1 1 46 77 5 1 2 2 0 97 4 1 0 0 47 0 78 17 16 1 0 25 23 16 31 17 31 9 7 0 15 1 15 6 8 22 
CALL[ ]	/* CallFunction */";
};
width = 800;
},
{
anchors = (
{
name = bottom;
pos = (413,0);
},
{
name = top;
pos = (413,750);
}
);
layerId = m003;
shapes = (
{
closed = 1;
nodes = (
(620,-15,o),
(761,142,o),
(761,375,cs),
(761,607,o),
(621,765,o),
(413,765,cs),
(205,765,o),
(64,608,o),
(64,375,cs),
(64,141,o),
(206,-15,o),
(413,-15,cs)
);
},
{
closed = 1;
nodes = (
(267,75,o),
(167,196,o),
(167,375,cs),
(167,552,o),
(266,675,o),
(413,675,cs),
(559,675,o),
(660,554,o),
(660,375,cs),
(660,195,o),
(559,75,o),
(413,75,cs)
);
}
);
width = 825;
},
{
anchors = (
{
name = bottom;
pos = (423,0);
},
{
name = top;
pos = (423,750);
}
);
layerId = m004;
shapes = (
{
closed = 1;
nodes = (
(631,-15,o),
(777,146,o),
(777,375,cs),
(777,604,o),
(631,765,o),
(424,765,cs),
(216,765,o),
(69,604,o),
(69,375,cs),
(69,146,o),
(216,-15,o),
(424,-15,cs)
);
},
{
closed = 1;
nodes = (
(244,28,o),
(118,171,o),
(118,375,cs),
(118,579,o),
(244,722,o),
(424,722,cs),
(603,722,o),
(729,579,o),
(729,375,cs),
(729,171,o),
(603,28,o),
(424,28,cs)
);
}
);
width = 846;
}
);
note = O;
unicode = 79;
userData = {
KernOnName = O;
};
},
{
glyphname = Ohorn;
kernLeft = KO_Ohorn;
kernRight = KO_Ohorn;
lastChange = "2025-03-16 19:02:43 +0000";
layers = (
{
anchors = (
{
name = bottom;
pos = (392,0);
},
{
name = center;
pos = (392,374);
},
{
name = top;
pos = (392,750);
}
);
layerId = m002;
shapes = (
{
closed = 1;
nodes = (
(609,-15,o),
(746,135,o),
(746,374,cs),
(746,614,o),
(609,765,o),
(392,765,cs),
(175,765,o),
(38,614,o),
(38,374,cs),
(38,135,o),
(175,-15,o),
(392,-15,cs)
);
},
{
closed = 1;
nodes = (
(279,135,o),
(208,227,o),
(208,374,cs),
(208,522,o),
(279,615,o),
(392,615,cs),
(505,615,o),
(576,522,o),
(576,374,cs),
(576,227,o),
(505,135,o),
(392,135,cs)
);
},
{
closed = 1;
nodes = (
(665,653,o),
(731,724,o),
(719,833,c),
(588,833,l),
(595,769,o),
(578,742,o),
(531,748,cs),
(490,754,o),
(462,765,o),
(392,765,c),
(557,658,l)
);
}
);
width = 784;
},
{
anchors = (
{
name = bottom;
pos = (408,0);
},
{
name = center;
pos = (408,374);
},
{
name = top;
pos = (408,750);
}
);
layerId = m003;
shapes = (
{
closed = 1;
nodes = (
(619,-15,o),
(762,142,o),
(762,375,cs),
(762,608,o),
(619,765,o),
(409,765,cs),
(197,765,o),
(54,607,o),
(54,375,cs),
(54,142,o),
(197,-15,o),
(409,-15,cs)
);
},
{
closed = 1;
nodes = (
(255,71,o),
(150,194,o),
(150,375,cs),
(150,556,o),
(255,679,o),
(409,679,cs),
(561,679,o),
(666,556,o),
(666,375,cs),
(666,194,o),
(561,71,o),
(409,71,cs)
);
},
{
closed = 1;
nodes = (
(666,677,o),
(719,724,o),
(709,843,c),
(632,843,l),
(638,757,o),
(611,731,o),
(565,737,cs),
(532,741,o),
(496,765,o),
(408,765,c),
(570,679,l)
);
}
);
width = 816;
},
{
anchors = (
{
name = bottom;
pos = (418,0);
},
{
name = center;
pos = (418,374);
},
{
name = top;
pos = (418,750);
}
);
layerId = m004;
shapes = (
{
closed = 1;
nodes = (
(626,-15,o),
(772,146,o),
(772,375,cs),
(772,604,o),
(626,765,o),
(419,765,cs),
(211,765,o),
(64,604,o),
(64,375,cs),
(64,146,o),
(211,-15,o),
(419,-15,cs)
);
},
{
closed = 1;
nodes = (
(239,28,o),
(113,171,o),
(113,375,cs),
(113,579,o),
(239,722,o),
(419,722,cs),
(598,722,o),
(724,579,o),
(724,375,cs),
(724,171,o),
(598,28,o),
(419,28,cs)
);
},
{
closed = 1;
nodes = (
(668,691,o),
(713,723,o),
(704,833,c),
(661,833,l),
(666,752,o),
(635,728,o),
(597,728,cs),
(569,728,o),
(526,765,o),
(418,765,c),
(580,691,l)
);
}
);
width = 837;
}
);
unicode = 416;
},
{
glyphname = Oslash;
lastChange = "2025-03-16 19:02:43 +0000";
layers = (
{
layerId = m002;
shapes = (
{
closed = 1;
nodes = (
(735,693,l),
(613,780,l),
(66,58,l),
(186,-31,l)
);
},
{
ref = O;
}
);
width = 800;
},
{
layerId = m003;
shapes = (
{
closed = 1;
nodes = (
(732,723,l),
(662,773,l),
(95,24,l),
(163,-28,l)
);
},
{
ref = O;
}
);
width = 825;
},
{
layerId = m004;
shapes = (
{
closed = 1;
nodes = (
(735,745,l),
(699,771,l),
(117,8,l),
(151,-20,l)
);
},
{
ref = O;
}
);
width = 846;
}
);
metricLeft = O;
metricRight = O;
unicode = 216;
},
{
glyphname = OE;
lastChange = "2025-03-16 19:02:43 +0000";
layers = (
{
layerId = m002;
shapes = (
{
closed = 1;
nodes = (
(466,-15,o),
(524,-1,o),
(574,45,c),
(574,0,l),
(1084,0,l),
(1084,151,l),
(748,151,l),
(748,313,l),
(1063,313,l),
(1063,458,l),
(748,458,l),
(748,599,l),
(1084,599,l),
(1084,750,l),
(574,750,l),
(574,710,l),
(525,751,o),
(466,765,o),
(400,765,cs),
(183,765,o),
(46,614,o),
(46,374,cs),
(46,135,o),
(183,-15,o),
(400,-15,cs)
);
},
{
closed = 1;
nodes = (
(293,140,o),
(226,230,o),
(226,374,cs),
(226,519,o),
(293,610,o),
(400,610,cs),
(507,610,o),
(574,519,o),
(574,374,cs),
(574,230,o),
(507,140,o),
(400,140,cs)
);
}
);
width = 1133;
},
{
layerId = m003;
shapes = (
{
closed = 1;
nodes = (
(514,-15,o),
(599,22,o),
(660,88,c),
(660,0,l),
(1115,0,l),
(1115,88,l),
(759,88,l),
(759,345,l),
(1091,345,l),
(1091,430,l),
(759,430,l),
(759,662,l),
(1115,662,l),
(1115,750,l),
(660,750,l),
(660,662,l),
(599,728,o),
(514,765,o),
(413,765,cs),
(205,765,o),
(64,608,o),
(64,375,cs),
(64,141,o),
(206,-15,o),
(413,-15,cs)
);
},
{
closed = 1;
nodes = (
(267,75,o),
(167,196,o),
(167,375,cs),
(167,552,o),
(266,675,o),
(413,675,cs),
(559,675,o),
(660,554,o),
(660,375,cs),
(660,195,o),
(559,75,o),
(413,75,cs)
);
}
);
width = 1171;
},
{
layerId = m004;
shapes = (
{
closed = 1;
nodes = (
(560,-15,o),
(670,55,o),
(729,167,c),
(729,0,l),
(1157,0,l),
(1157,42,l),
(777,42,l),
(777,368,l),
(1131,368,l),
(1131,410,l),
(777,410,l),
(777,708,l),
(1157,708,l),
(1157,750,l),
(729,750,l),
(729,583,l),
(670,695,o),
(560,765,o),
(424,765,cs),
(216,765,o),
(69,604,o),
(69,375,cs),
(69,146,o),
(216,-15,o),
(424,-15,cs)
);
},
{
closed = 1;
nodes = (
(244,28,o),
(118,171,o),
(118,375,cs),
(118,579,o),
(244,722,o),
(424,722,cs),
(603,722,o),
(729,579,o),
(729,375,cs),
(729,171,o),
(603,28,o),
(424,28,cs)
);
}
);
width = 1215;
}
);
metricLeft = O;
metricRight = E;
unicode = 338;
},
{
glyphname = P;
kernLeft = KO_E;
kernRight = KO_P;
lastChange = "2025-03-16 19:02:43 +0000";
layers = (
{
layerId = m002;
shapes = (
{
closed = 1;
nodes = (
(248,0,l),
(248,262,l),
(362,262,ls),
(549,262,o),
(662,350,o),
(662,506,cs),
(662,662,o),
(549,750,o),
(362,750,cs),
(74,750,l),
(74,0,l)
);
},
{
closed = 1;
nodes = (
(248,603,l),
(362,603,ls),
(432,603,o),
(482,572,o),
(482,506,cs),
(482,440,o),
(432,409,o),
(362,409,cs),
(248,409,l)
);
}
);
userData = {
assembly = "NPUSHB[ ]	/* 47 values pushed */
6 1 3 0 1 2 3 1 103 0 4 4 0 95 5 1 0 0 38 77 0 2 2 39 2 78 14 13 1 0 20 18 13 21 14 21 11 10 9 7 0 12 1 12 7 8 22 
CALL[ ]	/* CallFunction */";
};
width = 685;
},
{
layerId = m003;
shapes = (
{
closed = 1;
nodes = (
(196,0,l),
(196,299,l),
(355,299,ls),
(533,299,o),
(637,381,o),
(637,526,cs),
(637,668,o),
(533,750,o),
(355,750,cs),
(97,750,l),
(97,0,l)
);
},
{
closed = 1;
nodes = (
(196,665,l),
(355,665,ls),
(468,665,o),
(536,616,o),
(536,526,cs),
(536,435,o),
(468,385,o),
(355,385,cs),
(196,385,l)
);
}
);
width = 671;
},
{
layerId = m004;
shapes = (
{
closed = 1;
nodes = (
(151,0,l),
(151,326,l),
(347,326,ls),
(522,326,o),
(623,403,o),
(623,539,cs),
(623,673,o),
(522,750,o),
(347,750,cs),
(103,750,l),
(103,0,l)
);
},
{
closed = 1;
nodes = (
(151,708,l),
(347,708,ls),
(493,708,o),
(575,647,o),
(575,539,cs),
(575,430,o),
(493,368,o),
(347,368,cs),
(151,368,l)
);
}
);
width = 659;
}
);
metricLeft = H;
note = P;
unicode = 80;
userData = {
KernOnName = P;
};
},
{
glyphname = Thorn;
lastChange = "2025-03-16 19:02:43 +0000";
layers = (
{
layerId = m002;
shapes = (
{
closed = 1;
nodes = (
(248,0,l),
(248,142,l),
(345,142,ls),
(484,142,o),
(586,251,o),
(586,380,cs),
(586,508,o),
(498,618,o),
(350,618,cs),
(248,618,l),
(248,750,l),
(61,750,l),
(61,0,l)
);
},
{
closed = 1;
nodes = (
(248,446,l),
(339,446,ls),
(383,446,o),
(410,419,o),
(410,381,cs),
(410,344,o),
(383,313,o),
(339,313,cs),
(248,313,l)
);
}
);
width = 618;
},
{
layerId = m003;
shapes = (
{
closed = 1;
nodes = (
(190,0,l),
(190,157,l),
(329,157,ls),
(489,157,o),
(590,248,o),
(590,381,cs),
(590,513,o),
(495,604,o),
(331,604,cs),
(190,604,l),
(190,749,l),
(84,749,l),
(84,0,l)
);
},
{
closed = 1;
nodes = (
(190,506,l),
(327,506,ls),
(430,506,o),
(489,460,o),
(489,381,cs),
(489,303,o),
(430,254,o),
(327,254,cs),
(190,254,l)
);
}
);
width = 639;
},
{
layerId = m004;
shapes = (
{
closed = 1;
nodes = (
(138,0,l),
(138,168,l),
(307,168,ls),
(483,168,o),
(583,246,o),
(583,381,cs),
(583,516,o),
(483,593,o),
(307,593,cs),
(138,593,l),
(138,748,l),
(90,748,l),
(90,0,l)
);
},
{
closed = 1;
nodes = (
(138,550,l),
(307,550,ls),
(453,550,o),
(535,490,o),
(535,381,cs),
(535,273,o),
(453,211,o),
(307,211,cs),
(138,211,l)
);
}
);
width = 636;
}
);
metricLeft = l;
metricRight = b;
unicode = 222;
},
{
glyphname = Q;
kernLeft = KO_O;
kernRight = KO_Q;
lastChange = "2025-03-16 19:02:43 +0000";
layers = (
{
layerId = m002;
shapes = (
{
closed = 1;
nodes = (
(617,-15,o),
(754,135,o),
(754,374,cs),
(754,614,o),
(617,765,o),
(400,765,cs),
(183,765,o),
(46,614,o),
(46,374,cs),
(46,135,o),
(183,-15,o),
(400,-15,cs)
);
},
{
closed = 1;
nodes = (
(753,-38,l),
(593,154,l),
(477,58,l),
(638,-134,l)
);
},
{
closed = 1;
nodes = (
(293,140,o),
(226,230,o),
(226,374,cs),
(226,519,o),
(293,610,o),
(400,610,cs),
(507,610,o),
(574,519,o),
(574,374,cs),
(574,230,o),
(507,140,o),
(400,140,cs)
);
}
);
userData = {
assembly = "NPUSHB[ ]	/* 56 values pushed */
2 1 2 3 1 1 0 2 2 76 3 1 0 73 0 3 3 1 97 0 1 1 46 77 5 1 2 2 0 97 4 1 0 0 47 0 78 21 20 5 4 29 27 20 35 21 35 13 11 4 19 5 19 6 8 22 
CALL[ ]	/* CallFunction */";
};
width = 800;
},
{
layerId = m003;
shapes = (
{
closed = 1;
nodes = (
(620,-15,o),
(761,142,o),
(761,375,cs),
(761,607,o),
(621,765,o),
(413,765,cs),
(205,765,o),
(64,608,o),
(64,375,cs),
(64,141,o),
(206,-15,o),
(413,-15,cs)
);
},
{
closed = 1;
nodes = (
(748,-37,l),
(618,111,l),
(551,56,l),
(681,-95,l)
);
},
{
closed = 1;
nodes = (
(267,75,o),
(167,196,o),
(167,375,cs),
(167,552,o),
(266,675,o),
(413,675,cs),
(559,675,o),
(660,554,o),
(660,375,cs),
(660,195,o),
(559,75,o),
(413,75,cs)
);
}
);
width = 825;
},
{
layerId = m004;
shapes = (
{
closed = 1;
nodes = (
(631,-15,o),
(777,146,o),
(777,375,cs),
(777,604,o),
(631,765,o),
(424,765,cs),
(216,765,o),
(69,604,o),
(69,375,cs),
(69,146,o),
(216,-15,o),
(424,-15,cs)
);
},
{
closed = 1;
nodes = (
(754,-36,l),
(644,81,l),
(609,54,l),
(721,-66,l)
);
},
{
closed = 1;
nodes = (
(244,28,o),
(118,171,o),
(118,375,cs),
(118,579,o),
(244,722,o),
(424,722,cs),
(603,722,o),
(729,579,o),
(729,375,cs),
(729,171,o),
(603,28,o),
(424,28,cs)
);
}
);
width = 846;
}
);
metricLeft = O;
metricRight = O;
note = Q;
unicode = 81;
},
{
glyphname = R;
kernLeft = KO_E;
kernRight = KO_R;
lastChange = "2025-03-16 19:02:43 +0000";
layers = (
{
anchors = (
{
name = bottom;
pos = (354,0);
},
{
name = top;
pos = (354,750);
}
);
layerId = m002;
shapes = (
{
closed = 1;
nodes = (
(248,0,l),
(248,274,l),
(372,274,ls),
(443,274,o),
(480,234,o),
(480,159,cs),
(480,0,l),
(652,0,l),
(652,177,ls),
(652,286,o),
(614,347,o),
(463,369,c),
(464,333,l),
(591,356,o),
(662,428,o),
(662,532,cs),
(662,672,o),
(558,750,o),
(372,750,cs),
(74,750,l),
(74,0,l)
);
},
{
closed = 1;
nodes = (
(248,601,l),
(372,601,ls),
(443,601,o),
(482,570,o),
(482,515,cs),
(482,455,o),
(443,421,o),
(372,421,cs),
(248,421,l)
);
}
);
userData = {
assembly = "NPUSHB[ ]	/* 41 values pushed */
6 1 4 0 1 0 4 1 103 0 5 5 3 95 0 3 3 38 77 2 1 0 0 39 0 78 23 22 29 27 22 30 23 30 33 17 35 20 7 8 26 
CALL[ ]	/* CallFunction */";
};
width = 708;
},
{
anchors = (
{
name = bottom;
pos = (335,0);
},
{
name = top;
pos = (335,750);
}
);
layerId = m003;
shapes = (
{
closed = 1;
nodes = (
(196,0,l),
(196,316,l),
(395,316,ls),
(481,316,o),
(527,268,o),
(527,189,cs),
(527,0,l),
(625,0,l),
(625,201,ls),
(625,287,o),
(588,359,o),
(459,372,c),
(460,350,l),
(577,369,o),
(638,443,o),
(638,538,cs),
(638,674,o),
(540,750,o),
(368,750,cs),
(97,750,l),
(97,0,l)
);
},
{
closed = 1;
nodes = (
(196,664,l),
(367,664,ls),
(476,664,o),
(536,618,o),
(536,538,cs),
(536,450,o),
(476,401,o),
(367,401,cs),
(196,401,l)
);
}
);
width = 670;
},
{
anchors = (
{
name = bottom;
pos = (330,0);
},
{
name = top;
pos = (330,750);
}
);
layerId = m004;
shapes = (
{
closed = 1;
nodes = (
(151,0,l),
(151,347,l),
(409,347,ls),
(508,347,o),
(561,292,o),
(561,210,cs),
(561,0,l),
(609,0,l),
(609,218,ls),
(609,302,o),
(558,370,o),
(456,376,c),
(457,364,l),
(568,380,o),
(625,452,o),
(625,549,cs),
(625,676,o),
(529,750,o),
(362,750,cs),
(103,750,l),
(103,0,l)
);
},
{
closed = 1;
nodes = (
(151,708,l),
(361,708,ls),
(499,708,o),
(576,651,o),
(576,549,cs),
(576,447,o),
(499,390,o),
(361,390,cs),
(151,390,l)
);
}
);
width = 660;
}
);
metricLeft = H;
note = R;
unicode = 82;
userData = {
KernOnName = R;
};
},
{
glyphname = S;
kernLeft = KO_S;
kernRight = KO_S;
lastChange = "2025-03-16 19:02:43 +0000";
layers = (
{
anchors = (
{
name = bottom;
pos = (346,0);
},
{
name = top;
pos = (346,750);
}
);
layerId = m002;
shapes = (
{
closed = 1;
nodes = (
(531,-15,o),
(647,79,o),
(647,219,cs),
(647,324,o),
(591,386,o),
(463,424,cs),
(296,474,ls),
(246,489,o),
(225,510,o),
(225,544,cs),
(225,589,o),
(262,618,o),
(332,618,cs),
(403,618,o),
(447,587,o),
(461,523,c),
(641,523,l),
(625,677,o),
(511,765,o),
(339,765,cs),
(161,765,o),
(46,670,o),
(46,521,cs),
(46,391,o),
(133,351,o),
(228,323,cs),
(388,276,ls),
(445,259,o),
(473,244,o),
(473,206,cs),
(473,160,o),
(421,134,o),
(349,134,cs),
(275,134,o),
(221,169,o),
(215,244,c),
(37,244,l),
(37,76,o),
(177,-15,o),
(353,-15,cs)
);
}
);
userData = {
assembly = "NPUSHB[ ]	/* 56 values pushed */
0 4 5 1 5 4 1 128 0 1 2 5 1 2 126 0 5 5 3 97 0 3 3 46 77 0 2 2 0 97 6 1 0 0 47 0 78 1 0 35 33 30 29 26 24 10 8 5 4 0 48 1 48 7 8 22 
CALL[ ]	/* CallFunction */";
};
width = 691;
},
{
associatedMasterId = m002;
layerId = "4F333BBC-B7A2-4374-B13D-00618AC993CE";
name = "27 Jun 24 at 12:43";
shapes = (
{
closed = 1;
nodes = (
(529,-15,o),
(642,78,o),
(642,226,cs),
(642,352,o),
(561,412,o),
(457,434,cs),
(385,449,o),
(375,449,o),
(319,457,cs),
(261,465,o),
(211,473,o),
(211,538,cs),
(211,590,o),
(254,623,o),
(332,623,cs),
(423,623,o),
(455,579,o),
(466,523,c),
(636,523,l),
(623,657,o),
(518,765,o),
(337,765,cs),
(188,765,o),
(41,692,o),
(41,525,cs),
(41,408,o),
(113,339,o),
(258,317,cs),
(312,309,o),
(288,312,o),
(374,300,cs),
(435,292,o),
(476,268,o),
(476,220,cs),
(476,166,o),
(423,129,o),
(341,129,cs),
(265,129,o),
(198,161,o),
(190,244,c),
(26,244,l),
(31,78,o),
(164,-15,o),
(347,-15,cs)
);
}
);
userData = {
assembly = "NPUSHB[ ]	/* 56 values pushed */
0 4 5 1 5 4 1 128 0 1 2 5 1 2 126 0 5 5 3 97 0 3 3 46 77 0 2 2 0 97 6 1 0 0 47 0 78 1 0 35 33 30 29 26 24 10 8 5 4 0 48 1 48 7 8 22 
CALL[ ]	/* CallFunction */";
};
width = 673;
},
{
anchors = (
{
name = bottom;
pos = (336,0);
},
{
name = top;
pos = (336,750);
}
);
layerId = m003;
shapes = (
{
closed = 1;
nodes = (
(503,-15,o),
(609,71,o),
(609,196,cs),
(609,301,o),
(539,356,o),
(430,393,cs),
(277,445,ls),
(203,470,o),
(167,508,o),
(167,561,cs),
(167,630,o),
(230,679,o),
(326,679,cs),
(420,679,o),
(486,632,o),
(499,542,c),
(601,542,l),
(587,685,o),
(480,765,o),
(328,765,cs),
(171,765,o),
(65,678,o),
(65,549,cs),
(65,439,o),
(142,390,o),
(241,356,cs),
(395,303,ls),
(468,278,o),
(511,248,o),
(511,190,cs),
(511,118,o),
(440,71,o),
(339,71,cs),
(235,71,o),
(162,130,o),
(155,241,c),
(54,241,l),
(60,78,o),
(177,-15,o),
(341,-15,cs)
);
}
);
width = 671;
},
{
associatedMasterId = m003;
layerId = "706C6676-1590-4E4E-928C-62A78DCA86DA";
name = "27 Jun 24 at 12:43";
shapes = (
{
closed = 1;
nodes = (
(529,-15,o),
(642,78,o),
(642,226,cs),
(642,352,o),
(561,412,o),
(457,434,cs),
(385,449,o),
(375,449,o),
(319,457,cs),
(261,465,o),
(211,473,o),
(211,538,cs),
(211,590,o),
(254,623,o),
(332,623,cs),
(423,623,o),
(455,579,o),
(466,523,c),
(636,523,l),
(623,657,o),
(518,765,o),
(337,765,cs),
(188,765,o),
(41,692,o),
(41,525,cs),
(41,408,o),
(113,339,o),
(258,317,cs),
(312,309,o),
(288,312,o),
(374,300,cs),
(435,292,o),
(476,268,o),
(476,220,cs),
(476,166,o),
(423,129,o),
(341,129,cs),
(265,129,o),
(198,161,o),
(190,244,c),
(26,244,l),
(31,78,o),
(164,-15,o),
(347,-15,cs)
);
}
);
userData = {
assembly = "NPUSHB[ ]	/* 56 values pushed */
0 4 5 1 5 4 1 128 0 1 2 5 1 2 126 0 5 5 3 97 0 3 3 46 77 0 2 2 0 97 6 1 0 0 47 0 78 1 0 35 33 30 29 26 24 10 8 5 4 0 48 1 48 7 8 22 
CALL[ ]	/* CallFunction */";
};
width = 673;
},
{
anchors = (
{
name = bottom;
pos = (328,0);
},
{
name = top;
pos = (328,750);
}
);
layerId = m004;
shapes = (
{
closed = 1;
nodes = (
(487,-15,o),
(590,64,o),
(590,180,cs),
(590,289,o),
(513,333,o),
(409,371,cs),
(261,425,ls),
(181,454,o),
(121,500,o),
(121,573,cs),
(121,660,o),
(204,723,o),
(322,723,cs),
(438,723,o),
(521,662,o),
(532,555,c),
(580,555,l),
(568,687,o),
(466,765,o),
(321,765,cs),
(174,765,o),
(72,684,o),
(72,570,cs),
(72,471,o),
(149,416,o),
(249,379,cs),
(401,323,ls),
(485,292,o),
(542,260,o),
(542,178,cs),
(542,89,o),
(458,28,o),
(332,28,cs),
(200,28,o),
(113,106,o),
(106,239,c),
(59,239,l),
(68,79,o),
(174,-15,o),
(333,-15,cs)
);
}
);
width = 656;
},
{
associatedMasterId = m004;
layerId = "8383162A-BACB-41CA-B68B-6FC1D12B7E32";
name = "27 Jun 24 at 12:43";
shapes = (
{
closed = 1;
nodes = (
(529,-15,o),
(642,78,o),
(642,226,cs),
(642,352,o),
(561,412,o),
(457,434,cs),
(385,449,o),
(375,449,o),
(319,457,cs),
(261,465,o),
(211,473,o),
(211,538,cs),
(211,590,o),
(254,623,o),
(332,623,cs),
(423,623,o),
(455,579,o),
(466,523,c),
(636,523,l),
(623,657,o),
(518,765,o),
(337,765,cs),
(188,765,o),
(41,692,o),
(41,525,cs),
(41,408,o),
(113,339,o),
(258,317,cs),
(312,309,o),
(288,312,o),
(374,300,cs),
(435,292,o),
(476,268,o),
(476,220,cs),
(476,166,o),
(423,129,o),
(341,129,cs),
(265,129,o),
(198,161,o),
(190,244,c),
(26,244,l),
(31,78,o),
(164,-15,o),
(347,-15,cs)
);
}
);
userData = {
assembly = "NPUSHB[ ]	/* 56 values pushed */
0 4 5 1 5 4 1 128 0 1 2 5 1 2 126 0 5 5 3 97 0 3 3 46 77 0 2 2 0 97 6 1 0 0 47 0 78 1 0 35 33 30 29 26 24 10 8 5 4 0 48 1 48 7 8 22 
CALL[ ]	/* CallFunction */";
};
width = 673;
}
);
note = S;
unicode = 83;
userData = {
KernOnName = S;
};
},
{
glyphname = Germandbls;
lastChange = "2025-03-16 19:02:43 +0000";
layers = (
{
layerId = m002;
shapes = (
{
closed = 1;
nodes = (
(270,0,l),
(270,580,l),
(368,580,ls),
(422,580,o),
(455,556,o),
(455,512,cs),
(455,472,o),
(421,446,o),
(368,446,cs),
(337,446,l),
(337,306,l),
(385,306,ls),
(438,306,o),
(472,277,o),
(472,237,cs),
(472,193,o),
(438,168,o),
(385,168,cs),
(338,168,l),
(338,0,l),
(405,0,ls),
(565,0,o),
(666,87,o),
(666,222,cs),
(666,293,o),
(626,349,o),
(550,377,c),
(617,405,o),
(649,459,o),
(649,528,cs),
(649,663,o),
(548,748,o),
(388,748,cs),
(74,748,l),
(74,0,l)
);
}
);
width = 712;
},
{
layerId = m003;
shapes = (
{
closed = 1;
nodes = (
(208,0,l),
(208,654,l),
(374,654,ls),
(454,654,o),
(508,605,o),
(508,534,cs),
(508,458,o),
(455,416,o),
(373,416,cs),
(289,416,l),
(289,334,l),
(386,334,ls),
(468,334,o),
(521,287,o),
(521,215,cs),
(521,142,o),
(469,96,o),
(386,96,cs),
(290,96,l),
(290,0,l),
(396,0,ls),
(540,0,o),
(632,81,o),
(632,207,cs),
(632,292,o),
(582,354,o),
(497,376,c),
(580,400,o),
(619,460,o),
(619,542,cs),
(619,666,o),
(525,749,o),
(386,749,cs),
(97,749,l),
(97,0,l)
);
}
);
width = 699;
},
{
layerId = m004;
shapes = (
{
closed = 1;
nodes = (
(152,0,l),
(152,708,l),
(368,708,ls),
(466,708,o),
(537,641,o),
(537,550,cs),
(537,446,o),
(469,393,o),
(365,393,cs),
(243,393,l),
(243,355,l),
(375,355,ls),
(480,355,o),
(547,295,o),
(547,198,cs),
(547,103,o),
(480,42,o),
(375,42,cs),
(243,42,l),
(243,0,l),
(379,0,ls),
(511,0,o),
(595,76,o),
(595,196,cs),
(595,290,o),
(540,358,o),
(447,376,c),
(535,395,o),
(585,454,o),
(585,553,cs),
(585,668,o),
(497,750,o),
(373,750,cs),
(103,750,l),
(103,0,l)
);
}
);
width = 668;
}
);
metricLeft = B;
metricRight = B;
unicode = 7838;
},
{
glyphname = T;
kernLeft = KO_T;
kernRight = KO_T;
lastChange = "2025-03-16 19:02:43 +0000";
layers = (
{
anchors = (
{
name = bottom;
pos = (320,0);
},
{
name = center;
pos = (320,375);
},
{
name = top;
pos = (320,750);
}
);
layerId = m002;
shapes = (
{
closed = 1;
nodes = (
(408,0,l),
(408,594,l),
(620,594,l),
(620,750,l),
(20,750,l),
(20,594,l),
(232,594,l),
(232,0,l)
);
}
);
userData = {
assembly = "NPUSHB[ ]	/* 30 values pushed */
2 1 0 0 3 95 4 1 3 3 38 77 0 1 1 39 1 78 0 0 0 7 0 7 17 17 17 5 8 25 
CALL[ ]	/* CallFunction */";
};
width = 640;
},
{
anchors = (
{
name = bottom;
pos = (296,0);
},
{
name = center;
pos = (296,375);
},
{
name = top;
pos = (296,750);
}
);
layerId = m003;
shapes = (
{
closed = 1;
nodes = (
(346,0,l),
(346,660,l),
(582,660,l),
(582,750,l),
(10,750,l),
(10,660,l),
(246,660,l),
(246,0,l)
);
}
);
width = 592;
},
{
anchors = (
{
name = bottom;
pos = (292,0);
},
{
name = center;
pos = (292,375);
},
{
name = top;
pos = (292,750);
}
);
layerId = m004;
shapes = (
{
closed = 1;
nodes = (
(316,0,l),
(316,708,l),
(576,708,l),
(576,750,l),
(8,750,l),
(8,708,l),
(268,708,l),
(268,0,l)
);
}
);
width = 584;
}
);
note = T;
unicode = 84;
userData = {
KernOnName = T;
};
},
{
glyphname = U;
kernLeft = KO_U;
kernRight = KO_U;
lastChange = "2025-03-16 19:02:43 +0000";
layers = (
{
anchors = (
{
name = bottom;
pos = (385,0);
},
{
name = ogonek;
pos = (524,10);
},
{
name = top;
pos = (385,750);
},
{
name = topright;
pos = (530,750);
}
);
layerId = m002;
shapes = (
{
closed = 1;
nodes = (
(576,-15,o),
(706,103,o),
(706,290,cs),
(706,750,l),
(530,750,l),
(530,290,ls),
(530,195,o),
(474,135,o),
(384,135,cs),
(296,135,o),
(240,195,o),
(240,290,cs),
(240,750,l),
(64,750,l),
(64,290,ls),
(64,103,o),
(194,-15,o),
(386,-15,cs)
);
}
);
userData = {
assembly = "NPUSHB[ ]	/* 33 values pushed */
3 1 1 1 38 77 0 2 2 0 95 4 1 0 0 39 0 78 1 0 16 15 12 9 6 5 0 21 1 20 5 8 22 
CALL[ ]	/* CallFunction */";
};
width = 770;
},
{
anchors = (
{
name = bottom;
pos = (379,0);
},
{
name = ogonek;
pos = (509,10);
},
{
name = top;
pos = (379,750);
},
{
name = topright;
pos = (571,750);
}
);
layerId = m003;
shapes = (
{
closed = 1;
nodes = (
(556,-15,o),
(671,99,o),
(671,277,cs),
(671,750,l),
(571,750,l),
(571,277,ls),
(571,152,o),
(497,72,o),
(378,72,cs),
(261,72,o),
(186,152,o),
(186,277,cs),
(186,750,l),
(86,750,l),
(86,277,ls),
(86,99,o),
(202,-15,o),
(379,-15,cs)
);
}
);
width = 758;
},
{
anchors = (
{
name = bottom;
pos = (373,0);
},
{
name = ogonek;
pos = (501,10);
},
{
name = top;
pos = (373,750);
},
{
name = topright;
pos = (604,750);
}
);
layerId = m004;
shapes = (
{
closed = 1;
nodes = (
(544,-15,o),
(652,94,o),
(652,267,cs),
(652,750,l),
(604,750,l),
(604,267,ls),
(604,120,o),
(515,27,o),
(373,27,cs),
(230,27,o),
(141,120,o),
(141,267,cs),
(141,750,l),
(93,750,l),
(93,267,ls),
(93,94,o),
(201,-15,o),
(373,-15,cs)
);
}
);
width = 745;
}
);
note = U;
unicode = 85;
userData = {
KernOnName = U;
};
},
{
glyphname = V;
kernLeft = KO_V;
kernRight = KO_V;
lastChange = "2025-03-16 19:02:43 +0000";
layers = (
{
layerId = m002;
shapes = (
{
closed = 1;
nodes = (
(470,0,l),
(737,750,l),
(559,750,l),
(348,136,l),
(403,136,l),
(194,750,l),
(11,750,l),
(277,0,l)
);
}
);
userData = {
assembly = "NPUSHB[ ]	/* 30 values pushed */
3 1 2 0 1 76 1 1 0 0 38 77 3 1 2 2 39 2 78 0 0 0 6 0 6 18 17 4 8 24 
CALL[ ]	/* CallFunction */";
};
width = 748;
},
{
layerId = m003;
shapes = (
{
closed = 1;
nodes = (
(429,0,l),
(721,750,l),
(620,750,l),
(359,78,l),
(393,78,l),
(134,750,l),
(29,750,l),
(321,0,l)
);
}
);
width = 749;
},
{
layerId = m004;
shapes = (
{
closed = 1;
nodes = (
(404,0,l),
(722,750,l),
(671,750,l),
(369,37,l),
(387,37,l),
(86,750,l),
(34,750,l),
(352,0,l)
);
}
);
width = 756;
}
);
metricLeft = A;
metricRight = A;
note = V;
unicode = 86;
userData = {
KernOnName = V;
};
},
{
glyphname = W;
kernLeft = KO_W;
kernRight = KO_W;
lastChange = "2025-03-16 19:02:43 +0000";
layers = (
{
anchors = (
{
name = bottom;
pos = (518,0);
},
{
name = top;
pos = (518,750);
}
);
layerId = m002;
shapes = (
{
closed = 1;
nodes = (
(390,0,l),
(539,564,l),
(501,564,l),
(649,0,l),
(840,0,l),
(1024,750,l),
(857,750,l),
(722,171,l),
(747,171,l),
(600,750,l),
(449,750,l),
(297,179,l),
(324,178,l),
(185,750,l),
(11,750,l),
(201,0,l)
);
}
);
userData = {
assembly = "NPUSHB[ ]	/* 36 values pushed */
11 8 3 3 0 2 1 76 5 4 3 3 2 2 38 77 1 1 0 0 39 0 78 0 0 0 12 0 12 18 17 18 17 6 8 26 
CALL[ ]	/* CallFunction */";
};
width = 1035;
},
{
anchors = (
{
name = bottom;
pos = (524,0);
},
{
name = top;
pos = (524,750);
}
);
layerId = m003;
shapes = (
{
closed = 1;
nodes = (
(351,0,l),
(540,659,l),
(510,659,l),
(699,0,l),
(809,0,l),
(1019,750,l),
(923,750,l),
(737,81,l),
(763,81,l),
(574,750,l),
(479,750,l),
(290,85,l),
(316,84,l),
(129,750,l),
(29,750,l),
(240,0,l)
);
}
);
width = 1047;
},
{
anchors = (
{
name = bottom;
pos = (534,0);
},
{
name = top;
pos = (534,750);
}
);
layerId = m004;
shapes = (
{
closed = 1;
nodes = (
(324,0,l),
(547,728,l),
(521,728,l),
(744,0,l),
(801,0,l),
(1034,750,l),
(985,750,l),
(760,17,l),
(786,17,l),
(563,750,l),
(506,750,l),
(283,17,l),
(309,17,l),
(84,750,l),
(34,750,l),
(267,0,l)
);
}
);
width = 1068;
}
);
metricLeft = V;
metricRight = V;
note = W;
unicode = 87;
userData = {
KernOnName = W;
};
},
{
glyphname = X;
kernLeft = KO_X;
kernRight = KO_X;
lastChange = "2025-03-16 19:02:43 +0000";
layers = (
{
layerId = m002;
shapes = (
{
closed = 1;
nodes = (
(738,0,l),
(245,750,l),
(44,750,l),
(537,0,l)
);
},
{
closed = 1;
nodes = (
(228,0,l),
(409,290,l),
(304,413,l),
(33,0,l)
);
},
{
closed = 1;
nodes = (
(742,750,l),
(547,750,l),
(369,468,l),
(475,347,l)
);
}
);
userData = {
assembly = "NPUSHB[ ]	/* 20 values pushed */
3 1 1 1 38 77 2 1 0 0 39 0 78 17 17 17 16 4 8 26 
CALL[ ]	/* CallFunction */";
};
width = 774;
},
{
layerId = m003;
shapes = (
{
closed = 1;
nodes = (
(661,0,l),
(173,750,l),
(60,750,l),
(547,0,l)
);
},
{
closed = 1;
nodes = (
(162,0,l),
(369,324,l),
(310,399,l),
(51,0,l)
);
},
{
closed = 1;
nodes = (
(658,750,l),
(546,750,l),
(344,422,l),
(403,348,l)
);
}
);
width = 712;
},
{
layerId = m004;
shapes = (
{
closed = 1;
nodes = (
(614,0,l),
(118,750,l),
(63,750,l),
(559,0,l)
);
},
{
closed = 1;
nodes = (
(111,0,l),
(340,348,l),
(314,389,l),
(56,0,l)
);
},
{
closed = 1;
nodes = (
(606,750,l),
(552,750,l),
(326,407,l),
(354,366,l)
);
}
);
width = 669;
}
);
note = X;
unicode = 88;
userData = {
KernOnName = X;
};
},
{
glyphname = Y;
kernLeft = KO_Y;
kernRight = KO_Y;
lastChange = "2025-03-16 19:02:43 +0000";
layers = (
{
anchors = (
{
name = bottom;
pos = (337,0);
},
{
name = top;
pos = (337,748);
},
{
name = topleft;
pos = (15,748);
}
);
layerId = m002;
shapes = (
{
closed = 1;
nodes = (
(417,0,l),
(417,347,l),
(391,263,l),
(679,750,l),
(486,750,l),
(305,404,l),
(371,404,l),
(188,750,l),
(-6,750,l),
(277,263,l),
(252,347,l),
(252,0,l)
);
}
);
userData = {
assembly = "NPUSHB[ ]	/* 32 values pushed */
7 4 1 3 0 1 1 76 3 2 2 1 1 38 77 0 0 0 39 0 78 0 0 0 8 0 8 18 18 4 8 24 
CALL[ ]	/* CallFunction */";
};
width = 673;
},
{
anchors = (
{
name = bottom;
pos = (303,0);
},
{
name = top;
pos = (303,749);
},
{
name = topleft;
pos = (12,749);
}
);
layerId = m003;
shapes = (
{
closed = 1;
nodes = (
(348,0,l),
(348,348,l),
(324,264,l),
(605,750,l),
(493,750,l),
(277,349,l),
(329,349,l),
(113,750,l),
(2,750,l),
(276,264,l),
(253,348,l),
(253,0,l)
);
}
);
width = 608;
},
{
anchors = (
{
name = bottom;
pos = (284,0);
},
{
name = top;
pos = (284,750);
},
{
name = topleft;
pos = (7,750);
}
);
layerId = m004;
shapes = (
{
closed = 1;
nodes = (
(305,0,l),
(305,348,l),
(283,264,l),
(563,750,l),
(509,750,l),
(260,310,l),
(304,310,l),
(58,750,l),
(4,750,l),
(279,264,l),
(257,348,l),
(257,0,l)
);
}
);
width = 568;
}
);
note = Y;
unicode = 89;
userData = {
KernOnName = Y;
};
},
{
glyphname = Z;
kernLeft = KO_Z;
kernRight = KO_Z;
lastChange = "2025-03-16 19:02:43 +0000";
layers = (
{
anchors = (
{
name = bottom;
pos = (332,0);
},
{
name = center;
pos = (332,375);
},
{
name = top;
pos = (332,750);
}
);
layerId = m002;
shapes = (
{
closed = 1;
nodes = (
(616,0,l),
(616,151,l),
(173,151,l),
(190,97,l),
(616,588,l),
(616,748,l),
(40,748,l),
(40,597,l),
(471,597,l),
(453,651,l),
(27,160,l),
(27,0,l)
);
}
);
userData = {
assembly = "NPUSHB[ ]	/* 41 values pushed */
6 1 2 0 2 1 76 0 2 2 3 95 4 1 3 3 38 77 0 0 0 1 95 0 1 1 39 1 78 0 0 0 9 0 9 18 17 18 5 8 25 
CALL[ ]	/* CallFunction */";
};
width = 663;
},
{
anchors = (
{
name = bottom;
pos = (317,0);
},
{
name = center;
pos = (317,375);
},
{
name = top;
pos = (317,750);
}
);
layerId = m003;
shapes = (
{
closed = 1;
nodes = (
(579,0,l),
(579,88,l),
(114,88,l),
(125,54,l),
(579,657,l),
(579,750,l),
(48,750,l),
(48,662,l),
(499,662,l),
(487,696,l),
(34,94,l),
(34,0,l)
);
}
);
width = 634;
},
{
anchors = (
{
name = bottom;
pos = (311,0);
},
{
name = center;
pos = (311,375);
},
{
name = top;
pos = (311,750);
}
);
layerId = m004;
shapes = (
{
closed = 1;
nodes = (
(565,0,l),
(565,42,l),
(70,42,l),
(77,23,l),
(565,704,l),
(565,750,l),
(52,750,l),
(52,708,l),
(529,708,l),
(521,726,l),
(36,47,l),
(36,0,l)
);
}
);
width = 621;
}
);
note = Z;
unicode = 90;
userData = {
KernOnName = Z;
};
},
{
glyphname = a;
kernLeft = KO_a;
kernRight = KO_a;
lastChange = "2025-03-16 19:12:46 +0000";
layers = (
{
anchors = (
{
name = bottom;
pos = (305,0);
},
{
name = ogonek;
pos = (560,0);
},
{
name = top;
pos = (305,530);
}
);
layerId = m002;
name = Bold;
shapes = (
{
closed = 1;
nodes = (
(335,-16,o),
(384,25,o),
(413,72,c),
(393,109,l),
(405,0,l),
(560,0,l),
(560,530,l),
(405,530,l),
(393,428,l),
(413,468,l),
(383,509,o),
(331,546,o),
(253,546,cs),
(128,546,o),
(32,431,o),
(32,270,cs),
(32,102,o),
(132,-16,o),
(263,-16,cs)
);
},
{
closed = 1;
nodes = (
(236,127,o),
(196,182,o),
(196,270,cs),
(196,357,o),
(236,413,o),
(302,413,cs),
(368,413,o),
(409,357,o),
(409,270,cs),
(409,182,o),
(368,127,o),
(302,127,cs)
);
}
);
userData = {
assembly = "NPUSHB[ ]	/* 9 values pushed */
35 34 13 12 4 2 3 1 76 
MPPEM[ ]	/* MeasurePixelPerEm */
PUSHB[ ]	/* 1 value pushed */
20 
LT[ ]	/* LessThan */
IF[ ]	/* If */
NPUSHB[ ]	/* 26 values pushed */
0 3 3 1 97 4 1 1 1 49 77 7 1 2 2 0 97 8 5 6 3 0 0 47 0 78 
ELSE[ ]	/* Else */
NPUSHB[ ]	/* 34 values pushed */
0 4 4 41 77 0 3 3 1 97 0 1 1 49 77 8 1 5 5 39 77 7 1 2 2 0 97 6 1 0 0 47 0 78 
EIF[ ]	/* EndIf */
NPUSHB[ ]	/* 27 values pushed */
33 33 18 17 1 0 33 38 33 38 37 36 26 24 17 32 18 32 9 7 0 16 1 16 9 8 22 
CALL[ ]	/* CallFunction */";
};
width = 621;
},
{
anchors = (
{
name = bottom;
pos = (306,0);
},
{
name = ogonek;
pos = (537,0);
},
{
name = top;
pos = (306,530);
}
);
layerId = m003;
shapes = (
{
closed = 1;
nodes = (
(365,-15,o),
(431,37,o),
(460,123,c),
(445,137,l),
(452,0,l),
(537,0,l),
(537,530,l),
(452,530,l),
(444,404,l),
(460,421,l),
(431,499,o),
(365,545,o),
(278,545,cs),
(142,545,o),
(49,431,o),
(49,266,cs),
(49,96,o),
(145,-15,o),
(283,-15,cs)
);
},
{
closed = 1;
nodes = (
(206,67,o),
(142,149,o),
(142,266,cs),
(142,384,o),
(206,467,o),
(299,467,cs),
(386,467,o),
(447,384,o),
(447,266,cs),
(447,149,o),
(386,67,o),
(299,67,cs)
);
}
);
width = 621;
},
{
anchors = (
{
name = bottom;
pos = (294,0);
},
{
name = ogonek;
pos = (524,0);
},
{
name = top;
pos = (294,530);
}
);
layerId = m004;
shapes = (
{
closed = 1;
nodes = (
(390,-15,o),
(463,58,o),
(487,176,c),
(475,187,l),
(483,0,l),
(524,0,l),
(524,530,l),
(483,530,l),
(475,359,l),
(487,371,l),
(464,480,o),
(390,545,o),
(286,545,cs),
(147,545,o),
(53,434,o),
(53,264,cs),
(53,96,o),
(148,-15,o),
(287,-15,cs)
);
},
{
closed = 1;
nodes = (
(181,27,o),
(100,124,o),
(100,264,cs),
(100,406,o),
(181,504,o),
(295,504,cs),
(403,504,o),
(478,406,o),
(478,266,cs),
(478,125,o),
(403,27,o),
(295,27,cs)
);
}
);
width = 614;
}
);
note = a.ss01;
unicode = 97;
userData = {
KernOnName = a;
};
},
{
glyphname = ae;
lastChange = "2025-03-16 19:02:43 +0000";
layers = (
{
layerId = m002;
shapes = (
{
closed = 1;
nodes = (
(736,-16,o),
(821,58,o),
(849,168,c),
(695,168,l),
(681,132,o),
(651,105,o),
(605,105,cs),
(542,105,o),
(494,157,o),
(494,234,cs),
(494,291,ls),
(494,378,o),
(540,422,o),
(599,422,cs),
(642,422,o),
(688,399,o),
(693,323,c),
(457,323,l),
(457,215,l),
(852,215,l),
(861,424,o),
(767,546,o),
(598,546,cs),
(437,546,o),
(333,436,o),
(333,264,cs),
(333,91,o),
(437,-16,o),
(600,-16,cs)
);
},
{
closed = 1;
nodes = (
(439,-12,o),
(494,116,o),
(494,256,cs),
(494,324,ls),
(494,450,o),
(399,546,o),
(252,546,cs),
(121,546,o),
(40,470,o),
(40,345,c),
(180,345,l),
(180,386,o),
(206,418,o),
(249,418,cs),
(301,418,o),
(324,374,o),
(324,324,c),
(253,324,ls),
(121,324,o),
(32,264,o),
(32,150,cs),
(32,45,o),
(108,-12,o),
(222,-12,cs)
);
},
{
closed = 1;
nodes = (
(221,128,o),
(200,145,o),
(200,171,cs),
(200,199,o),
(224,216,o),
(262,216,cs),
(324,216,l),
(324,207,ls),
(324,176,o),
(295,128,o),
(249,128,cs)
);
}
);
width = 880;
},
{
layerId = m003;
shapes = (
{
closed = 1;
nodes = (
(752,-15,o),
(846,55,o),
(869,169,c),
(778,169,l),
(762,102,o),
(702,60,o),
(636,60,cs),
(537,60,o),
(472,137,o),
(472,251,cs),
(472,287,ls),
(472,352,o),
(510,470,o),
(631,470,cs),
(709,470,o),
(774,416,o),
(779,307,c),
(447,307,l),
(447,237,l),
(872,237,l),
(880,433,o),
(783,545,o),
(630,545,cs),
(477,545,o),
(376,433,o),
(376,265,cs),
(376,97,o),
(476,-15,o),
(635,-15,cs)
);
},
{
closed = 1;
nodes = (
(406,-12,o),
(469,107,o),
(469,242,cs),
(469,343,ls),
(469,463,o),
(392,545,o),
(259,545,cs),
(138,545,o),
(68,473,o),
(62,357,c),
(147,357,l),
(153,421,o),
(189,465,o),
(259,465,cs),
(331,465,o),
(373,427,o),
(373,333,c),
(288,333,ls),
(137,333,o),
(49,268,o),
(49,149,cs),
(49,50,o),
(122,-12,o),
(235,-12,cs)
);
},
{
closed = 1;
nodes = (
(186,69,o),
(145,106,o),
(145,160,cs),
(145,228,o),
(197,265,o),
(291,265,cs),
(373,265,l),
(373,228,ls),
(373,138,o),
(322,69,o),
(245,69,cs)
);
}
);
width = 913;
},
{
layerId = m004;
shapes = (
{
closed = 1;
nodes = (
(757,-15,o),
(857,53,o),
(876,169,c),
(830,169,l),
(813,82,o),
(734,27,o),
(651,27,cs),
(524,27,o),
(447,123,o),
(447,263,cs),
(447,284,ls),
(447,333,o),
(479,505,o),
(646,505,cs),
(750,505,o),
(829,428,o),
(834,295,c),
(431,295,l),
(431,254,l),
(879,254,l),
(886,437,o),
(789,545,o),
(645,545,cs),
(499,545,o),
(400,432,o),
(400,265,cs),
(400,100,o),
(497,-15,o),
(652,-15,cs)
);
},
{
closed = 1;
nodes = (
(373,-12,o),
(442,100,o),
(442,232,cs),
(442,357,ls),
(442,472,o),
(379,545,o),
(256,545,cs),
(140,545,o),
(80,473,o),
(70,366,c),
(114,366,l),
(124,446,o),
(167,500,o),
(257,500,cs),
(344,500,o),
(400,466,o),
(400,339,c),
(305,339,ls),
(141,339,o),
(53,271,o),
(53,148,cs),
(53,53,o),
(124,-12,o),
(236,-12,cs)
);
},
{
closed = 1;
nodes = (
(151,25,o),
(96,77,o),
(96,151,cs),
(96,249,o),
(167,301,o),
(304,301,cs),
(400,301,l),
(400,244,ls),
(400,110,o),
(334,25,o),
(234,25,cs)
);
}
);
width = 922;
}
);
metricLeft = a;
metricRight = e;
unicode = 230;
},
{
glyphname = b;
kernLeft = KO_h;
kernRight = KO_b;
lastChange = "2025-03-16 19:02:43 +0000";
layers = (
{
layerId = m002;
shapes = (
{
closed = 1;
nodes = (
(502,-16,o),
(604,100,o),
(604,262,cs),
(604,466,o),
(473,546,o),
(363,546,cs),
(267,546,o),
(192,487,o),
(179,379,c),
(179,79,l),
(228,14,o),
(285,-16,o),
(362,-16,cs)
);
},
{
closed = 1;
nodes = (
(198,0,l),
(223,146,l),
(223,750,l),
(61,750,l),
(61,0,l)
);
},
{
closed = 1;
nodes = (
(263,127,o),
(223,181,o),
(223,270,cs),
(223,359,o),
(263,413,o),
(329,413,cs),
(397,413,o),
(440,359,o),
(440,269,cs),
(440,180,o),
(397,127,o),
(329,127,cs)
);
}
);
userData = {
assembly = "PUSHB[ ]	/* 8 values pushed */
10 9 3 3 4 5 1 76 
MPPEM[ ]	/* MeasurePixelPerEm */
PUSHB[ ]	/* 1 value pushed */
20 
LT[ ]	/* LessThan */
IF[ ]	/* If */
NPUSHB[ ]	/* 30 values pushed */
0 0 0 38 77 0 5 5 3 97 0 3 3 49 77 8 1 4 4 1 97 7 2 6 3 1 1 39 1 78 
ELSE[ ]	/* Else */
NPUSHB[ ]	/* 34 values pushed */
0 0 0 38 77 0 5 5 3 97 0 3 3 49 77 6 1 1 1 39 77 8 1 4 4 2 97 7 1 2 2 47 2 78 
EIF[ ]	/* EndIf */
NPUSHB[ ]	/* 26 values pushed */
23 22 6 5 0 0 31 29 22 37 23 37 15 13 5 21 6 21 0 4 0 4 17 9 8 23 
CALL[ ]	/* CallFunction */";
};
width = 636;
},
{
layerId = m003;
shapes = (
{
closed = 1;
nodes = (
(476,-15,o),
(574,95,o),
(574,265,cs),
(574,448,o),
(465,545,o),
(342,545,cs),
(249,545,o),
(177,484,o),
(153,381,c),
(153,122,l),
(192,29,o),
(257,-15,o),
(342,-15,cs)
);
},
{
closed = 1;
nodes = (
(165,0,l),
(175,139,l),
(175,750,l),
(84,750,l),
(84,0,l)
);
},
{
closed = 1;
nodes = (
(236,67,o),
(177,146,o),
(177,266,cs),
(177,386,o),
(236,467,o),
(324,467,cs),
(416,467,o),
(480,389,o),
(480,267,cs),
(480,145,o),
(416,67,o),
(324,67,cs)
);
}
);
width = 623;
},
{
layerId = m004;
shapes = (
{
closed = 1;
nodes = (
(459,-15,o),
(554,97,o),
(554,268,cs),
(554,439,o),
(459,545,o),
(325,545,cs),
(230,545,o),
(158,484,o),
(125,383,c),
(125,154,l),
(160,41,o),
(234,-15,o),
(325,-15,cs)
);
},
{
closed = 1;
nodes = (
(130,0,l),
(136,136,l),
(136,750,l),
(90,750,l),
(90,0,l)
);
},
{
closed = 1;
nodes = (
(212,27,o),
(139,124,o),
(139,265,cs),
(139,406,o),
(212,503,o),
(318,503,cs),
(428,503,o),
(507,410,o),
(507,268,cs),
(507,124,o),
(428,27,o),
(318,27,cs)
);
}
);
width = 607;
}
);
note = b;
unicode = 98;
userData = {
KernOnName = b;
};
},
{
glyphname = c;
kernLeft = KO_e;
kernRight = KO_c;
lastChange = "2025-03-16 19:02:43 +0000";
layers = (
{
anchors = (
{
name = bottom;
pos = (292,0);
},
{
name = top;
pos = (292,530);
}
);
layerId = m002;
shapes = (
{
closed = 1;
nodes = (
(444,-16,o),
(532,100,o),
(532,201,c),
(377,201,l),
(377,155,o),
(339,124,o),
(294,124,cs),
(234,124,o),
(197,176,o),
(197,264,cs),
(197,351,o),
(235,406,o),
(294,406,cs),
(341,406,o),
(370,372,o),
(370,327,c),
(524,327,l),
(524,462,o),
(434,546,o),
(295,546,cs),
(131,546,o),
(32,428,o),
(32,263,cs),
(32,99,o),
(134,-16,o),
(288,-16,cs)
);
}
);
userData = {
assembly = "NPUSHB[ ]	/* 56 values pushed */
0 2 3 5 3 2 5 128 0 5 4 3 5 4 126 0 3 3 1 97 0 1 1 49 77 0 4 4 0 97 6 1 0 0 47 0 78 1 0 28 27 25 23 17 15 13 12 9 7 0 31 1 31 7 8 22 
CALL[ ]	/* CallFunction */";
};
width = 543;
},
{
anchors = (
{
name = bottom;
pos = (293,0);
},
{
name = top;
pos = (293,530);
}
);
layerId = m003;
shapes = (
{
closed = 1;
nodes = (
(439,-15,o),
(510,101,o),
(520,188,c),
(432,188,l),
(422,137,o),
(382,68,o),
(298,68,cs),
(205,68,o),
(142,144,o),
(142,262,cs),
(142,381,o),
(205,462,o),
(298,462,cs),
(368,462,o),
(413,410,o),
(423,339,c),
(511,339,l),
(501,462,o),
(422,545,o),
(300,545,cs),
(148,545,o),
(49,428,o),
(49,262,cs),
(49,98,o),
(149,-15,o),
(298,-15,cs)
);
}
);
width = 546;
},
{
anchors = (
{
name = bottom;
pos = (293,0);
},
{
name = top;
pos = (293,530);
}
);
layerId = m004;
shapes = (
{
closed = 1;
nodes = (
(439,-15,o),
(506,89,o),
(516,179,c),
(471,179,l),
(461,113,o),
(412,30,o),
(300,30,cs),
(182,30,o),
(99,123,o),
(99,264,cs),
(99,405,o),
(181,500,o),
(300,500,cs),
(390,500,o),
(453,436,o),
(463,346,c),
(507,346,l),
(497,463,o),
(417,545,o),
(301,545,cs),
(153,545,o),
(53,431,o),
(53,264,cs),
(53,97,o),
(154,-15,o),
(303,-15,cs)
);
}
);
width = 545;
}
);
note = c;
unicode = 99;
userData = {
KernOnName = c;
};
},
{
glyphname = d;
kernLeft = KO_d;
kernRight = KO_d;
lastChange = "2025-03-16 19:02:43 +0000";
layers = (
{
layerId = m002;
shapes = (
{
closed = 1;
nodes = (
(382,-16,o),
(444,54,o),
(457,160,c),
(457,379,l),
(444,483,o),
(374,546,o),
(265,546,cs),
(130,546,o),
(32,431,o),
(32,267,cs),
(32,100,o),
(137,-16,o),
(284,-16,cs)
);
},
{
closed = 1;
nodes = (
(239,127,o),
(196,181,o),
(196,269,cs),
(196,359,o),
(239,413,o),
(308,413,cs),
(374,413,o),
(414,358,o),
(414,270,cs),
(414,182,o),
(374,127,o),
(308,127,cs)
);
},
{
closed = 1;
nodes = (
(575,0,l),
(575,750,l),
(414,750,l),
(414,146,l),
(439,0,l)
);
}
);
userData = {
assembly = "PUSHB[ ]	/* 8 values pushed */
34 13 12 3 2 3 1 76 
MPPEM[ ]	/* MeasurePixelPerEm */
PUSHB[ ]	/* 1 value pushed */
20 
LT[ ]	/* LessThan */
IF[ ]	/* If */
NPUSHB[ ]	/* 30 values pushed */
0 4 4 38 77 0 3 3 1 97 0 1 1 49 77 7 1 2 2 0 97 8 5 6 3 0 0 47 0 78 
ELSE[ ]	/* Else */
NPUSHB[ ]	/* 34 values pushed */
0 4 4 38 77 0 3 3 1 97 0 1 1 49 77 8 1 5 5 39 77 7 1 2 2 0 97 6 1 0 0 47 0 78 
EIF[ ]	/* EndIf */
NPUSHB[ ]	/* 27 values pushed */
33 33 18 17 1 0 33 37 33 37 36 35 26 24 17 32 18 32 9 7 0 16 1 16 9 8 22 
CALL[ ]	/* CallFunction */";
};
width = 636;
},
{
layerId = m003;
shapes = (
{
closed = 1;
nodes = (
(377,-15,o),
(444,50,o),
(469,156,c),
(469,381,l),
(444,484,o),
(372,545,o),
(276,545,cs),
(144,545,o),
(49,434,o),
(49,266,cs),
(49,98,o),
(147,-15,o),
(284,-15,cs)
);
},
{
closed = 1;
nodes = (
(206,67,o),
(142,144,o),
(142,267,cs),
(142,387,o),
(205,467,o),
(298,467,cs),
(385,467,o),
(445,388,o),
(445,266,cs),
(445,144,o),
(385,67,o),
(298,67,cs)
);
},
{
closed = 1;
nodes = (
(539,0,l),
(539,750,l),
(447,750,l),
(447,139,l),
(457,0,l)
);
}
);
width = 623;
},
{
layerId = m004;
shapes = (
{
closed = 1;
nodes = (
(371,-15,o),
(447,39,o),
(482,157,c),
(482,383,l),
(447,491,o),
(370,545,o),
(282,545,cs),
(147,545,o),
(53,438,o),
(53,268,cs),
(53,99,o),
(147,-15,o),
(283,-15,cs)
);
},
{
closed = 1;
nodes = (
(179,27,o),
(100,123,o),
(100,268,cs),
(100,408,o),
(178,503,o),
(288,503,cs),
(394,503,o),
(468,407,o),
(468,265,cs),
(468,123,o),
(394,27,o),
(288,27,cs)
);
},
{
closed = 1;
nodes = (
(517,0,l),
(517,750,l),
(471,750,l),
(471,136,l),
(477,0,l)
);
}
);
width = 607;
}
);
note = d;
unicode = 100;
userData = {
KernOnName = d;
};
},
{
glyphname = dcaron;
lastChange = "2025-03-16 19:02:43 +0000";
layers = (
{
layerId = m002;
shapes = (
{
closed = 1;
nodes = (
(829,750,l),
(687,768,l),
(657,536,l),
(790,518,l)
);
},
{
ref = d;
}
);
width = 670;
},
{
layerId = m003;
shapes = (
{
closed = 1;
nodes = (
(713,757,l),
(627,768,l),
(597,536,l),
(674,525,l)
);
},
{
pos = (-17,0);
ref = d;
}
);
width = 653;
},
{
layerId = m004;
shapes = (
{
closed = 1;
nodes = (
(641,763,l),
(596,768,l),
(566,536,l),
(602,531,l)
);
},
{
pos = (-21,0);
ref = d;
}
);
width = 649;
}
);
unicode = 271;
},
{
glyphname = dcroat;
kernLeft = KO_dcroat;
kernRight = KO_dcroat;
lastChange = "2025-03-16 19:02:43 +0000";
layers = (
{
layerId = m002;
shapes = (
{
closed = 1;
nodes = (
(399,-16,o),
(462,53,o),
(475,160,c),
(475,379,l),
(462,484,o),
(390,546,o),
(283,546,cs),
(148,546,o),
(50,431,o),
(50,267,cs),
(50,100,o),
(155,-16,o),
(302,-16,cs)
);
},
{
closed = 1;
nodes = (
(257,127,o),
(214,181,o),
(214,269,cs),
(214,359,o),
(257,413,o),
(326,413,cs),
(392,413,o),
(432,358,o),
(432,270,cs),
(432,182,o),
(392,127,o),
(326,127,cs)
);
},
{
closed = 1;
nodes = (
(593,0,l),
(593,750,l),
(432,750,l),
(432,146,l),
(457,0,l)
);
},
{
closed = 1;
nodes = (
(638,604,l),
(638,688,l),
(323,688,l),
(323,604,l)
);
}
);
userData = {
assembly = "PUSHB[ ]	/* 8 values pushed */
38 17 16 3 4 5 1 76 
MPPEM[ ]	/* MeasurePixelPerEm */
PUSHB[ ]	/* 1 value pushed */
20 
LT[ ]	/* LessThan */
IF[ ]	/* If */
NPUSHB[ ]	/* 39 values pushed */
0 0 8 1 1 3 0 1 104 0 6 6 38 77 0 5 5 3 97 0 3 3 49 77 10 1 4 4 2 97 11 7 9 3 2 2 47 2 78 
ELSE[ ]	/* Else */
NPUSHB[ ]	/* 43 values pushed */
0 0 8 1 1 3 0 1 104 0 6 6 38 77 0 5 5 3 97 0 3 3 49 77 11 1 7 7 39 77 10 1 4 4 2 97 9 1 2 2 47 2 78 
EIF[ ]	/* EndIf */
NPUSHB[ ]	/* 34 values pushed */
37 37 22 21 5 4 0 0 37 41 37 41 40 39 30 28 21 36 22 36 13 11 4 20 5 20 0 3 0 3 17 12 8 23 
CALL[ ]	/* CallFunction */";
};
width = 667;
},
{
layerId = m003;
shapes = (
{
closed = 1;
nodes = (
(387,-16,o),
(456,43,o),
(481,156,c),
(481,381,l),
(456,485,o),
(384,547,o),
(288,547,cs),
(156,547,o),
(61,435,o),
(61,266,cs),
(61,97,o),
(159,-16,o),
(296,-16,cs)
);
},
{
closed = 1;
nodes = (
(218,66,o),
(154,144,o),
(154,267,cs),
(154,388,o),
(218,469,o),
(310,469,cs),
(397,469,o),
(457,388,o),
(457,266,cs),
(457,144,o),
(397,66,o),
(310,66,cs)
);
},
{
closed = 1;
nodes = (
(551,-1,l),
(551,750,l),
(459,750,l),
(459,139,l),
(473,-1,l)
);
},
{
closed = 1;
nodes = (
(611,616,l),
(611,672,l),
(336,672,l),
(336,616,l)
);
}
);
userData = {
assembly = "PUSHB[ ]	/* 8 values pushed */
38 17 16 3 4 5 1 76 
MPPEM[ ]	/* MeasurePixelPerEm */
PUSHB[ ]	/* 1 value pushed */
20 
LT[ ]	/* LessThan */
IF[ ]	/* If */
NPUSHB[ ]	/* 39 values pushed */
0 0 8 1 1 3 0 1 104 0 6 6 38 77 0 5 5 3 97 0 3 3 49 77 10 1 4 4 2 97 11 7 9 3 2 2 47 2 78 
ELSE[ ]	/* Else */
NPUSHB[ ]	/* 43 values pushed */
0 0 8 1 1 3 0 1 104 0 6 6 38 77 0 5 5 3 97 0 3 3 49 77 11 1 7 7 39 77 10 1 4 4 2 97 9 1 2 2 47 2 78 
EIF[ ]	/* EndIf */
NPUSHB[ ]	/* 34 values pushed */
37 37 22 21 5 4 0 0 37 41 37 41 40 39 30 28 21 36 22 36 13 11 4 20 5 20 0 3 0 3 17 12 8 23 
CALL[ ]	/* CallFunction */";
};
width = 656;
},
{
layerId = m004;
shapes = (
{
closed = 1;
nodes = (
(385,-16,o),
(461,39,o),
(496,157,c),
(496,383,l),
(461,491,o),
(384,546,o),
(296,546,cs),
(161,546,o),
(67,438,o),
(67,268,cs),
(67,99,o),
(161,-16,o),
(297,-16,cs)
);
},
{
closed = 1;
nodes = (
(193,26,o),
(114,123,o),
(114,268,cs),
(114,408,o),
(192,504,o),
(302,504,cs),
(408,504,o),
(482,407,o),
(482,265,cs),
(482,123,o),
(408,26,o),
(302,26,cs)
);
},
{
closed = 1;
nodes = (
(531,-4,l),
(531,750,l),
(485,750,l),
(485,136,l),
(491,-4,l)
);
},
{
closed = 1;
nodes = (
(588,626,l),
(588,661,l),
(340,661,l),
(340,626,l)
);
}
);
userData = {
assembly = "PUSHB[ ]	/* 8 values pushed */
38 17 16 3 4 5 1 76 
MPPEM[ ]	/* MeasurePixelPerEm */
PUSHB[ ]	/* 1 value pushed */
20 
LT[ ]	/* LessThan */
IF[ ]	/* If */
NPUSHB[ ]	/* 39 values pushed */
0 0 8 1 1 3 0 1 104 0 6 6 38 77 0 5 5 3 97 0 3 3 49 77 10 1 4 4 2 97 11 7 9 3 2 2 47 2 78 
ELSE[ ]	/* Else */
NPUSHB[ ]	/* 43 values pushed */
0 0 8 1 1 3 0 1 104 0 6 6 38 77 0 5 5 3 97 0 3 3 49 77 11 1 7 7 39 77 10 1 4 4 2 97 9 1 2 2 47 2 78 
EIF[ ]	/* EndIf */
NPUSHB[ ]	/* 34 values pushed */
37 37 22 21 5 4 0 0 37 41 37 41 40 39 30 28 21 36 22 36 13 11 4 20 5 20 0 3 0 3 17 12 8 23 
CALL[ ]	/* CallFunction */";
};
width = 653;
}
);
note = dcroat;
unicode = 273;
userData = {
KernOnName = dcroat;
};
},
{
glyphname = eth;
lastChange = "2025-03-16 19:02:43 +0000";
layers = (
{
layerId = m002;
shapes = (
{
closed = 1;
nodes = (
(472,-14,o),
(578,93,o),
(578,313,cs),
(578,419,o),
(552,520,o),
(510,604,c),
(580,612,l),
(565,699,l),
(458,687,l),
(441,710,o),
(422,730,o),
(402,748,c),
(214,748,l),
(243,727,o),
(270,699,o),
(295,668,c),
(134,649,l),
(149,562,l),
(347,585,l),
(362,555,o),
(373,525,o),
(378,496,c),
(352,516,o),
(323,536,o),
(260,536,cs),
(119,536,o),
(25,426,o),
(25,261,cs),
(25,96,o),
(135,-14,o),
(290,-14,cs)
);
},
{
closed = 1;
nodes = (
(245,152,o),
(209,198,o),
(209,266,cs),
(209,334,o),
(245,380,o),
(300,380,cs),
(353,380,o),
(388,334,o),
(388,266,cs),
(388,198,o),
(353,152,o),
(300,152,cs)
);
}
);
width = 600;
},
{
layerId = m003;
shapes = (
{
closed = 1;
nodes = (
(448,-13,o),
(541,90,o),
(541,273,cs),
(541,392,o),
(503,516,o),
(430,622,c),
(522,636,l),
(513,686,l),
(398,669,l),
(374,698,o),
(346,724,o),
(317,748,c),
(215,748,l),
(250,723,o),
(283,692,o),
(312,657,c),
(139,631,l),
(148,581,l),
(344,611,l),
(386,554,o),
(417,489,o),
(431,426,c),
(401,483,o),
(342,509,o),
(274,509,cs),
(130,509,o),
(43,405,o),
(43,249,cs),
(43,87,o),
(143,-13,o),
(288,-13,cs)
);
},
{
closed = 1;
nodes = (
(197,74,o),
(140,145,o),
(140,252,cs),
(140,360,o),
(200,427,o),
(292,427,cs),
(387,427,o),
(443,356,o),
(443,252,cs),
(443,140,o),
(382,74,o),
(292,74,cs)
);
}
);
width = 600;
},
{
layerId = m004;
shapes = (
{
closed = 1;
nodes = (
(436,-12,o),
(521,89,o),
(521,250,cs),
(521,386,o),
(470,522,o),
(384,633,c),
(489,651,l),
(484,678,l),
(363,658,l),
(335,691,o),
(303,721,o),
(269,748,c),
(216,748,l),
(254,720,o),
(290,687,o),
(322,650,c),
(142,620,l),
(147,592,l),
(342,626,l),
(400,553,o),
(442,469,o),
(462,385,c),
(430,462,o),
(355,493,o),
(282,493,cs),
(137,493,o),
(54,393,o),
(54,242,cs),
(54,81,o),
(148,-12,o),
(287,-12,cs)
);
},
{
closed = 1;
nodes = (
(169,29,o),
(100,114,o),
(100,243,cs),
(100,377,o),
(175,454,o),
(288,454,cs),
(407,454,o),
(474,369,o),
(474,243,cs),
(474,107,o),
(400,29,o),
(288,29,cs)
);
}
);
width = 600;
}
);
metricLeft = dacroat;
metricRight = dacroat;
unicode = 240;
},
{
glyphname = e;
kernLeft = KO_e;
kernRight = KO_e;
lastChange = "2025-03-16 19:02:43 +0000";
layers = (
{
anchors = (
{
name = bottom;
pos = (293,-1);
},
{
name = ogonek;
pos = (423,10);
},
{
name = top;
pos = (293,530);
}
);
layerId = m002;
shapes = (
{
closed = 1;
nodes = (
(436,-16,o),
(520,58,o),
(548,168,c),
(394,168,l),
(379,131,o),
(350,105,o),
(303,105,cs),
(241,105,o),
(193,157,o),
(193,234,cs),
(193,291,ls),
(193,378,o),
(239,422,o),
(298,422,cs),
(341,422,o),
(387,399,o),
(392,323,c),
(156,323,l),
(156,215,l),
(551,215,l),
(560,424,o),
(466,546,o),
(297,546,cs),
(136,546,o),
(32,436,o),
(32,265,cs),
(32,91,o),
(136,-16,o),
(298,-16,cs)
);
}
);
width = 579;
},
{
anchors = (
{
name = bottom;
pos = (298,-6);
},
{
name = ogonek;
pos = (413,10);
},
{
name = top;
pos = (298,532);
}
);
layerId = m003;
shapes = (
{
closed = 1;
nodes = (
(422,-15,o),
(512,58,o),
(534,171,c),
(446,171,l),
(431,106,o),
(375,60,o),
(305,60,cs),
(207,60,o),
(141,135,o),
(141,250,cs),
(141,285,ls),
(141,350,o),
(180,471,o),
(300,471,cs),
(381,471,o),
(442,410,o),
(446,310,c),
(118,310,l),
(118,237,l),
(537,237,l),
(544,423,o),
(457,545,o),
(299,545,cs),
(150,545,o),
(49,431,o),
(49,263,cs),
(49,95,o),
(148,-15,o),
(304,-15,cs)
);
}
);
width = 578;
},
{
anchors = (
{
name = bottom;
pos = (295,-4);
},
{
name = ogonek;
pos = (411,10);
},
{
name = top;
pos = (295,536);
}
);
layerId = m004;
shapes = (
{
closed = 1;
nodes = (
(410,-15,o),
(510,53,o),
(529,169,c),
(483,169,l),
(466,82,o),
(387,27,o),
(304,27,cs),
(177,27,o),
(100,123,o),
(100,263,cs),
(100,284,ls),
(100,333,o),
(132,505,o),
(299,505,cs),
(403,505,o),
(482,428,o),
(487,295,c),
(84,295,l),
(84,254,l),
(532,254,l),
(539,437,o),
(442,545,o),
(298,545,cs),
(152,545,o),
(53,432,o),
(53,265,cs),
(53,100,o),
(150,-15,o),
(305,-15,cs)
);
}
);
width = 575;
}
);
note = e;
unicode = 101;
userData = {
KernOnName = e;
};
},
{
glyphname = f;
kernLeft = KO_f;
kernRight = KO_f;
lastChange = "2025-03-16 19:02:43 +0000";
layers = (
{
layerId = m002;
shapes = (
{
closed = 1;
nodes = (
(277,-2,l),
(277,539,ls),
(277,602,o),
(297,625,o),
(347,625,cs),
(374,625,o),
(396,621,o),
(417,618,c),
(417,756,l),
(380,765,o),
(339,766,o),
(324,766,cs),
(186,766,o),
(116,691,o),
(116,540,cs),
(116,-2,l)
);
},
{
closed = 1;
nodes = (
(387,401,l),
(387,530,l),
(33,530,l),
(33,401,l)
);
}
);
userData = {
assembly = "NPUSHB[ ]	/* 38 values pushed */
0 0 0 1 3 0 1 103 5 1 4 4 3 95 0 3 3 41 77 0 2 2 39 2 78 12 12 12 15 12 15 18 19 33 34 6 8 26 
CALL[ ]	/* CallFunction */";
};
width = 424;
},
{
layerId = m003;
shapes = (
{
closed = 1;
nodes = (
(226,0,l),
(226,568,ls),
(226,647,o),
(249,685,o),
(311,685,cs),
(329,685,o),
(345,683,o),
(369,677,c),
(369,756,l),
(341,764,o),
(315,765,o),
(299,765,cs),
(186,765,o),
(135,697,o),
(135,569,cs),
(135,0,l)
);
},
{
closed = 1;
nodes = (
(343,453,l),
(343,530,l),
(46,530,l),
(46,453,l)
);
}
);
width = 377;
},
{
layerId = m004;
shapes = (
{
closed = 1;
nodes = (
(189,0,l),
(189,589,ls),
(189,679,o),
(213,724,o),
(286,724,cs),
(301,724,o),
(314,723,o),
(337,716,c),
(337,756,l),
(313,764,o),
(300,765,o),
(282,765,cs),
(182,765,o),
(143,704,o),
(143,590,cs),
(143,0,l)
);
},
{
closed = 1;
nodes = (
(313,489,l),
(313,530,l),
(48,530,l),
(48,489,l)
);
}
);
width = 346;
}
);
note = f;
unicode = 102;
userData = {
KernOnName = f;
};
},
{
glyphname = g;
kernLeft = KO_g;
kernRight = KO_a;
lastChange = "2025-03-16 19:02:43 +0000";
layers = (
{
associatedMasterId = m002;
layerId = "D77510C4-ACEF-42A9-A017-2E18CB6D4F28";
name = "18 Jun 24 at 16:02";
shapes = (
{
closed = 1;
nodes = (
(471,-195,o),
(582,-93,o),
(582,52,cs),
(582,570,l),
(439,570,l),
(421,422,l),
(421,52,ls),
(421,-23,o),
(373,-65,o),
(302,-65,cs),
(245,-65,o),
(196,-34,o),
(181,13,c),
(40,13,l),
(53,-111,o),
(171,-195,o),
(302,-195,cs)
);
},
{
closed = 1;
nodes = (
(402,47,o),
(447,143,o),
(464,239,c),
(464,455,l),
(432,531,o),
(368,585,o),
(278,585,cs),
(142,585,o),
(36,475,o),
(36,316,cs),
(36,151,o),
(138,47,o),
(268,47,cs)
);
},
{
closed = 1;
nodes = (
(237,174,o),
(201,227,o),
(201,307,cs),
(201,388,o),
(238,446,o),
(308,446,cs),
(378,446,o),
(421,386,o),
(421,307,cs),
(421,227,o),
(378,174,o),
(308,174,cs)
);
}
);
userData = {
assembly = "NPUSHB[ ]	/* 16 values pushed */
86 1 6 9 30 29 2 4 6 7 6 2 2 3 3 76 
MPPEM[ ]	/* MeasurePixelPerEm */
PUSHB[ ]	/* 1 value pushed */
20 
LT[ ]	/* LessThan */
IF[ ]	/* If */
NPUSHB[ ]	/* 54 values pushed */
12 1 6 11 1 4 3 6 4 105 0 7 7 5 97 8 1 5 5 49 77 0 9 9 5 97 8 1 5 5 49 77 0 3 3 2 95 0 2 2 39 77 0 1 1 0 95 10 1 0 0 43 0 78 
ELSE[ ]	/* Else */
MPPEM[ ]	/* MeasurePixelPerEm */
PUSHB[ ]	/* 1 value pushed */
42 
LT[ ]	/* LessThan */
IF[ ]	/* If */
NPUSHB[ ]	/* 52 values pushed */
12 1 6 11 1 4 3 6 4 105 0 7 7 5 97 0 5 5 49 77 0 9 9 8 97 0 8 8 41 77 0 3 3 2 95 0 2 2 39 77 0 1 1 0 95 10 1 0 0 43 0 78 
ELSE[ ]	/* Else */
MPPEM[ ]	/* MeasurePixelPerEm */
PUSHB[ ]	/* 1 value pushed */
45 
LT[ ]	/* LessThan */
IF[ ]	/* If */
NPUSHB[ ]	/* 49 values pushed */
12 1 6 11 1 4 3 6 4 105 0 1 10 1 0 1 0 99 0 7 7 5 97 0 5 5 49 77 0 9 9 8 97 0 8 8 41 77 0 3 3 2 95 0 2 2 39 2 78 
ELSE[ ]	/* Else */
NPUSHB[ ]	/* 47 values pushed */
12 1 6 11 1 4 3 6 4 105 0 3 0 2 1 3 2 103 0 1 10 1 0 1 0 99 0 7 7 5 97 0 5 5 49 77 0 9 9 8 97 0 8 8 41 9 78 
EIF[ ]	/* EndIf */
EIF[ ]	/* EndIf */
EIF[ ]	/* EndIf */
NPUSHB[ ]	/* 35 values pushed */
61 60 45 44 1 0 83 81 80 78 69 67 60 75 61 75 53 51 44 59 45 59 38 35 22 19 15 12 0 43 1 42 13 8 22 
CALL[ ]	/* CallFunction */";
};
width = 644;
},
{
anchors = (
{
name = bottom;
pos = (303,-180);
},
{
name = top;
pos = (303,530);
}
);
layerId = m002;
name = Bold;
shapes = (
{
closed = 1;
nodes = (
(439,-195,o),
(545,-98,o),
(545,56,cs),
(545,530,l),
(402,530,l),
(384,394,l),
(384,56,ls),
(384,-28,o),
(342,-64,o),
(281,-64,cs),
(232,-64,o),
(205,-45,o),
(190,3,c),
(50,3,l),
(52,-114,o),
(158,-195,o),
(281,-195,cs)
);
},
{
closed = 1;
nodes = (
(373,43,o),
(412,132,o),
(428,224,c),
(428,428,l),
(396,499,o),
(338,546,o),
(257,546,cs),
(133,546,o),
(33,444,o),
(33,294,cs),
(33,139,o),
(129,43,o),
(247,43,cs)
);
},
{
closed = 1;
nodes = (
(227,169,o),
(197,214,o),
(197,285,cs),
(197,355,o),
(227,407,o),
(287,407,cs),
(349,407,o),
(385,353,o),
(385,285,cs),
(385,217,o),
(349,169,o),
(287,169,cs)
);
}
);
userData = {
assembly = "NPUSHB[ ]	/* 16 values pushed */
86 1 6 9 30 29 2 4 6 7 6 2 2 3 3 76 
MPPEM[ ]	/* MeasurePixelPerEm */
PUSHB[ ]	/* 1 value pushed */
20 
LT[ ]	/* LessThan */
IF[ ]	/* If */
NPUSHB[ ]	/* 54 values pushed */
12 1 6 11 1 4 3 6 4 105 0 7 7 5 97 8 1 5 5 49 77 0 9 9 5 97 8 1 5 5 49 77 0 3 3 2 95 0 2 2 39 77 0 1 1 0 95 10 1 0 0 43 0 78 
ELSE[ ]	/* Else */
MPPEM[ ]	/* MeasurePixelPerEm */
PUSHB[ ]	/* 1 value pushed */
42 
LT[ ]	/* LessThan */
IF[ ]	/* If */
NPUSHB[ ]	/* 52 values pushed */
12 1 6 11 1 4 3 6 4 105 0 7 7 5 97 0 5 5 49 77 0 9 9 8 97 0 8 8 41 77 0 3 3 2 95 0 2 2 39 77 0 1 1 0 95 10 1 0 0 43 0 78 
ELSE[ ]	/* Else */
MPPEM[ ]	/* MeasurePixelPerEm */
PUSHB[ ]	/* 1 value pushed */
45 
LT[ ]	/* LessThan */
IF[ ]	/* If */
NPUSHB[ ]	/* 49 values pushed */
12 1 6 11 1 4 3 6 4 105 0 1 10 1 0 1 0 99 0 7 7 5 97 0 5 5 49 77 0 9 9 8 97 0 8 8 41 77 0 3 3 2 95 0 2 2 39 2 78 
ELSE[ ]	/* Else */
NPUSHB[ ]	/* 47 values pushed */
12 1 6 11 1 4 3 6 4 105 0 3 0 2 1 3 2 103 0 1 10 1 0 1 0 99 0 7 7 5 97 0 5 5 49 77 0 9 9 8 97 0 8 8 41 9 78 
EIF[ ]	/* EndIf */
EIF[ ]	/* EndIf */
EIF[ ]	/* EndIf */
NPUSHB[ ]	/* 35 values pushed */
61 60 45 44 1 0 83 81 80 78 69 67 60 75 61 75 53 51 44 59 45 59 38 35 22 19 15 12 0 43 1 42 13 8 22 
CALL[ ]	/* CallFunction */";
};
width = 606;
},
{
associatedMasterId = m003;
layerId = "0CB15581-1F56-477B-B5CC-162E43DCAB97";
name = "18 Jun 24 at 16:02";
shapes = (
{
closed = 1;
nodes = (
(471,-195,o),
(582,-93,o),
(582,52,cs),
(582,570,l),
(439,570,l),
(421,422,l),
(421,52,ls),
(421,-23,o),
(373,-65,o),
(302,-65,cs),
(245,-65,o),
(196,-34,o),
(181,13,c),
(40,13,l),
(53,-111,o),
(171,-195,o),
(302,-195,cs)
);
},
{
closed = 1;
nodes = (
(402,47,o),
(447,143,o),
(464,239,c),
(464,455,l),
(432,531,o),
(368,585,o),
(278,585,cs),
(142,585,o),
(36,475,o),
(36,316,cs),
(36,151,o),
(138,47,o),
(268,47,cs)
);
},
{
closed = 1;
nodes = (
(237,174,o),
(201,227,o),
(201,307,cs),
(201,388,o),
(238,446,o),
(308,446,cs),
(378,446,o),
(421,386,o),
(421,307,cs),
(421,227,o),
(378,174,o),
(308,174,cs)
);
}
);
userData = {
assembly = "NPUSHB[ ]	/* 16 values pushed */
86 1 6 9 30 29 2 4 6 7 6 2 2 3 3 76 
MPPEM[ ]	/* MeasurePixelPerEm */
PUSHB[ ]	/* 1 value pushed */
20 
LT[ ]	/* LessThan */
IF[ ]	/* If */
NPUSHB[ ]	/* 54 values pushed */
12 1 6 11 1 4 3 6 4 105 0 7 7 5 97 8 1 5 5 49 77 0 9 9 5 97 8 1 5 5 49 77 0 3 3 2 95 0 2 2 39 77 0 1 1 0 95 10 1 0 0 43 0 78 
ELSE[ ]	/* Else */
MPPEM[ ]	/* MeasurePixelPerEm */
PUSHB[ ]	/* 1 value pushed */
42 
LT[ ]	/* LessThan */
IF[ ]	/* If */
NPUSHB[ ]	/* 52 values pushed */
12 1 6 11 1 4 3 6 4 105 0 7 7 5 97 0 5 5 49 77 0 9 9 8 97 0 8 8 41 77 0 3 3 2 95 0 2 2 39 77 0 1 1 0 95 10 1 0 0 43 0 78 
ELSE[ ]	/* Else */
MPPEM[ ]	/* MeasurePixelPerEm */
PUSHB[ ]	/* 1 value pushed */
45 
LT[ ]	/* LessThan */
IF[ ]	/* If */
NPUSHB[ ]	/* 49 values pushed */
12 1 6 11 1 4 3 6 4 105 0 1 10 1 0 1 0 99 0 7 7 5 97 0 5 5 49 77 0 9 9 8 97 0 8 8 41 77 0 3 3 2 95 0 2 2 39 2 78 
ELSE[ ]	/* Else */
NPUSHB[ ]	/* 47 values pushed */
12 1 6 11 1 4 3 6 4 105 0 3 0 2 1 3 2 103 0 1 10 1 0 1 0 99 0 7 7 5 97 0 5 5 49 77 0 9 9 8 97 0 8 8 41 9 78 
EIF[ ]	/* EndIf */
EIF[ ]	/* EndIf */
EIF[ ]	/* EndIf */
NPUSHB[ ]	/* 35 values pushed */
61 60 45 44 1 0 83 81 80 78 69 67 60 75 61 75 53 51 44 59 45 59 38 35 22 19 15 12 0 43 1 42 13 8 22 
CALL[ ]	/* CallFunction */";
};
width = 644;
},
{
anchors = (
{
name = bottom;
pos = (304,-180);
},
{
name = top;
pos = (304,530);
}
);
layerId = m003;
shapes = (
{
closed = 1;
nodes = (
(430,-195,o),
(523,-100,o),
(523,42,cs),
(523,530,l),
(443,530,l),
(433,383,l),
(432,42,ls),
(432,-57,o),
(376,-120,o),
(290,-120,cs),
(213,-120,o),
(159,-78,o),
(147,-9,c),
(65,-9,l),
(73,-123,o),
(172,-195,o),
(290,-195,cs)
);
},
{
closed = 1;
nodes = (
(374,33,o),
(436,112,o),
(453,206,c),
(454,398,l),
(431,481,o),
(364,545,o),
(271,545,cs),
(144,545,o),
(49,441,o),
(49,290,cs),
(49,138,o),
(142,33,o),
(267,33,cs)
);
},
{
closed = 1;
nodes = (
(199,106,o),
(142,180,o),
(142,285,cs),
(142,391,o),
(200,465,o),
(287,465,cs),
(372,465,o),
(430,391,o),
(430,284,cs),
(430,179,o),
(372,106,o),
(287,106,cs)
);
}
);
width = 608;
},
{
associatedMasterId = m004;
layerId = "09B3AE69-BF0F-4EF3-A9B7-B3F243EB291D";
width = 644;
},
{
anchors = (
{
name = bottom;
pos = (302,-180);
},
{
name = top;
pos = (302,530);
}
);
layerId = m004;
shapes = (
{
closed = 1;
nodes = (
(426,-195,o),
(514,-94,o),
(514,36,cs),
(514,530,l),
(475,530,l),
(469,377,l),
(468,36,ls),
(468,-69,o),
(401,-156,o),
(296,-156,cs),
(197,-156,o),
(123,-101,o),
(113,-14,c),
(70,-14,l),
(81,-128,o),
(176,-195,o),
(296,-195,cs)
);
},
{
closed = 1;
nodes = (
(375,29,o),
(455,98,o),
(474,196,c),
(476,378,l),
(456,478,o),
(374,545,o),
(279,545,cs),
(147,545,o),
(53,440,o),
(53,289,cs),
(53,137,o),
(147,29,o),
(279,29,cs)
);
},
{
closed = 1;
nodes = (
(177,68,o),
(100,159,o),
(100,287,cs),
(100,416,o),
(177,503,o),
(287,503,cs),
(390,503,o),
(463,415,o),
(463,285,cs),
(463,158,o),
(390,68,o),
(287,68,cs)
);
}
);
width = 603;
}
);
note = g;
unicode = 103;
userData = {
KernOnName = g;
};
},
{
glyphname = h;
kernLeft = KO_h;
kernRight = KO_h;
lastChange = "2025-03-16 19:02:43 +0000";
layers = (
{
layerId = m002;
shapes = (
{
closed = 1;
nodes = (
(555,0,l),
(555,346,ls),
(555,464,o),
(479,546,o),
(360,546,cs),
(279,546,o),
(212,492,o),
(185,395,c),
(223,301,l),
(223,364,o),
(254,407,o),
(309,407,cs),
(361,407,o),
(393,369,o),
(393,313,cs),
(393,0,l)
);
},
{
closed = 1;
nodes = (
(223,0,l),
(223,750,l),
(61,750,l),
(61,0,l)
);
}
);
userData = {
assembly = "NPUSHB[ ]	/* 43 values pushed */
8 7 2 2 0 1 76 5 1 4 4 38 77 0 0 0 1 97 0 1 1 49 77 3 1 2 2 39 2 78 18 18 18 21 18 21 18 20 38 34 6 8 26 
CALL[ ]	/* CallFunction */";
};
width = 613;
},
{
layerId = m003;
shapes = (
{
closed = 1;
nodes = (
(527,0,l),
(527,343,ls),
(527,465,o),
(452,545,o),
(336,545,cs),
(246,545,o),
(183,486,o),
(154,387,c),
(175,296,l),
(175,389,o),
(228,464,o),
(310,464,cs),
(386,464,o),
(434,410,o),
(434,325,cs),
(434,0,l)
);
},
{
closed = 1;
nodes = (
(175,0,l),
(175,750,l),
(84,750,l),
(84,0,l)
);
}
);
width = 606;
},
{
layerId = m004;
shapes = (
{
closed = 1;
nodes = (
(507,0,l),
(507,343,ls),
(507,468,o),
(433,545,o),
(317,545,cs),
(232,545,o),
(161,499,o),
(125,382,c),
(136,296,l),
(136,409,o),
(205,503,o),
(307,503,cs),
(402,503,o),
(461,439,o),
(461,336,cs),
(461,0,l)
);
},
{
closed = 1;
nodes = (
(136,0,l),
(136,750,l),
(90,750,l),
(90,0,l)
);
}
);
width = 591;
}
);
note = h;
unicode = 104;
userData = {
KernOnName = h;
};
},
{
glyphname = hbar;
lastChange = "2025-03-16 19:02:43 +0000";
layers = (
{
layerId = m002;
shapes = (
{
closed = 1;
nodes = (
(315,598,l),
(315,705,l),
(-12,705,l),
(-12,598,l)
);
},
{
ref = h;
}
);
width = 643;
},
{
layerId = m003;
shapes = (
{
closed = 1;
nodes = (
(315,615,l),
(315,682,l),
(-12,682,l),
(-12,615,l)
);
},
{
ref = h;
}
);
width = 615;
},
{
layerId = m004;
shapes = (
{
closed = 1;
nodes = (
(315,628,l),
(315,665,l),
(-12,665,l),
(-12,628,l)
);
},
{
ref = h;
}
);
width = 595;
}
);
unicode = 295;
},
{
glyphname = i;
kernLeft = KO_i;
kernRight = KO_i;
lastChange = "2025-03-16 19:02:43 +0000";
layers = (
{
anchors = (
{
name = bottom;
pos = (158,0);
}
);
associatedMasterId = m002;
layerId = "C17EC9A1-DF88-4931-AFA6-87B80C3DE866";
name = "27 Jun 24 at 12:20";
shapes = (
{
closed = 1;
nodes = (
(239,0,l),
(239,570,l),
(77,570,l),
(77,0,l)
);
},
{
closed = 1;
nodes = (
(239,630,l),
(239,750,l),
(77,750,l),
(77,630,l)
);
}
);
userData = {
assembly = "MPPEM[ ]	/* MeasurePixelPerEm */
PUSHB[ ]	/* 1 value pushed */
9 
LT[ ]	/* LessThan */
IF[ ]	/* If */
NPUSHB[ ]	/* 23 values pushed */
4 1 0 0 1 97 0 1 1 48 77 5 1 3 3 41 77 0 2 2 39 2 78 
ELSE[ ]	/* Else */
NPUSHB[ ]	/* 21 values pushed */
0 1 4 1 0 3 1 0 105 5 1 3 3 41 77 0 2 2 39 2 78 
EIF[ ]	/* EndIf */
NPUSHB[ ]	/* 19 values pushed */
12 12 1 0 12 15 12 15 14 13 7 5 0 11 1 11 6 8 22 
CALL[ ]	/* CallFunction */";
};
width = 315;
},
{
anchors = (
{
name = bottom;
pos = (142,0);
},
{
name = ogonek;
pos = (223,0);
}
);
layerId = m002;
name = Bold;
shapes = (
{
closed = 1;
nodes = (
(223,0,l),
(223,530,l),
(61,530,l),
(61,0,l)
);
},
{
closed = 1;
nodes = (
(197,585,o),
(237,622,o),
(237,677,cs),
(237,729,o),
(196,767,o),
(142,767,cs),
(87,767,o),
(46,729,o),
(46,677,cs),
(46,623,o),
(86,585,o),
(142,585,cs)
);
}
);
userData = {
assembly = "MPPEM[ ]	/* MeasurePixelPerEm */
PUSHB[ ]	/* 1 value pushed */
9 
LT[ ]	/* LessThan */
IF[ ]	/* If */
NPUSHB[ ]	/* 23 values pushed */
4 1 0 0 1 97 0 1 1 48 77 5 1 3 3 41 77 0 2 2 39 2 78 
ELSE[ ]	/* Else */
NPUSHB[ ]	/* 21 values pushed */
0 1 4 1 0 3 1 0 105 5 1 3 3 41 77 0 2 2 39 2 78 
EIF[ ]	/* EndIf */
NPUSHB[ ]	/* 19 values pushed */
12 12 1 0 12 15 12 15 14 13 7 5 0 11 1 11 6 8 22 
CALL[ ]	/* CallFunction */";
};
width = 284;
},
{
anchors = (
{
name = bottom;
pos = (158,0);
}
);
associatedMasterId = m003;
layerId = "3E1CD0DF-0B5A-4C8C-A9F8-159F64E4A32B";
name = "27 Jun 24 at 12:20";
shapes = (
{
closed = 1;
nodes = (
(239,0,l),
(239,570,l),
(77,570,l),
(77,0,l)
);
},
{
closed = 1;
nodes = (
(239,630,l),
(239,750,l),
(77,750,l),
(77,630,l)
);
}
);
userData = {
assembly = "MPPEM[ ]	/* MeasurePixelPerEm */
PUSHB[ ]	/* 1 value pushed */
9 
LT[ ]	/* LessThan */
IF[ ]	/* If */
NPUSHB[ ]	/* 23 values pushed */
4 1 0 0 1 97 0 1 1 48 77 5 1 3 3 41 77 0 2 2 39 2 78 
ELSE[ ]	/* Else */
NPUSHB[ ]	/* 21 values pushed */
0 1 4 1 0 3 1 0 105 5 1 3 3 41 77 0 2 2 39 2 78 
EIF[ ]	/* EndIf */
NPUSHB[ ]	/* 19 values pushed */
12 12 1 0 12 15 12 15 14 13 7 5 0 11 1 11 6 8 22 
CALL[ ]	/* CallFunction */";
};
width = 315;
},
{
anchors = (
{
name = bottom;
pos = (128,0);
},
{
name = ogonek;
pos = (173,0);
}
);
layerId = m003;
shapes = (
{
closed = 1;
nodes = (
(173,0,l),
(173,530,l),
(82,530,l),
(82,0,l)
);
},
{
closed = 1;
nodes = (
(161,620,o),
(188,644,o),
(188,680,cs),
(188,715,o),
(162,740,o),
(128,740,cs),
(94,740,o),
(67,715,o),
(67,680,cs),
(67,644,o),
(94,620,o),
(128,620,cs)
);
}
);
width = 255;
},
{
associatedMasterId = m004;
layerId = "4F64F200-A54F-4480-B6B3-99EE917E1D48";
width = 315;
},
{
anchors = (
{
name = bottom;
pos = (111,0);
},
{
name = ogonek;
pos = (132,0);
}
);
layerId = m004;
shapes = (
{
closed = 1;
nodes = (
(132,0,l),
(132,530,l),
(87,530,l),
(87,0,l)
);
},
{
closed = 1;
nodes = (
(131,630,o),
(145,644,o),
(145,665,cs),
(145,686,o),
(131,700,o),
(111,700,cs),
(90,700,o),
(75,686,o),
(75,665,cs),
(75,644,o),
(90,630,o),
(111,630,cs)
);
}
);
width = 221;
}
);
note = i;
unicode = 105;
userData = {
KernOnName = i;
};
},
{
glyphname = idotless;
kernLeft = KO_idotless;
kernRight = KO_idotless;
lastChange = "2025-03-16 19:02:43 +0000";
layers = (
{
anchors = (
{
name = bottom;
pos = (152,0);
},
{
name = ogonek;
pos = (233,0);
},
{
name = top;
pos = (152,530);
}
);
layerId = m002;
shapes = (
{
closed = 1;
nodes = (
(233,0,l),
(233,530,l),
(71,530,l),
(71,0,l)
);
}
);
userData = {
assembly = "MPPEM[ ]	/* MeasurePixelPerEm */
PUSHB[ ]	/* 1 value pushed */
9 
LT[ ]	/* LessThan */
IF[ ]	/* If */
NPUSHB[ ]	/* 23 values pushed */
4 1 0 0 1 97 0 1 1 48 77 5 1 3 3 41 77 0 2 2 39 2 78 
ELSE[ ]	/* Else */
NPUSHB[ ]	/* 21 values pushed */
0 1 4 1 0 3 1 0 105 5 1 3 3 41 77 0 2 2 39 2 78 
EIF[ ]	/* EndIf */
NPUSHB[ ]	/* 19 values pushed */
12 12 1 0 12 15 12 15 14 13 7 5 0 11 1 11 6 8 22 
CALL[ ]	/* CallFunction */";
};
width = 304;
},
{
anchors = (
{
name = bottom;
pos = (127,0);
},
{
name = ogonek;
pos = (170,0);
},
{
name = top;
pos = (127,530);
}
);
layerId = m003;
shapes = (
{
closed = 1;
nodes = (
(170,0,l),
(170,530,l),
(83,530,l),
(83,0,l)
);
}
);
userData = {
assembly = "MPPEM[ ]	/* MeasurePixelPerEm */
PUSHB[ ]	/* 1 value pushed */
9 
LT[ ]	/* LessThan */
IF[ ]	/* If */
NPUSHB[ ]	/* 23 values pushed */
4 1 0 0 1 97 0 1 1 48 77 5 1 3 3 41 77 0 2 2 39 2 78 
ELSE[ ]	/* Else */
NPUSHB[ ]	/* 21 values pushed */
0 1 4 1 0 3 1 0 105 5 1 3 3 41 77 0 2 2 39 2 78 
EIF[ ]	/* EndIf */
NPUSHB[ ]	/* 19 values pushed */
12 12 1 0 12 15 12 15 14 13 7 5 0 11 1 11 6 8 22 
CALL[ ]	/* CallFunction */";
};
width = 253;
},
{
anchors = (
{
name = bottom;
pos = (111,0);
},
{
name = ogonek;
pos = (133,0);
},
{
name = top;
pos = (111,530);
}
);
layerId = m004;
shapes = (
{
closed = 1;
nodes = (
(133,0,l),
(133,530,l),
(88,530,l),
(88,0,l)
);
}
);
userData = {
assembly = "MPPEM[ ]	/* MeasurePixelPerEm */
PUSHB[ ]	/* 1 value pushed */
9 
LT[ ]	/* LessThan */
IF[ ]	/* If */
NPUSHB[ ]	/* 23 values pushed */
4 1 0 0 1 97 0 1 1 48 77 5 1 3 3 41 77 0 2 2 39 2 78 
ELSE[ ]	/* Else */
NPUSHB[ ]	/* 21 values pushed */
0 1 4 1 0 3 1 0 105 5 1 3 3 41 77 0 2 2 39 2 78 
EIF[ ]	/* EndIf */
NPUSHB[ ]	/* 19 values pushed */
12 12 1 0 12 15 12 15 14 13 7 5 0 11 1 11 6 8 22 
CALL[ ]	/* CallFunction */";
};
width = 221;
}
);
note = i;
unicode = 305;
},
{
glyphname = j;
kernLeft = KO_j;
kernRight = KO_i;
lastChange = "2025-03-16 19:02:43 +0000";
layers = (
{
layerId = m002;
shapes = (
{
closed = 1;
nodes = (
(90,-180,ls),
(228,-180,o),
(286,-126,o),
(286,-4,cs),
(286,530,l),
(125,530,l),
(125,-5,ls),
(125,-26,o),
(116,-41,o),
(90,-41,cs),
(46,-41,l),
(46,-180,l)
);
},
{
closed = 1;
nodes = (
(261,585,o),
(300,623,o),
(300,677,cs),
(300,729,o),
(260,767,o),
(205,767,cs),
(151,767,o),
(110,729,o),
(110,677,cs),
(110,623,o),
(150,585,o),
(205,585,cs)
);
}
);
userData = {
assembly = "MPPEM[ ]	/* MeasurePixelPerEm */
PUSHB[ ]	/* 1 value pushed */
9 
LT[ ]	/* LessThan */
IF[ ]	/* If */
NPUSHB[ ]	/* 28 values pushed */
5 1 0 0 1 97 0 1 1 48 77 0 4 4 41 77 0 3 3 2 98 6 1 2 2 43 2 78 
ELSE[ ]	/* Else */
NPUSHB[ ]	/* 26 values pushed */
0 1 5 1 0 4 1 0 105 0 4 4 41 77 0 3 3 2 98 6 1 2 2 43 2 78 
EIF[ ]	/* EndIf */
NPUSHB[ ]	/* 21 values pushed */
13 12 1 0 20 19 16 14 12 23 13 23 7 5 0 11 1 11 7 8 22 
CALL[ ]	/* CallFunction */";
};
width = 347;
},
{
layerId = m003;
shapes = (
{
closed = 1;
nodes = (
(96,-180,ls),
(186,-180,o),
(234,-137,o),
(234,-53,cs),
(234,530,l),
(142,530,l),
(142,-51,ls),
(142,-79,o),
(125,-100,o),
(96,-100,cs),
(67,-100,l),
(67,-180,l)
);
},
{
closed = 1;
nodes = (
(223,620,o),
(248,644,o),
(248,680,cs),
(248,714,o),
(223,740,o),
(188,740,cs),
(153,740,o),
(126,715,o),
(126,680,cs),
(126,644,o),
(154,620,o),
(188,620,cs)
);
}
);
width = 315;
},
{
layerId = m004;
shapes = (
{
closed = 1;
nodes = (
(92,-180,ls),
(151,-180,o),
(192,-144,o),
(192,-86,cs),
(192,530,l),
(146,530,l),
(146,-83,ls),
(146,-115,o),
(123,-140,o),
(90,-140,cs),
(72,-140,l),
(72,-180,l)
);
},
{
closed = 1;
nodes = (
(189,630,o),
(203,644,o),
(203,665,cs),
(203,686,o),
(189,700,o),
(169,700,cs),
(148,700,o),
(133,686,o),
(133,665,cs),
(133,644,o),
(148,630,o),
(169,630,cs)
);
}
);
width = 279;
}
);
note = j;
unicode = 106;
userData = {
KernOnName = j;
};
},
{
glyphname = jdotless;
lastChange = "2025-07-03 09:35:08 +0000";
layers = (
{
anchors = (
{
name = bottom;
pos = (170,-180);
},
{
name = top;
pos = (213,530);
}
);
layerId = m002;
shapes = (
{
closed = 1;
nodes = (
(91,-180,ls),
(231,-180,o),
(292,-124,o),
(292,0,cs),
(292,570,l),
(130,570,l),
(130,0,ls),
(130,-23,o),
(119,-40,o),
(91,-40,cs),
(46,-40,l),
(46,-180,l)
);
}
);
width = 339;
},
{
anchors = (
{
name = bottom;
pos = (151,-180);
},
{
name = top;
pos = (187,530);
}
);
layerId = m003;
shapes = (
{
closed = 1;
nodes = (
(96,-180,ls),
(186,-180,o),
(234,-137,o),
(234,-53,cs),
(234,530,l),
(142,530,l),
(142,-51,ls),
(142,-79,o),
(125,-100,o),
(96,-100,cs),
(67,-100,l),
(67,-180,l)
);
}
);
width = 301;
},
{
anchors = (
{
name = bottom;
pos = (134,-180);
},
{
name = top;
pos = (169,530);
}
);
layerId = m004;
shapes = (
{
closed = 1;
nodes = (
(92,-180,ls),
(151,-180,o),
(192,-144,o),
(192,-86,cs),
(192,530,l),
(146,530,l),
(146,-83,ls),
(146,-115,o),
(123,-140,o),
(90,-140,cs),
(72,-140,l),
(72,-180,l)
);
}
);
width = 268;
}
);
metricLeft = j;
metricRight = j;
unicode = 567;
},
{
glyphname = k;
kernLeft = KO_h;
kernRight = KO_k;
lastChange = "2025-03-16 19:02:43 +0000";
layers = (
{
layerId = m002;
shapes = (
{
closed = 1;
nodes = (
(560,530,l),
(364,530,l),
(141,242,l),
(141,24,l)
);
},
{
closed = 1;
nodes = (
(223,0,l),
(223,750,l),
(61,750,l),
(61,0,l)
);
},
{
closed = 1;
nodes = (
(572,0,l),
(383,358,l),
(283,225,l),
(389,0,l)
);
}
);
userData = {
assembly = "NPUSHB[ ]	/* 46 values pushed */
6 5 1 0 4 1 0 1 76 5 1 3 3 38 77 0 0 0 41 77 2 4 2 1 1 39 1 78 8 8 4 4 8 11 8 11 10 9 4 7 4 7 18 6 8 23 
CALL[ ]	/* CallFunction */";
};
width = 578;
},
{
associatedMasterId = m002;
layerId = "B3F6ADAD-C7BD-4405-A210-F5305E17FB50";
name = "18 Jun 24 at 22:38";
shapes = (
{
closed = 1;
nodes = (
(627,570,l),
(405,570,l),
(143,317,l),
(143,131,l)
);
},
{
closed = 1;
nodes = (
(224,0,l),
(224,750,l),
(62,750,l),
(62,0,l)
);
},
{
closed = 1;
nodes = (
(640,0,l),
(384,410,l),
(270,308,l),
(453,0,l)
);
}
);
userData = {
assembly = "NPUSHB[ ]	/* 46 values pushed */
6 5 1 0 4 1 0 1 76 5 1 3 3 38 77 0 0 0 41 77 2 4 2 1 1 39 1 78 8 8 4 4 8 11 8 11 10 9 4 7 4 7 18 6 8 23 
CALL[ ]	/* CallFunction */";
};
width = 623;
},
{
layerId = m003;
shapes = (
{
closed = 1;
nodes = (
(505,530,l),
(392,530,l),
(136,225,l),
(136,100,l)
);
},
{
closed = 1;
nodes = (
(175,0,l),
(175,750,l),
(84,750,l),
(84,0,l)
);
},
{
closed = 1;
nodes = (
(518,0,l),
(319,337,l),
(259,267,l),
(415,0,l)
);
}
);
width = 542;
},
{
associatedMasterId = m003;
layerId = "85C9BAB6-EAF1-49CD-82C1-214870111470";
name = "18 Jun 24 at 22:38";
shapes = (
{
closed = 1;
nodes = (
(627,570,l),
(405,570,l),
(143,317,l),
(143,131,l)
);
},
{
closed = 1;
nodes = (
(224,0,l),
(224,750,l),
(62,750,l),
(62,0,l)
);
},
{
closed = 1;
nodes = (
(640,0,l),
(384,410,l),
(270,308,l),
(453,0,l)
);
}
);
userData = {
assembly = "NPUSHB[ ]	/* 46 values pushed */
6 5 1 0 4 1 0 1 76 5 1 3 3 38 77 0 0 0 41 77 2 4 2 1 1 39 1 78 8 8 4 4 8 11 8 11 10 9 4 7 4 7 18 6 8 23 
CALL[ ]	/* CallFunction */";
};
width = 623;
},
{
layerId = m004;
shapes = (
{
closed = 1;
nodes = (
(467,530,l),
(408,530,l),
(124,215,l),
(124,152,l)
);
},
{
closed = 1;
nodes = (
(136,0,l),
(136,750,l),
(90,750,l),
(90,0,l)
);
},
{
closed = 1;
nodes = (
(484,0,l),
(272,327,l),
(238,299,l),
(431,0,l)
);
}
);
width = 513;
},
{
associatedMasterId = m004;
layerId = "A9288504-5D58-4BE0-8ACC-9F1C8C287EAA";
width = 623;
}
);
note = k;
unicode = 107;
userData = {
KernOnName = k;
};
},
{
glyphname = l;
kernLeft = KO_l;
kernRight = KO_l;
lastChange = "2025-03-16 19:02:43 +0000";
layers = (
{
layerId = m002;
shapes = (
{
closed = 1;
nodes = (
(289,0,l),
(289,140,l),
(260,140,ls),
(240,140,o),
(223,157,o),
(223,176,cs),
(223,750,l),
(61,750,l),
(61,148,ls),
(61,61,o),
(122,0,o),
(211,0,cs)
);
}
);
userData = {
assembly = "NPUSHB[ ]	/* 22 values pushed */
2 1 1 1 38 77 0 0 0 39 0 78 0 0 0 3 0 3 17 3 8 23 
CALL[ ]	/* CallFunction */";
};
width = 350;
},
{
layerId = m003;
shapes = (
{
closed = 1;
nodes = (
(247,0,l),
(247,81,l),
(220,81,ls),
(190,81,o),
(175,96,o),
(175,145,cs),
(175,750,l),
(84,750,l),
(84,133,ls),
(84,40,o),
(122,0,o),
(198,0,cs)
);
}
);
width = 331;
},
{
layerId = m004;
shapes = (
{
closed = 1;
nodes = (
(211,0,l),
(211,41,l),
(187,41,ls),
(149,41,o),
(136,55,o),
(136,123,cs),
(136,750,l),
(90,750,l),
(90,122,ls),
(90,26,o),
(113,0,o),
(183,0,cs)
);
}
);
width = 300;
}
);
note = l;
unicode = 108;
userData = {
KernOnName = l;
};
},
{
glyphname = lcaron;
lastChange = "2025-03-16 19:02:43 +0000";
layers = (
{
layerId = m002;
shapes = (
{
closed = 1;
nodes = (
(442,750,l),
(300,768,l),
(270,536,l),
(403,518,l)
);
},
{
ref = l;
}
);
width = 357;
},
{
layerId = m003;
shapes = (
{
closed = 1;
nodes = (
(371,757,l),
(285,768,l),
(255,536,l),
(332,525,l)
);
},
{
ref = l;
}
);
width = 331;
},
{
layerId = m004;
shapes = (
{
closed = 1;
nodes = (
(281,763,l),
(236,768,l),
(206,536,l),
(242,531,l)
);
},
{
ref = l;
}
);
width = 300;
}
);
unicode = 318;
},
{
glyphname = lslash;
lastChange = "2025-03-16 19:02:43 +0000";
layers = (
{
layerId = m002;
shapes = (
{
closed = 1;
nodes = (
(342,391,l),
(306,528,l),
(-44,434,l),
(-8,297,l)
);
},
{
ref = l;
}
);
width = 357;
},
{
layerId = m003;
shapes = (
{
closed = 1;
nodes = (
(279,393,l),
(257,477,l),
(-26,400,l),
(-4,316,l)
);
},
{
ref = l;
}
);
width = 297;
},
{
layerId = m004;
shapes = (
{
closed = 1;
nodes = (
(236,393,l),
(224,437,l),
(-13,374,l),
(-1,330,l)
);
},
{
ref = l;
}
);
width = 259;
}
);
unicode = 322;
},
{
glyphname = m;
kernLeft = KO_n;
kernRight = KO_m;
lastChange = "2025-03-16 19:48:37 +0000";
layers = (
{
associatedMasterId = m002;
background = {
shapes = (
{
closed = 1;
nodes = (
(907,0,l),
(907,378,ls),
(907,442,o),
(856,539,o),
(765,591,o),
(707,591,qs),
(639,591,o),
(535,511,o),
(503,429,q),
(561,330,l),
(561,365,o),
(586,420,o),
(630,453,o),
(661,453,qs),
(702,453,o),
(753,395,o),
(753,345,qs),
(753,0,l)
);
},
{
closed = 1;
nodes = (
(561,0,l),
(561,378,ls),
(561,442,o),
(510,539,o),
(419,591,o),
(361,591,qs),
(295,591,o),
(199,505,o),
(178,429,q),
(215,330,l),
(215,365,o),
(240,420,o),
(284,453,o),
(315,453,qs),
(356,453,o),
(407,395,o),
(407,345,qs),
(407,0,l)
);
},
{
closed = 1;
nodes = (
(215,419,l),
(197,579,l),
(61,579,l),
(61,0,l),
(215,0,l)
);
}
);
};
layerId = "E4A332C1-5A36-4B62-BAA3-35B2D4930284";
name = "4 Jun 24 at 12:03";
shapes = (
{
closed = 1;
nodes = (
(215,0,l),
(215,346,ls),
(215,411,o),
(251,452,o),
(309,452,cs),
(312,452,ls),
(370,452,o),
(407,411,o),
(407,346,cs),
(407,0,l),
(561,0,l),
(561,346,ls),
(561,411,o),
(598,452,o),
(656,452,cs),
(659,452,ls),
(717,452,o),
(753,411,o),
(753,346,cs),
(753,0,l),
(907,0,l),
(907,356,ls),
(907,495,o),
(818,591,o),
(688,591,cs),
(659,591,ls),
(592,591,o),
(526,559,o),
(485,511,c),
(448,559,o),
(389,591,o),
(329,591,cs),
(290,591,ls),
(154,591,o),
(61,495,o),
(61,356,cs),
(61,0,l)
);
}
);
userData = {
assembly = "NPUSHB[ ]	/* 10 values pushed */
39 26 25 8 7 5 2 0 1 76 
MPPEM[ ]	/* MeasurePixelPerEm */
PUSHB[ ]	/* 1 value pushed */
20 
LT[ ]	/* LessThan */
IF[ ]	/* If */
NPUSHB[ ]	/* 22 values pushed */
3 1 0 0 1 97 6 4 2 1 1 49 77 8 7 5 3 2 2 39 2 78 
ELSE[ ]	/* Else */
NPUSHB[ ]	/* 26 values pushed */
0 6 6 41 77 3 1 0 0 1 97 4 1 1 1 49 77 8 7 5 3 2 2 39 2 78 
EIF[ ]	/* EndIf */
NPUSHB[ ]	/* 16 values pushed */
36 36 36 40 36 40 18 20 38 35 20 38 34 9 8 29 
CALL[ ]	/* CallFunction */";
};
width = 962;
},
{
associatedMasterId = m002;
layerId = "6FA1B48F-3A0B-4EA1-B6B5-CA2F87DBBCFF";
name = "24 Jun 24 at 16:51";
shapes = (
{
closed = 1;
nodes = (
(224,0,l),
(224,362,ls),
(224,412,o),
(262,444,o),
(322,444,cs),
(383,444,o),
(421,412,o),
(421,362,cs),
(421,0,l),
(583,0,l),
(583,362,ls),
(583,412,o),
(621,444,o),
(681,444,cs),
(741,444,o),
(779,412,o),
(779,362,cs),
(777,0,l),
(940,0,l),
(940,362,ls),
(940,503,o),
(849,590,o),
(704,590,cs),
(607,590,o),
(522,539,o),
(483,457,c),
(524,457,l),
(485,539,o),
(399,590,o),
(301,590,cs),
(154,590,o),
(62,503,o),
(62,362,cs),
(62,0,l)
);
}
);
userData = {
assembly = "NPUSHB[ ]	/* 10 values pushed */
39 26 25 8 7 5 2 0 1 76 
MPPEM[ ]	/* MeasurePixelPerEm */
PUSHB[ ]	/* 1 value pushed */
20 
LT[ ]	/* LessThan */
IF[ ]	/* If */
NPUSHB[ ]	/* 22 values pushed */
3 1 0 0 1 97 6 4 2 1 1 49 77 8 7 5 3 2 2 39 2 78 
ELSE[ ]	/* Else */
NPUSHB[ ]	/* 26 values pushed */
0 6 6 41 77 3 1 0 0 1 97 4 1 1 1 49 77 8 7 5 3 2 2 39 2 78 
EIF[ ]	/* EndIf */
NPUSHB[ ]	/* 16 values pushed */
36 36 36 40 36 40 18 20 38 35 20 38 34 9 8 29 
CALL[ ]	/* CallFunction */";
};
width = 997;
},
{
associatedMasterId = m002;
layerId = "61B5188A-A94A-49D1-ACE4-9BAAA5628AC5";
name = "24 Jun 24 at 19:25";
shapes = (
{
closed = 1;
nodes = (
(224,0,l),
(224,340,ls),
(224,401,o),
(264,444,o),
(322,444,cs),
(380,444,o),
(421,401,o),
(421,340,cs),
(421,0,l),
(583,0,l),
(583,340,ls),
(583,401,o),
(623,444,o),
(681,444,cs),
(739,444,o),
(779,401,o),
(779,340,cs),
(777,0,l),
(940,0,l),
(940,340,ls),
(940,487,o),
(843,590,o),
(704,590,cs),
(607,590,o),
(522,539,o),
(483,457,c),
(524,457,l),
(485,539,o),
(399,590,o),
(301,590,cs),
(161,590,o),
(62,487,o),
(62,340,cs),
(62,0,l)
);
}
);
userData = {
assembly = "NPUSHB[ ]	/* 10 values pushed */
39 26 25 8 7 5 2 0 1 76 
MPPEM[ ]	/* MeasurePixelPerEm */
PUSHB[ ]	/* 1 value pushed */
20 
LT[ ]	/* LessThan */
IF[ ]	/* If */
NPUSHB[ ]	/* 22 values pushed */
3 1 0 0 1 97 6 4 2 1 1 49 77 8 7 5 3 2 2 39 2 78 
ELSE[ ]	/* Else */
NPUSHB[ ]	/* 26 values pushed */
0 6 6 41 77 3 1 0 0 1 97 4 1 1 1 49 77 8 7 5 3 2 2 39 2 78 
EIF[ ]	/* EndIf */
NPUSHB[ ]	/* 16 values pushed */
36 36 36 40 36 40 18 20 38 35 20 38 34 9 8 29 
CALL[ ]	/* CallFunction */";
};
width = 997;
},
{
layerId = m002;
name = Bold;
shapes = (
{
closed = 1;
nodes = (
(547,0,l),
(547,344,ls),
(547,464,o),
(472,546,o),
(352,546,cs),
(265,546,o),
(202,486,o),
(176,394,c),
(222,291,l),
(222,370,o),
(260,406,o),
(310,406,cs),
(363,406,o),
(385,369,o),
(385,313,cs),
(385,0,l)
);
},
{
closed = 1;
nodes = (
(222,0,l),
(222,401,l),
(205,530,l),
(61,530,l),
(61,0,l)
);
},
{
closed = 1;
nodes = (
(875,0,l),
(875,346,ls),
(875,463,o),
(799,546,o),
(681,546,cs),
(596,546,o),
(531,488,o),
(505,395,c),
(547,291,l),
(547,370,o),
(587,406,o),
(639,406,cs),
(691,406,o),
(714,370,o),
(714,313,cs),
(714,0,l)
);
}
);
userData = {
assembly = "NPUSHB[ ]	/* 10 values pushed */
39 26 25 8 7 5 2 0 1 76 
MPPEM[ ]	/* MeasurePixelPerEm */
PUSHB[ ]	/* 1 value pushed */
20 
LT[ ]	/* LessThan */
IF[ ]	/* If */
NPUSHB[ ]	/* 22 values pushed */
3 1 0 0 1 97 6 4 2 1 1 49 77 8 7 5 3 2 2 39 2 78 
ELSE[ ]	/* Else */
NPUSHB[ ]	/* 26 values pushed */
0 6 6 41 77 3 1 0 0 1 97 4 1 1 1 49 77 8 7 5 3 2 2 39 2 78 
EIF[ ]	/* EndIf */
NPUSHB[ ]	/* 16 values pushed */
36 36 36 40 36 40 18 20 38 35 20 38 34 9 8 29 
CALL[ ]	/* CallFunction */";
};
width = 933;
},
{
associatedMasterId = m003;
background = {
shapes = (
{
closed = 1;
nodes = (
(907,0,l),
(907,378,ls),
(907,442,o),
(856,539,o),
(765,591,o),
(707,591,qs),
(639,591,o),
(535,511,o),
(503,429,q),
(561,330,l),
(561,365,o),
(586,420,o),
(630,453,o),
(661,453,qs),
(702,453,o),
(753,395,o),
(753,345,qs),
(753,0,l)
);
},
{
closed = 1;
nodes = (
(561,0,l),
(561,378,ls),
(561,442,o),
(510,539,o),
(419,591,o),
(361,591,qs),
(295,591,o),
(199,505,o),
(178,429,q),
(215,330,l),
(215,365,o),
(240,420,o),
(284,453,o),
(315,453,qs),
(356,453,o),
(407,395,o),
(407,345,qs),
(407,0,l)
);
},
{
closed = 1;
nodes = (
(215,419,l),
(197,579,l),
(61,579,l),
(61,0,l),
(215,0,l)
);
}
);
};
layerId = "707B26CD-688C-42A0-860A-732370B1D8A3";
name = "4 Jun 24 at 12:03";
shapes = (
{
closed = 1;
nodes = (
(215,0,l),
(215,346,ls),
(215,411,o),
(251,452,o),
(309,452,cs),
(312,452,ls),
(370,452,o),
(407,411,o),
(407,346,cs),
(407,0,l),
(561,0,l),
(561,346,ls),
(561,411,o),
(598,452,o),
(656,452,cs),
(659,452,ls),
(717,452,o),
(753,411,o),
(753,346,cs),
(753,0,l),
(907,0,l),
(907,356,ls),
(907,495,o),
(818,591,o),
(688,591,cs),
(659,591,ls),
(592,591,o),
(526,559,o),
(485,511,c),
(448,559,o),
(389,591,o),
(329,591,cs),
(290,591,ls),
(154,591,o),
(61,495,o),
(61,356,cs),
(61,0,l)
);
}
);
userData = {
assembly = "NPUSHB[ ]	/* 10 values pushed */
39 26 25 8 7 5 2 0 1 76 
MPPEM[ ]	/* MeasurePixelPerEm */
PUSHB[ ]	/* 1 value pushed */
20 
LT[ ]	/* LessThan */
IF[ ]	/* If */
NPUSHB[ ]	/* 22 values pushed */
3 1 0 0 1 97 6 4 2 1 1 49 77 8 7 5 3 2 2 39 2 78 
ELSE[ ]	/* Else */
NPUSHB[ ]	/* 26 values pushed */
0 6 6 41 77 3 1 0 0 1 97 4 1 1 1 49 77 8 7 5 3 2 2 39 2 78 
EIF[ ]	/* EndIf */
NPUSHB[ ]	/* 16 values pushed */
36 36 36 40 36 40 18 20 38 35 20 38 34 9 8 29 
CALL[ ]	/* CallFunction */";
};
width = 962;
},
{
associatedMasterId = m003;
layerId = "5B5E082C-558F-4FD6-BC89-BC814205AB45";
name = "24 Jun 24 at 16:51";
shapes = (
{
closed = 1;
nodes = (
(224,0,l),
(224,362,ls),
(224,412,o),
(262,444,o),
(322,444,cs),
(383,444,o),
(421,412,o),
(421,362,cs),
(421,0,l),
(583,0,l),
(583,362,ls),
(583,412,o),
(621,444,o),
(681,444,cs),
(741,444,o),
(779,412,o),
(779,362,cs),
(777,0,l),
(940,0,l),
(940,362,ls),
(940,503,o),
(849,590,o),
(704,590,cs),
(607,590,o),
(522,539,o),
(483,457,c),
(524,457,l),
(485,539,o),
(399,590,o),
(301,590,cs),
(154,590,o),
(62,503,o),
(62,362,cs),
(62,0,l)
);
}
);
userData = {
assembly = "NPUSHB[ ]	/* 10 values pushed */
39 26 25 8 7 5 2 0 1 76 
MPPEM[ ]	/* MeasurePixelPerEm */
PUSHB[ ]	/* 1 value pushed */
20 
LT[ ]	/* LessThan */
IF[ ]	/* If */
NPUSHB[ ]	/* 22 values pushed */
3 1 0 0 1 97 6 4 2 1 1 49 77 8 7 5 3 2 2 39 2 78 
ELSE[ ]	/* Else */
NPUSHB[ ]	/* 26 values pushed */
0 6 6 41 77 3 1 0 0 1 97 4 1 1 1 49 77 8 7 5 3 2 2 39 2 78 
EIF[ ]	/* EndIf */
NPUSHB[ ]	/* 16 values pushed */
36 36 36 40 36 40 18 20 38 35 20 38 34 9 8 29 
CALL[ ]	/* CallFunction */";
};
width = 997;
},
{
associatedMasterId = m003;
layerId = "AB05FF27-E9CD-49DB-96CA-D2EEFB01C6A9";
name = "24 Jun 24 at 19:25";
shapes = (
{
closed = 1;
nodes = (
(224,0,l),
(224,340,ls),
(224,401,o),
(264,444,o),
(322,444,cs),
(380,444,o),
(421,401,o),
(421,340,cs),
(421,0,l),
(583,0,l),
(583,340,ls),
(583,401,o),
(623,444,o),
(681,444,cs),
(739,444,o),
(779,401,o),
(779,340,cs),
(777,0,l),
(940,0,l),
(940,340,ls),
(940,487,o),
(843,590,o),
(704,590,cs),
(607,590,o),
(522,539,o),
(483,457,c),
(524,457,l),
(485,539,o),
(399,590,o),
(301,590,cs),
(161,590,o),
(62,487,o),
(62,340,cs),
(62,0,l)
);
}
);
userData = {
assembly = "NPUSHB[ ]	/* 10 values pushed */
39 26 25 8 7 5 2 0 1 76 
MPPEM[ ]	/* MeasurePixelPerEm */
PUSHB[ ]	/* 1 value pushed */
20 
LT[ ]	/* LessThan */
IF[ ]	/* If */
NPUSHB[ ]	/* 22 values pushed */
3 1 0 0 1 97 6 4 2 1 1 49 77 8 7 5 3 2 2 39 2 78 
ELSE[ ]	/* Else */
NPUSHB[ ]	/* 26 values pushed */
0 6 6 41 77 3 1 0 0 1 97 4 1 1 1 49 77 8 7 5 3 2 2 39 2 78 
EIF[ ]	/* EndIf */
NPUSHB[ ]	/* 16 values pushed */
36 36 36 40 36 40 18 20 38 35 20 38 34 9 8 29 
CALL[ ]	/* CallFunction */";
};
width = 997;
},
{
layerId = m003;
shapes = (
{
closed = 1;
nodes = (
(516,-1,l),
(516,361,ls),
(516,462,o),
(439,545,o),
(327,545,cs),
(248,545,o),
(181,494,o),
(152,390,c),
(176,291,l),
(176,390,o),
(225,465,o),
(305,465,cs),
(382,465,o),
(425,411,o),
(425,326,cs),
(425,-1,l)
);
},
{
closed = 1;
nodes = (
(176,-1,l),
(176,398,l),
(166,530,l),
(84,530,l),
(84,-1,l)
);
},
{
closed = 1;
nodes = (
(858,-1,l),
(858,344,ls),
(858,465,o),
(785,545,o),
(669,545,cs),
(588,545,o),
(523,495,o),
(492,387,c),
(516,295,l),
(516,393,o),
(567,465,o),
(647,465,cs),
(724,465,o),
(767,411,o),
(767,326,cs),
(767,-1,l)
);
}
);
width = 938;
},
{
associatedMasterId = m004;
background = {
shapes = (
{
closed = 1;
nodes = (
(907,0,l),
(907,378,ls),
(907,442,o),
(856,539,o),
(765,591,o),
(707,591,qs),
(639,591,o),
(535,511,o),
(503,429,q),
(561,330,l),
(561,365,o),
(586,420,o),
(630,453,o),
(661,453,qs),
(702,453,o),
(753,395,o),
(753,345,qs),
(753,0,l)
);
},
{
closed = 1;
nodes = (
(561,0,l),
(561,378,ls),
(561,442,o),
(510,539,o),
(419,591,o),
(361,591,qs),
(295,591,o),
(199,505,o),
(178,429,q),
(215,330,l),
(215,365,o),
(240,420,o),
(284,453,o),
(315,453,qs),
(356,453,o),
(407,395,o),
(407,345,qs),
(407,0,l)
);
},
{
closed = 1;
nodes = (
(215,419,l),
(197,579,l),
(61,579,l),
(61,0,l),
(215,0,l)
);
}
);
};
layerId = "8EF1A38D-64EE-467E-B95D-7D8BB229CB56";
name = "4 Jun 24 at 12:03";
shapes = (
{
closed = 1;
nodes = (
(215,0,l),
(215,346,ls),
(215,411,o),
(251,452,o),
(309,452,cs),
(312,452,ls),
(370,452,o),
(407,411,o),
(407,346,cs),
(407,0,l),
(561,0,l),
(561,346,ls),
(561,411,o),
(598,452,o),
(656,452,cs),
(659,452,ls),
(717,452,o),
(753,411,o),
(753,346,cs),
(753,0,l),
(907,0,l),
(907,356,ls),
(907,495,o),
(818,591,o),
(688,591,cs),
(659,591,ls),
(592,591,o),
(526,559,o),
(485,511,c),
(448,559,o),
(389,591,o),
(329,591,cs),
(290,591,ls),
(154,591,o),
(61,495,o),
(61,356,cs),
(61,0,l)
);
}
);
userData = {
assembly = "NPUSHB[ ]	/* 10 values pushed */
39 26 25 8 7 5 2 0 1 76 
MPPEM[ ]	/* MeasurePixelPerEm */
PUSHB[ ]	/* 1 value pushed */
20 
LT[ ]	/* LessThan */
IF[ ]	/* If */
NPUSHB[ ]	/* 22 values pushed */
3 1 0 0 1 97 6 4 2 1 1 49 77 8 7 5 3 2 2 39 2 78 
ELSE[ ]	/* Else */
NPUSHB[ ]	/* 26 values pushed */
0 6 6 41 77 3 1 0 0 1 97 4 1 1 1 49 77 8 7 5 3 2 2 39 2 78 
EIF[ ]	/* EndIf */
NPUSHB[ ]	/* 16 values pushed */
36 36 36 40 36 40 18 20 38 35 20 38 34 9 8 29 
CALL[ ]	/* CallFunction */";
};
width = 962;
},
{
associatedMasterId = m004;
layerId = "936846B6-3385-4E86-A14D-ACC45901E8B0";
name = "24 Jun 24 at 16:51";
shapes = (
{
closed = 1;
nodes = (
(224,0,l),
(224,362,ls),
(224,412,o),
(262,444,o),
(322,444,cs),
(383,444,o),
(421,412,o),
(421,362,cs),
(421,0,l),
(583,0,l),
(583,362,ls),
(583,412,o),
(621,444,o),
(681,444,cs),
(741,444,o),
(779,412,o),
(779,362,cs),
(777,0,l),
(940,0,l),
(940,362,ls),
(940,503,o),
(849,590,o),
(704,590,cs),
(607,590,o),
(522,539,o),
(483,457,c),
(524,457,l),
(485,539,o),
(399,590,o),
(301,590,cs),
(154,590,o),
(62,503,o),
(62,362,cs),
(62,0,l)
);
}
);
userData = {
assembly = "NPUSHB[ ]	/* 10 values pushed */
39 26 25 8 7 5 2 0 1 76 
MPPEM[ ]	/* MeasurePixelPerEm */
PUSHB[ ]	/* 1 value pushed */
20 
LT[ ]	/* LessThan */
IF[ ]	/* If */
NPUSHB[ ]	/* 22 values pushed */
3 1 0 0 1 97 6 4 2 1 1 49 77 8 7 5 3 2 2 39 2 78 
ELSE[ ]	/* Else */
NPUSHB[ ]	/* 26 values pushed */
0 6 6 41 77 3 1 0 0 1 97 4 1 1 1 49 77 8 7 5 3 2 2 39 2 78 
EIF[ ]	/* EndIf */
NPUSHB[ ]	/* 16 values pushed */
36 36 36 40 36 40 18 20 38 35 20 38 34 9 8 29 
CALL[ ]	/* CallFunction */";
};
width = 997;
},
{
associatedMasterId = m004;
layerId = "DBE60483-D4DF-4E1F-8E69-076D6701589C";
name = "24 Jun 24 at 19:25";
shapes = (
{
closed = 1;
nodes = (
(224,0,l),
(224,340,ls),
(224,401,o),
(264,444,o),
(322,444,cs),
(380,444,o),
(421,401,o),
(421,340,cs),
(421,0,l),
(583,0,l),
(583,340,ls),
(583,401,o),
(623,444,o),
(681,444,cs),
(739,444,o),
(779,401,o),
(779,340,cs),
(777,0,l),
(940,0,l),
(940,340,ls),
(940,487,o),
(843,590,o),
(704,590,cs),
(607,590,o),
(522,539,o),
(483,457,c),
(524,457,l),
(485,539,o),
(399,590,o),
(301,590,cs),
(161,590,o),
(62,487,o),
(62,340,cs),
(62,0,l)
);
}
);
userData = {
assembly = "NPUSHB[ ]	/* 10 values pushed */
39 26 25 8 7 5 2 0 1 76 
MPPEM[ ]	/* MeasurePixelPerEm */
PUSHB[ ]	/* 1 value pushed */
20 
LT[ ]	/* LessThan */
IF[ ]	/* If */
NPUSHB[ ]	/* 22 values pushed */
3 1 0 0 1 97 6 4 2 1 1 49 77 8 7 5 3 2 2 39 2 78 
ELSE[ ]	/* Else */
NPUSHB[ ]	/* 26 values pushed */
0 6 6 41 77 3 1 0 0 1 97 4 1 1 1 49 77 8 7 5 3 2 2 39 2 78 
EIF[ ]	/* EndIf */
NPUSHB[ ]	/* 16 values pushed */
36 36 36 40 36 40 18 20 38 35 20 38 34 9 8 29 
CALL[ ]	/* CallFunction */";
};
width = 997;
},
{
layerId = m004;
shapes = (
{
closed = 1;
nodes = (
(495,0,l),
(495,372,ls),
(495,462,o),
(417,545,o),
(307,545,cs),
(222,545,o),
(157,491,o),
(128,390,c),
(136,294,l),
(136,407,o),
(197,504,o),
(297,504,cs),
(393,504,o),
(450,440,o),
(450,336,cs),
(450,0,l)
);
},
{
closed = 1;
nodes = (
(136,0,l),
(136,398,l),
(128,530,l),
(90,530,l),
(90,0,l)
);
},
{
closed = 1;
nodes = (
(854,0,l),
(854,344,ls),
(854,468,o),
(782,545,o),
(667,545,cs),
(581,545,o),
(516,497,o),
(481,384,c),
(495,298,l),
(495,411,o),
(556,504,o),
(657,504,cs),
(752,504,o),
(809,440,o),
(809,336,cs),
(809,0,l)
);
}
);
width = 940;
}
);
note = m;
unicode = 109;
},
{
glyphname = m.ss02;
kernLeft = KO_uacute;
lastChange = "2025-07-03 09:43:22 +0000";
layers = (
{
layerId = m002;
name = Bold;
shapes = (
{
closed = 1;
nodes = (
(223,0,l),
(223,311,ls),
(223,363,o),
(258,401,o),
(306,401,cs),
(356,401,o),
(391,362,o),
(391,311,cs),
(391,0,l),
(552,0,l),
(552,311,ls),
(552,363,o),
(587,401,o),
(636,401,cs),
(688,401,o),
(717,360,o),
(717,311,cs),
(717,0,l),
(881,0,l),
(881,311,ls),
(881,447,o),
(789,546,o),
(660,546,cs),
(569,546,o),
(490,498,o),
(453,425,c),
(493,425,l),
(457,496,o),
(379,546,o),
(284,546,cs),
(155,546,o),
(61,448,o),
(61,311,cs),
(61,0,l)
);
}
);
userData = {
assembly = "NPUSHB[ ]	/* 10 values pushed */
39 26 25 8 7 5 2 0 1 76 
MPPEM[ ]	/* MeasurePixelPerEm */
PUSHB[ ]	/* 1 value pushed */
20 
LT[ ]	/* LessThan */
IF[ ]	/* If */
NPUSHB[ ]	/* 22 values pushed */
3 1 0 0 1 97 6 4 2 1 1 49 77 8 7 5 3 2 2 39 2 78 
ELSE[ ]	/* Else */
NPUSHB[ ]	/* 26 values pushed */
0 6 6 41 77 3 1 0 0 1 97 4 1 1 1 49 77 8 7 5 3 2 2 39 2 78 
EIF[ ]	/* EndIf */
NPUSHB[ ]	/* 16 values pushed */
36 36 36 40 36 40 18 20 38 35 20 38 34 9 8 29 
CALL[ ]	/* CallFunction */";
};
width = 939;
},
{
layerId = m003;
name = Light;
shapes = (
{
closed = 1;
nodes = (
(172,-3,l),
(172,323,ls),
(172,411,o),
(225,469,o),
(306,469,cs),
(383,469,o),
(437,409,o),
(437,323,cs),
(437,-3,l),
(525,-3,l),
(525,323,ls),
(525,407,o),
(578,469,o),
(655,469,cs),
(741,469,o),
(788,406,o),
(788,323,cs),
(788,-3,l),
(875,-3,l),
(875,323,ls),
(875,460,o),
(795,548,o),
(664,548,cs),
(575,548,o),
(500,498,o),
(470,405,c),
(494,405,l),
(463,501,o),
(385,548,o),
(298,548,cs),
(167,548,o),
(84,461,o),
(84,323,cs),
(84,-3,l)
);
}
);
userData = {
assembly = "NPUSHB[ ]	/* 10 values pushed */
39 26 25 8 7 5 2 0 1 76 
MPPEM[ ]	/* MeasurePixelPerEm */
PUSHB[ ]	/* 1 value pushed */
20 
LT[ ]	/* LessThan */
IF[ ]	/* If */
NPUSHB[ ]	/* 22 values pushed */
3 1 0 0 1 97 6 4 2 1 1 49 77 8 7 5 3 2 2 39 2 78 
ELSE[ ]	/* Else */
NPUSHB[ ]	/* 26 values pushed */
0 6 6 41 77 3 1 0 0 1 97 4 1 1 1 49 77 8 7 5 3 2 2 39 2 78 
EIF[ ]	/* EndIf */
NPUSHB[ ]	/* 16 values pushed */
36 36 36 40 36 40 18 20 38 35 20 38 34 9 8 29 
CALL[ ]	/* CallFunction */";
};
width = 955;
},
{
layerId = m004;
name = Light;
shapes = (
{
closed = 1;
nodes = (
(137,0,l),
(137,328,ls),
(137,437,o),
(199,505,o),
(296,505,cs),
(386,505,o),
(449,431,o),
(449,328,cs),
(449,0,l),
(498,0,l),
(498,328,ls),
(498,430,o),
(561,505,o),
(651,505,cs),
(747,505,o),
(808,437,o),
(808,328,cs),
(808,0,l),
(855,0,l),
(855,328,ls),
(855,466,o),
(782,546,o),
(652,546,cs),
(565,546,o),
(493,495,o),
(467,391,c),
(483,391,l),
(457,494,o),
(386,546,o),
(296,546,cs),
(165,546,o),
(90,466,o),
(90,328,cs),
(90,0,l)
);
}
);
userData = {
assembly = "NPUSHB[ ]	/* 10 values pushed */
39 26 25 8 7 5 2 0 1 76 
MPPEM[ ]	/* MeasurePixelPerEm */
PUSHB[ ]	/* 1 value pushed */
20 
LT[ ]	/* LessThan */
IF[ ]	/* If */
NPUSHB[ ]	/* 22 values pushed */
3 1 0 0 1 97 6 4 2 1 1 49 77 8 7 5 3 2 2 39 2 78 
ELSE[ ]	/* Else */
NPUSHB[ ]	/* 26 values pushed */
0 6 6 41 77 3 1 0 0 1 97 4 1 1 1 49 77 8 7 5 3 2 2 39 2 78 
EIF[ ]	/* EndIf */
NPUSHB[ ]	/* 16 values pushed */
36 36 36 40 36 40 18 20 38 35 20 38 34 9 8 29 
CALL[ ]	/* CallFunction */";
};
width = 941;
}
);
metricLeft = m;
metricRight = m;
note = m;
userData = {
KernOnName = m.ss02;
};
},
{
glyphname = n;
kernLeft = KO_n;
kernRight = KO_n;
lastChange = "2025-07-03 09:43:30 +0000";
layers = (
{
associatedMasterId = m002;
layerId = "ECDD7895-F590-4979-B365-74C8EDCAE713";
name = "17 Jun 24 at 16:57";
shapes = (
{
closed = 1;
nodes = (
(215,0,l),
(215,346,ls),
(215,411,o),
(254,452,o),
(317,452,cs),
(320,452,ls),
(383,452,o),
(423,411,o),
(423,346,cs),
(423,0,l),
(577,0,l),
(577,356,ls),
(577,495,o),
(483,591,o),
(347,591,cs),
(292,591,ls),
(155,591,o),
(61,495,o),
(61,356,cs),
(61,0,l)
);
}
);
userData = {
assembly = "PUSHB[ ]	/* 8 values pushed */
13 12 3 3 1 2 1 76 
MPPEM[ ]	/* MeasurePixelPerEm */
PUSHB[ ]	/* 1 value pushed */
20 
LT[ ]	/* LessThan */
IF[ ]	/* If */
NPUSHB[ ]	/* 19 values pushed */
0 2 2 0 97 3 1 0 0 41 77 4 5 2 1 1 39 1 78 
ELSE[ ]	/* Else */
NPUSHB[ ]	/* 23 values pushed */
0 0 0 41 77 0 2 2 3 97 0 3 3 49 77 4 5 2 1 1 39 1 78 
EIF[ ]	/* EndIf */
NPUSHB[ ]	/* 16 values pushed */
0 0 22 21 17 15 9 7 0 4 0 4 17 6 8 23 
CALL[ ]	/* CallFunction */";
};
width = 632;
},
{
associatedMasterId = m002;
layerId = "39D55526-A78E-4F69-9687-D293C9C7F903";
name = "24 Jun 24 at 16:51";
shapes = (
{
closed = 1;
nodes = (
(224,0,l),
(224,363,ls),
(224,413,o),
(261,445,o),
(320,445,cs),
(379,445,o),
(416,413,o),
(416,363,cs),
(416,0,l),
(578,0,l),
(578,365,ls),
(578,500,o),
(478,585,o),
(320,585,cs),
(162,585,o),
(62,500,o),
(62,365,cs),
(62,0,l)
);
}
);
userData = {
assembly = "PUSHB[ ]	/* 8 values pushed */
13 12 3 3 1 2 1 76 
MPPEM[ ]	/* MeasurePixelPerEm */
PUSHB[ ]	/* 1 value pushed */
20 
LT[ ]	/* LessThan */
IF[ ]	/* If */
NPUSHB[ ]	/* 19 values pushed */
0 2 2 0 97 3 1 0 0 41 77 4 5 2 1 1 39 1 78 
ELSE[ ]	/* Else */
NPUSHB[ ]	/* 23 values pushed */
0 0 0 41 77 0 2 2 3 97 0 3 3 49 77 4 5 2 1 1 39 1 78 
EIF[ ]	/* EndIf */
NPUSHB[ ]	/* 16 values pushed */
0 0 22 21 17 15 9 7 0 4 0 4 17 6 8 23 
CALL[ ]	/* CallFunction */";
};
width = 635;
},
{
associatedMasterId = m002;
background = {
shapes = (
{
closed = 1;
nodes = (
(254,0,l),
(254,354,ls),
(254,389,o),
(290,428,o),
(320,428,qs),
(351,428,o),
(387,389,o),
(387,354,qs),
(387,0,l),
(552,0,l),
(552,358,ls),
(552,476,o),
(425,588,o),
(320,588,qs),
(216,588,o),
(89,476,o),
(89,358,qs),
(89,0,l)
);
}
);
};
layerId = "CC004E3C-6D6A-4B4A-AD6A-5150A50CEB6D";
name = "24 Jun 24 at 17:49";
shapes = (
{
closed = 1;
nodes = (
(224,0,l),
(224,343,ls),
(224,406,o),
(261,445,o),
(320,445,cs),
(379,445,o),
(416,406,o),
(416,343,cs),
(416,0,l),
(578,0,l),
(578,355,ls),
(578,509,o),
(485,585,o),
(320,585,cs),
(155,585,o),
(62,509,o),
(62,355,cs),
(62,0,l)
);
}
);
userData = {
assembly = "PUSHB[ ]	/* 8 values pushed */
13 12 3 3 1 2 1 76 
MPPEM[ ]	/* MeasurePixelPerEm */
PUSHB[ ]	/* 1 value pushed */
20 
LT[ ]	/* LessThan */
IF[ ]	/* If */
NPUSHB[ ]	/* 19 values pushed */
0 2 2 0 97 3 1 0 0 41 77 4 5 2 1 1 39 1 78 
ELSE[ ]	/* Else */
NPUSHB[ ]	/* 23 values pushed */
0 0 0 41 77 0 2 2 3 97 0 3 3 49 77 4 5 2 1 1 39 1 78 
EIF[ ]	/* EndIf */
NPUSHB[ ]	/* 16 values pushed */
0 0 22 21 17 15 9 7 0 4 0 4 17 6 8 23 
CALL[ ]	/* CallFunction */";
};
width = 635;
},
{
associatedMasterId = m002;
background = {
shapes = (
{
closed = 1;
nodes = (
(64,0,l),
(215,0,l),
(215,335,ls),
(215,368,o),
(225,395,o),
(243,416,cs),
(261,437,o),
(287,447,o),
(320,447,cs),
(352,447,o),
(378,437,o),
(396,416,cs),
(414,395,o),
(424,368,o),
(424,335,cs),
(424,0,l),
(576,0,l),
(576,341,ls),
(576,417,o),
(552,476,o),
(506,520,cs),
(459,563,o),
(397,584,o),
(320,584,cs),
(243,584,o),
(181,563,o),
(134,520,cs),
(88,476,o),
(64,417,o),
(64,341,cs)
);
}
);
};
layerId = "7FCEEBB3-849A-4AD3-AE4A-79DDE52EFB0F";
name = "24 Jun 24 at 19:18";
shapes = (
{
closed = 1;
nodes = (
(224,0,l),
(224,333,ls),
(224,405,o),
(264,445,o),
(320,445,cs),
(377,445,o),
(416,405,o),
(416,333,cs),
(416,0,l),
(578,0,l),
(578,335,ls),
(578,489,o),
(478,585,o),
(320,585,cs),
(162,585,o),
(62,489,o),
(62,335,cs),
(62,0,l)
);
}
);
userData = {
assembly = "PUSHB[ ]	/* 8 values pushed */
13 12 3 3 1 2 1 76 
MPPEM[ ]	/* MeasurePixelPerEm */
PUSHB[ ]	/* 1 value pushed */
20 
LT[ ]	/* LessThan */
IF[ ]	/* If */
NPUSHB[ ]	/* 19 values pushed */
0 2 2 0 97 3 1 0 0 41 77 4 5 2 1 1 39 1 78 
ELSE[ ]	/* Else */
NPUSHB[ ]	/* 23 values pushed */
0 0 0 41 77 0 2 2 3 97 0 3 3 49 77 4 5 2 1 1 39 1 78 
EIF[ ]	/* EndIf */
NPUSHB[ ]	/* 16 values pushed */
0 0 22 21 17 15 9 7 0 4 0 4 17 6 8 23 
CALL[ ]	/* CallFunction */";
};
width = 635;
},
{
anchors = (
{
name = bottom;
pos = (303,0);
},
{
name = top;
pos = (303,530);
}
);
layerId = m002;
name = Bold;
shapes = (
{
closed = 1;
nodes = (
(548,0,l),
(548,346,ls),
(548,464,o),
(472,546,o),
(353,546,cs),
(265,546,o),
(202,485,o),
(176,394,c),
(215,301,l),
(215,365,o),
(247,407,o),
(301,407,cs),
(353,407,o),
(386,370,o),
(386,313,cs),
(386,0,l)
);
},
{
closed = 1;
nodes = (
(222,0,l),
(222,401,l),
(205,530,l),
(61,530,l),
(61,0,l)
);
}
);
userData = {
assembly = "PUSHB[ ]	/* 8 values pushed */
13 12 3 3 1 2 1 76 
MPPEM[ ]	/* MeasurePixelPerEm */
PUSHB[ ]	/* 1 value pushed */
20 
LT[ ]	/* LessThan */
IF[ ]	/* If */
NPUSHB[ ]	/* 19 values pushed */
0 2 2 0 97 3 1 0 0 41 77 4 5 2 1 1 39 1 78 
ELSE[ ]	/* Else */
NPUSHB[ ]	/* 23 values pushed */
0 0 0 41 77 0 2 2 3 97 0 3 3 49 77 4 5 2 1 1 39 1 78 
EIF[ ]	/* EndIf */
NPUSHB[ ]	/* 16 values pushed */
0 0 22 21 17 15 9 7 0 4 0 4 17 6 8 23 
CALL[ ]	/* CallFunction */";
};
width = 606;
},
{
associatedMasterId = m003;
layerId = "95668F65-C28F-47EC-B4BD-6C9A3DF3DF54";
name = "17 Jun 24 at 16:57";
shapes = (
{
closed = 1;
nodes = (
(215,0,l),
(215,346,ls),
(215,411,o),
(254,452,o),
(317,452,cs),
(320,452,ls),
(383,452,o),
(423,411,o),
(423,346,cs),
(423,0,l),
(577,0,l),
(577,356,ls),
(577,495,o),
(483,591,o),
(347,591,cs),
(292,591,ls),
(155,591,o),
(61,495,o),
(61,356,cs),
(61,0,l)
);
}
);
userData = {
assembly = "PUSHB[ ]	/* 8 values pushed */
13 12 3 3 1 2 1 76 
MPPEM[ ]	/* MeasurePixelPerEm */
PUSHB[ ]	/* 1 value pushed */
20 
LT[ ]	/* LessThan */
IF[ ]	/* If */
NPUSHB[ ]	/* 19 values pushed */
0 2 2 0 97 3 1 0 0 41 77 4 5 2 1 1 39 1 78 
ELSE[ ]	/* Else */
NPUSHB[ ]	/* 23 values pushed */
0 0 0 41 77 0 2 2 3 97 0 3 3 49 77 4 5 2 1 1 39 1 78 
EIF[ ]	/* EndIf */
NPUSHB[ ]	/* 16 values pushed */
0 0 22 21 17 15 9 7 0 4 0 4 17 6 8 23 
CALL[ ]	/* CallFunction */";
};
width = 632;
},
{
associatedMasterId = m003;
layerId = "1AD44EA8-44DB-4BA9-AB9D-CEC008271637";
name = "24 Jun 24 at 16:51";
shapes = (
{
closed = 1;
nodes = (
(224,0,l),
(224,363,ls),
(224,413,o),
(261,445,o),
(320,445,cs),
(379,445,o),
(416,413,o),
(416,363,cs),
(416,0,l),
(578,0,l),
(578,365,ls),
(578,500,o),
(478,585,o),
(320,585,cs),
(162,585,o),
(62,500,o),
(62,365,cs),
(62,0,l)
);
}
);
userData = {
assembly = "PUSHB[ ]	/* 8 values pushed */
13 12 3 3 1 2 1 76 
MPPEM[ ]	/* MeasurePixelPerEm */
PUSHB[ ]	/* 1 value pushed */
20 
LT[ ]	/* LessThan */
IF[ ]	/* If */
NPUSHB[ ]	/* 19 values pushed */
0 2 2 0 97 3 1 0 0 41 77 4 5 2 1 1 39 1 78 
ELSE[ ]	/* Else */
NPUSHB[ ]	/* 23 values pushed */
0 0 0 41 77 0 2 2 3 97 0 3 3 49 77 4 5 2 1 1 39 1 78 
EIF[ ]	/* EndIf */
NPUSHB[ ]	/* 16 values pushed */
0 0 22 21 17 15 9 7 0 4 0 4 17 6 8 23 
CALL[ ]	/* CallFunction */";
};
width = 635;
},
{
associatedMasterId = m003;
background = {
shapes = (
{
closed = 1;
nodes = (
(254,0,l),
(254,354,ls),
(254,389,o),
(290,428,o),
(320,428,qs),
(351,428,o),
(387,389,o),
(387,354,qs),
(387,0,l),
(552,0,l),
(552,358,ls),
(552,476,o),
(425,588,o),
(320,588,qs),
(216,588,o),
(89,476,o),
(89,358,qs),
(89,0,l)
);
}
);
};
layerId = "2DC4FFB6-BD34-4CCD-987B-A7E4246DA60A";
name = "24 Jun 24 at 17:49";
shapes = (
{
closed = 1;
nodes = (
(224,0,l),
(224,343,ls),
(224,406,o),
(261,445,o),
(320,445,cs),
(379,445,o),
(416,406,o),
(416,343,cs),
(416,0,l),
(578,0,l),
(578,355,ls),
(578,509,o),
(485,585,o),
(320,585,cs),
(155,585,o),
(62,509,o),
(62,355,cs),
(62,0,l)
);
}
);
userData = {
assembly = "PUSHB[ ]	/* 8 values pushed */
13 12 3 3 1 2 1 76 
MPPEM[ ]	/* MeasurePixelPerEm */
PUSHB[ ]	/* 1 value pushed */
20 
LT[ ]	/* LessThan */
IF[ ]	/* If */
NPUSHB[ ]	/* 19 values pushed */
0 2 2 0 97 3 1 0 0 41 77 4 5 2 1 1 39 1 78 
ELSE[ ]	/* Else */
NPUSHB[ ]	/* 23 values pushed */
0 0 0 41 77 0 2 2 3 97 0 3 3 49 77 4 5 2 1 1 39 1 78 
EIF[ ]	/* EndIf */
NPUSHB[ ]	/* 16 values pushed */
0 0 22 21 17 15 9 7 0 4 0 4 17 6 8 23 
CALL[ ]	/* CallFunction */";
};
width = 635;
},
{
associatedMasterId = m003;
background = {
shapes = (
{
closed = 1;
nodes = (
(64,0,l),
(215,0,l),
(215,335,ls),
(215,368,o),
(225,395,o),
(243,416,cs),
(261,437,o),
(287,447,o),
(320,447,cs),
(352,447,o),
(378,437,o),
(396,416,cs),
(414,395,o),
(424,368,o),
(424,335,cs),
(424,0,l),
(576,0,l),
(576,341,ls),
(576,417,o),
(552,476,o),
(506,520,cs),
(459,563,o),
(397,584,o),
(320,584,cs),
(243,584,o),
(181,563,o),
(134,520,cs),
(88,476,o),
(64,417,o),
(64,341,cs)
);
}
);
};
layerId = "371A4710-7FC2-49A4-B322-4AECCF809F49";
name = "24 Jun 24 at 19:18";
shapes = (
{
closed = 1;
nodes = (
(224,0,l),
(224,333,ls),
(224,405,o),
(264,445,o),
(320,445,cs),
(377,445,o),
(416,405,o),
(416,333,cs),
(416,0,l),
(578,0,l),
(578,335,ls),
(578,489,o),
(478,585,o),
(320,585,cs),
(162,585,o),
(62,489,o),
(62,335,cs),
(62,0,l)
);
}
);
userData = {
assembly = "PUSHB[ ]	/* 8 values pushed */
13 12 3 3 1 2 1 76 
MPPEM[ ]	/* MeasurePixelPerEm */
PUSHB[ ]	/* 1 value pushed */
20 
LT[ ]	/* LessThan */
IF[ ]	/* If */
NPUSHB[ ]	/* 19 values pushed */
0 2 2 0 97 3 1 0 0 41 77 4 5 2 1 1 39 1 78 
ELSE[ ]	/* Else */
NPUSHB[ ]	/* 23 values pushed */
0 0 0 41 77 0 2 2 3 97 0 3 3 49 77 4 5 2 1 1 39 1 78 
EIF[ ]	/* EndIf */
NPUSHB[ ]	/* 16 values pushed */
0 0 22 21 17 15 9 7 0 4 0 4 17 6 8 23 
CALL[ ]	/* CallFunction */";
};
width = 635;
},
{
anchors = (
{
name = bottom;
pos = (299,0);
},
{
name = top;
pos = (299,530);
}
);
layerId = m003;
shapes = (
{
closed = 1;
nodes = (
(518,0,l),
(518,344,ls),
(518,466,o),
(443,545,o),
(327,545,cs),
(246,545,o),
(183,494,o),
(155,392,c),
(175,298,l),
(175,389,o),
(221,465,o),
(302,465,cs),
(379,465,o),
(427,411,o),
(427,326,cs),
(427,0,l)
);
},
{
closed = 1;
nodes = (
(175,0,l),
(175,399,l),
(165,530,l),
(84,530,l),
(84,0,l)
);
}
);
width = 597;
},
{
associatedMasterId = m004;
layerId = "58E501C8-9B3E-4FA3-9479-0B1DFEE5E5C6";
name = "17 Jun 24 at 16:57";
shapes = (
{
closed = 1;
nodes = (
(215,0,l),
(215,346,ls),
(215,411,o),
(254,452,o),
(317,452,cs),
(320,452,ls),
(383,452,o),
(423,411,o),
(423,346,cs),
(423,0,l),
(577,0,l),
(577,356,ls),
(577,495,o),
(483,591,o),
(347,591,cs),
(292,591,ls),
(155,591,o),
(61,495,o),
(61,356,cs),
(61,0,l)
);
}
);
userData = {
assembly = "PUSHB[ ]	/* 8 values pushed */
13 12 3 3 1 2 1 76 
MPPEM[ ]	/* MeasurePixelPerEm */
PUSHB[ ]	/* 1 value pushed */
20 
LT[ ]	/* LessThan */
IF[ ]	/* If */
NPUSHB[ ]	/* 19 values pushed */
0 2 2 0 97 3 1 0 0 41 77 4 5 2 1 1 39 1 78 
ELSE[ ]	/* Else */
NPUSHB[ ]	/* 23 values pushed */
0 0 0 41 77 0 2 2 3 97 0 3 3 49 77 4 5 2 1 1 39 1 78 
EIF[ ]	/* EndIf */
NPUSHB[ ]	/* 16 values pushed */
0 0 22 21 17 15 9 7 0 4 0 4 17 6 8 23 
CALL[ ]	/* CallFunction */";
};
width = 632;
},
{
associatedMasterId = m004;
layerId = "FC73D1BE-6E23-44E4-A093-B87A5066E086";
name = "24 Jun 24 at 16:51";
shapes = (
{
closed = 1;
nodes = (
(224,0,l),
(224,363,ls),
(224,413,o),
(261,445,o),
(320,445,cs),
(379,445,o),
(416,413,o),
(416,363,cs),
(416,0,l),
(578,0,l),
(578,365,ls),
(578,500,o),
(478,585,o),
(320,585,cs),
(162,585,o),
(62,500,o),
(62,365,cs),
(62,0,l)
);
}
);
userData = {
assembly = "PUSHB[ ]	/* 8 values pushed */
13 12 3 3 1 2 1 76 
MPPEM[ ]	/* MeasurePixelPerEm */
PUSHB[ ]	/* 1 value pushed */
20 
LT[ ]	/* LessThan */
IF[ ]	/* If */
NPUSHB[ ]	/* 19 values pushed */
0 2 2 0 97 3 1 0 0 41 77 4 5 2 1 1 39 1 78 
ELSE[ ]	/* Else */
NPUSHB[ ]	/* 23 values pushed */
0 0 0 41 77 0 2 2 3 97 0 3 3 49 77 4 5 2 1 1 39 1 78 
EIF[ ]	/* EndIf */
NPUSHB[ ]	/* 16 values pushed */
0 0 22 21 17 15 9 7 0 4 0 4 17 6 8 23 
CALL[ ]	/* CallFunction */";
};
width = 635;
},
{
associatedMasterId = m004;
background = {
shapes = (
{
closed = 1;
nodes = (
(254,0,l),
(254,354,ls),
(254,389,o),
(290,428,o),
(320,428,qs),
(351,428,o),
(387,389,o),
(387,354,qs),
(387,0,l),
(552,0,l),
(552,358,ls),
(552,476,o),
(425,588,o),
(320,588,qs),
(216,588,o),
(89,476,o),
(89,358,qs),
(89,0,l)
);
}
);
};
layerId = "119D7BD3-B04B-4AF0-9C63-FC4B0BDC89F6";
name = "24 Jun 24 at 17:49";
shapes = (
{
closed = 1;
nodes = (
(224,0,l),
(224,343,ls),
(224,406,o),
(261,445,o),
(320,445,cs),
(379,445,o),
(416,406,o),
(416,343,cs),
(416,0,l),
(578,0,l),
(578,355,ls),
(578,509,o),
(485,585,o),
(320,585,cs),
(155,585,o),
(62,509,o),
(62,355,cs),
(62,0,l)
);
}
);
userData = {
assembly = "PUSHB[ ]	/* 8 values pushed */
13 12 3 3 1 2 1 76 
MPPEM[ ]	/* MeasurePixelPerEm */
PUSHB[ ]	/* 1 value pushed */
20 
LT[ ]	/* LessThan */
IF[ ]	/* If */
NPUSHB[ ]	/* 19 values pushed */
0 2 2 0 97 3 1 0 0 41 77 4 5 2 1 1 39 1 78 
ELSE[ ]	/* Else */
NPUSHB[ ]	/* 23 values pushed */
0 0 0 41 77 0 2 2 3 97 0 3 3 49 77 4 5 2 1 1 39 1 78 
EIF[ ]	/* EndIf */
NPUSHB[ ]	/* 16 values pushed */
0 0 22 21 17 15 9 7 0 4 0 4 17 6 8 23 
CALL[ ]	/* CallFunction */";
};
width = 635;
},
{
associatedMasterId = m004;
background = {
shapes = (
{
closed = 1;
nodes = (
(64,0,l),
(215,0,l),
(215,335,ls),
(215,368,o),
(225,395,o),
(243,416,cs),
(261,437,o),
(287,447,o),
(320,447,cs),
(352,447,o),
(378,437,o),
(396,416,cs),
(414,395,o),
(424,368,o),
(424,335,cs),
(424,0,l),
(576,0,l),
(576,341,ls),
(576,417,o),
(552,476,o),
(506,520,cs),
(459,563,o),
(397,584,o),
(320,584,cs),
(243,584,o),
(181,563,o),
(134,520,cs),
(88,476,o),
(64,417,o),
(64,341,cs)
);
}
);
};
layerId = "437B4DEF-71A4-4A3A-9F7F-E5146DBD455B";
name = "24 Jun 24 at 19:18";
shapes = (
{
closed = 1;
nodes = (
(224,0,l),
(224,333,ls),
(224,405,o),
(264,445,o),
(320,445,cs),
(377,445,o),
(416,405,o),
(416,333,cs),
(416,0,l),
(578,0,l),
(578,335,ls),
(578,489,o),
(478,585,o),
(320,585,cs),
(162,585,o),
(62,489,o),
(62,335,cs),
(62,0,l)
);
}
);
userData = {
assembly = "PUSHB[ ]	/* 8 values pushed */
13 12 3 3 1 2 1 76 
MPPEM[ ]	/* MeasurePixelPerEm */
PUSHB[ ]	/* 1 value pushed */
20 
LT[ ]	/* LessThan */
IF[ ]	/* If */
NPUSHB[ ]	/* 19 values pushed */
0 2 2 0 97 3 1 0 0 41 77 4 5 2 1 1 39 1 78 
ELSE[ ]	/* Else */
NPUSHB[ ]	/* 23 values pushed */
0 0 0 41 77 0 2 2 3 97 0 3 3 49 77 4 5 2 1 1 39 1 78 
EIF[ ]	/* EndIf */
NPUSHB[ ]	/* 16 values pushed */
0 0 22 21 17 15 9 7 0 4 0 4 17 6 8 23 
CALL[ ]	/* CallFunction */";
};
width = 635;
},
{
anchors = (
{
name = bottom;
pos = (291,0);
},
{
name = top;
pos = (291,530);
}
);
layerId = m004;
shapes = (
{
closed = 1;
nodes = (
(498,0,l),
(498,344,ls),
(498,468,o),
(424,545,o),
(307,545,cs),
(222,545,o),
(157,493,o),
(129,391,c),
(136,298,l),
(136,407,o),
(196,503,o),
(298,503,cs),
(393,503,o),
(452,440,o),
(452,336,cs),
(452,0,l)
);
},
{
closed = 1;
nodes = (
(136,0,l),
(136,397,l),
(128,530,l),
(90,530,l),
(90,0,l)
);
}
);
width = 582;
}
);
note = n;
unicode = 110;
},
{
glyphname = n.ss02;
lastChange = "2025-03-16 19:02:43 +0000";
layers = (
{
associatedMasterId = m002;
layerId = "25965C1B-7F9C-4037-A4B2-FDFB8CDED238";
name = "17 Jun 24 at 16:57";
shapes = (
{
closed = 1;
nodes = (
(215,0,l),
(215,346,ls),
(215,411,o),
(254,452,o),
(317,452,cs),
(320,452,ls),
(383,452,o),
(423,411,o),
(423,346,cs),
(423,0,l),
(577,0,l),
(577,356,ls),
(577,495,o),
(483,591,o),
(347,591,cs),
(292,591,ls),
(155,591,o),
(61,495,o),
(61,356,cs),
(61,0,l)
);
}
);
userData = {
assembly = "PUSHB[ ]	/* 8 values pushed */
13 12 3 3 1 2 1 76 
MPPEM[ ]	/* MeasurePixelPerEm */
PUSHB[ ]	/* 1 value pushed */
20 
LT[ ]	/* LessThan */
IF[ ]	/* If */
NPUSHB[ ]	/* 19 values pushed */
0 2 2 0 97 3 1 0 0 41 77 4 5 2 1 1 39 1 78 
ELSE[ ]	/* Else */
NPUSHB[ ]	/* 23 values pushed */
0 0 0 41 77 0 2 2 3 97 0 3 3 49 77 4 5 2 1 1 39 1 78 
EIF[ ]	/* EndIf */
NPUSHB[ ]	/* 16 values pushed */
0 0 22 21 17 15 9 7 0 4 0 4 17 6 8 23 
CALL[ ]	/* CallFunction */";
};
width = 632;
},
{
associatedMasterId = m002;
layerId = "36178E54-B38F-4CEE-9177-6CE47AD212B7";
name = "24 Jun 24 at 16:05";
shapes = (
{
closed = 1;
nodes = (
(224,0,l),
(224,431,l),
(206,570,l),
(62,570,l),
(62,0,l)
);
},
{
closed = 1;
nodes = (
(578,0,l),
(578,372,ls),
(578,498,o),
(497,585,o),
(369,585,cs),
(277,585,o),
(207,524,o),
(178,423,c),
(216,324,l),
(216,397,o),
(254,446,o),
(317,446,cs),
(378,446,o),
(416,404,o),
(416,339,cs),
(416,0,l)
);
}
);
userData = {
assembly = "PUSHB[ ]	/* 8 values pushed */
13 12 3 3 1 2 1 76 
MPPEM[ ]	/* MeasurePixelPerEm */
PUSHB[ ]	/* 1 value pushed */
20 
LT[ ]	/* LessThan */
IF[ ]	/* If */
NPUSHB[ ]	/* 19 values pushed */
0 2 2 0 97 3 1 0 0 41 77 4 5 2 1 1 39 1 78 
ELSE[ ]	/* Else */
NPUSHB[ ]	/* 23 values pushed */
0 0 0 41 77 0 2 2 3 97 0 3 3 49 77 4 5 2 1 1 39 1 78 
EIF[ ]	/* EndIf */
NPUSHB[ ]	/* 16 values pushed */
0 0 22 21 17 15 9 7 0 4 0 4 17 6 8 23 
CALL[ ]	/* CallFunction */";
};
width = 635;
},
{
associatedMasterId = m002;
layerId = "417A2AB4-3238-4D57-9147-EE317A530C4A";
name = "24 Jun 24 at 16:51";
shapes = (
{
closed = 1;
nodes = (
(224,0,l),
(224,363,ls),
(224,413,o),
(261,445,o),
(320,445,cs),
(379,445,o),
(416,413,o),
(416,363,cs),
(416,0,l),
(578,0,l),
(578,365,ls),
(578,500,o),
(478,585,o),
(320,585,cs),
(162,585,o),
(62,500,o),
(62,365,cs),
(62,0,l)
);
}
);
userData = {
assembly = "PUSHB[ ]	/* 8 values pushed */
13 12 3 3 1 2 1 76 
MPPEM[ ]	/* MeasurePixelPerEm */
PUSHB[ ]	/* 1 value pushed */
20 
LT[ ]	/* LessThan */
IF[ ]	/* If */
NPUSHB[ ]	/* 19 values pushed */
0 2 2 0 97 3 1 0 0 41 77 4 5 2 1 1 39 1 78 
ELSE[ ]	/* Else */
NPUSHB[ ]	/* 23 values pushed */
0 0 0 41 77 0 2 2 3 97 0 3 3 49 77 4 5 2 1 1 39 1 78 
EIF[ ]	/* EndIf */
NPUSHB[ ]	/* 16 values pushed */
0 0 22 21 17 15 9 7 0 4 0 4 17 6 8 23 
CALL[ ]	/* CallFunction */";
};
width = 635;
},
{
associatedMasterId = m002;
background = {
shapes = (
{
closed = 1;
nodes = (
(254,0,l),
(254,354,ls),
(254,389,o),
(290,428,o),
(320,428,qs),
(351,428,o),
(387,389,o),
(387,354,qs),
(387,0,l),
(552,0,l),
(552,358,ls),
(552,476,o),
(425,588,o),
(320,588,qs),
(216,588,o),
(89,476,o),
(89,358,qs),
(89,0,l)
);
}
);
};
layerId = "06E089F6-CD7B-4E3F-A6BC-9FA51B8F6938";
name = "24 Jun 24 at 17:49";
shapes = (
{
closed = 1;
nodes = (
(224,0,l),
(224,343,ls),
(224,406,o),
(261,445,o),
(320,445,cs),
(379,445,o),
(416,406,o),
(416,343,cs),
(416,0,l),
(578,0,l),
(578,355,ls),
(578,509,o),
(485,585,o),
(320,585,cs),
(155,585,o),
(62,509,o),
(62,355,cs),
(62,0,l)
);
}
);
userData = {
assembly = "PUSHB[ ]	/* 8 values pushed */
13 12 3 3 1 2 1 76 
MPPEM[ ]	/* MeasurePixelPerEm */
PUSHB[ ]	/* 1 value pushed */
20 
LT[ ]	/* LessThan */
IF[ ]	/* If */
NPUSHB[ ]	/* 19 values pushed */
0 2 2 0 97 3 1 0 0 41 77 4 5 2 1 1 39 1 78 
ELSE[ ]	/* Else */
NPUSHB[ ]	/* 23 values pushed */
0 0 0 41 77 0 2 2 3 97 0 3 3 49 77 4 5 2 1 1 39 1 78 
EIF[ ]	/* EndIf */
NPUSHB[ ]	/* 16 values pushed */
0 0 22 21 17 15 9 7 0 4 0 4 17 6 8 23 
CALL[ ]	/* CallFunction */";
};
width = 635;
},
{
layerId = m002;
name = Bold;
shapes = (
{
closed = 1;
nodes = (
(222,0,l),
(222,307,ls),
(222,370,o),
(257,406,o),
(304,406,cs),
(353,406,o),
(386,370,o),
(386,307,cs),
(386,0,l),
(548,0,l),
(548,308,ls),
(548,455,o),
(453,546,o),
(304,546,cs),
(156,546,o),
(61,455,o),
(61,308,cs),
(61,0,l)
);
}
);
userData = {
assembly = "PUSHB[ ]	/* 8 values pushed */
13 12 3 3 1 2 1 76 
MPPEM[ ]	/* MeasurePixelPerEm */
PUSHB[ ]	/* 1 value pushed */
20 
LT[ ]	/* LessThan */
IF[ ]	/* If */
NPUSHB[ ]	/* 19 values pushed */
0 2 2 0 97 3 1 0 0 41 77 4 5 2 1 1 39 1 78 
ELSE[ ]	/* Else */
NPUSHB[ ]	/* 23 values pushed */
0 0 0 41 77 0 2 2 3 97 0 3 3 49 77 4 5 2 1 1 39 1 78 
EIF[ ]	/* EndIf */
NPUSHB[ ]	/* 16 values pushed */
0 0 22 21 17 15 9 7 0 4 0 4 17 6 8 23 
CALL[ ]	/* CallFunction */";
};
width = 606;
},
{
layerId = m003;
shapes = (
{
closed = 1;
nodes = (
(171,-3,l),
(171,323,ls),
(171,413,o),
(224,466,o),
(302,466,cs),
(381,466,o),
(433,412,o),
(433,323,cs),
(433,-3,l),
(520,-3,l),
(520,328,ls),
(520,460,o),
(435,544,o),
(302,544,cs),
(169,544,o),
(84,460,o),
(84,328,cs),
(84,-3,l)
);
}
);
width = 599;
},
{
associatedMasterId = m003;
layerId = "5A56D9C8-6D38-4D50-9619-421A1275AF94";
name = "17 Jun 24 at 16:57";
shapes = (
{
closed = 1;
nodes = (
(215,0,l),
(215,346,ls),
(215,411,o),
(254,452,o),
(317,452,cs),
(320,452,ls),
(383,452,o),
(423,411,o),
(423,346,cs),
(423,0,l),
(577,0,l),
(577,356,ls),
(577,495,o),
(483,591,o),
(347,591,cs),
(292,591,ls),
(155,591,o),
(61,495,o),
(61,356,cs),
(61,0,l)
);
}
);
userData = {
assembly = "PUSHB[ ]	/* 8 values pushed */
13 12 3 3 1 2 1 76 
MPPEM[ ]	/* MeasurePixelPerEm */
PUSHB[ ]	/* 1 value pushed */
20 
LT[ ]	/* LessThan */
IF[ ]	/* If */
NPUSHB[ ]	/* 19 values pushed */
0 2 2 0 97 3 1 0 0 41 77 4 5 2 1 1 39 1 78 
ELSE[ ]	/* Else */
NPUSHB[ ]	/* 23 values pushed */
0 0 0 41 77 0 2 2 3 97 0 3 3 49 77 4 5 2 1 1 39 1 78 
EIF[ ]	/* EndIf */
NPUSHB[ ]	/* 16 values pushed */
0 0 22 21 17 15 9 7 0 4 0 4 17 6 8 23 
CALL[ ]	/* CallFunction */";
};
width = 632;
},
{
associatedMasterId = m003;
layerId = "5C8B348E-E86F-4496-9607-27CEE4998550";
name = "24 Jun 24 at 16:05";
shapes = (
{
closed = 1;
nodes = (
(224,0,l),
(224,431,l),
(206,570,l),
(62,570,l),
(62,0,l)
);
},
{
closed = 1;
nodes = (
(578,0,l),
(578,372,ls),
(578,498,o),
(497,585,o),
(369,585,cs),
(277,585,o),
(207,524,o),
(178,423,c),
(216,324,l),
(216,397,o),
(254,446,o),
(317,446,cs),
(378,446,o),
(416,404,o),
(416,339,cs),
(416,0,l)
);
}
);
userData = {
assembly = "PUSHB[ ]	/* 8 values pushed */
13 12 3 3 1 2 1 76 
MPPEM[ ]	/* MeasurePixelPerEm */
PUSHB[ ]	/* 1 value pushed */
20 
LT[ ]	/* LessThan */
IF[ ]	/* If */
NPUSHB[ ]	/* 19 values pushed */
0 2 2 0 97 3 1 0 0 41 77 4 5 2 1 1 39 1 78 
ELSE[ ]	/* Else */
NPUSHB[ ]	/* 23 values pushed */
0 0 0 41 77 0 2 2 3 97 0 3 3 49 77 4 5 2 1 1 39 1 78 
EIF[ ]	/* EndIf */
NPUSHB[ ]	/* 16 values pushed */
0 0 22 21 17 15 9 7 0 4 0 4 17 6 8 23 
CALL[ ]	/* CallFunction */";
};
width = 635;
},
{
associatedMasterId = m003;
layerId = "708AA512-2867-45BE-8683-10B0B5E08B52";
name = "24 Jun 24 at 16:51";
shapes = (
{
closed = 1;
nodes = (
(224,0,l),
(224,363,ls),
(224,413,o),
(261,445,o),
(320,445,cs),
(379,445,o),
(416,413,o),
(416,363,cs),
(416,0,l),
(578,0,l),
(578,365,ls),
(578,500,o),
(478,585,o),
(320,585,cs),
(162,585,o),
(62,500,o),
(62,365,cs),
(62,0,l)
);
}
);
userData = {
assembly = "PUSHB[ ]	/* 8 values pushed */
13 12 3 3 1 2 1 76 
MPPEM[ ]	/* MeasurePixelPerEm */
PUSHB[ ]	/* 1 value pushed */
20 
LT[ ]	/* LessThan */
IF[ ]	/* If */
NPUSHB[ ]	/* 19 values pushed */
0 2 2 0 97 3 1 0 0 41 77 4 5 2 1 1 39 1 78 
ELSE[ ]	/* Else */
NPUSHB[ ]	/* 23 values pushed */
0 0 0 41 77 0 2 2 3 97 0 3 3 49 77 4 5 2 1 1 39 1 78 
EIF[ ]	/* EndIf */
NPUSHB[ ]	/* 16 values pushed */
0 0 22 21 17 15 9 7 0 4 0 4 17 6 8 23 
CALL[ ]	/* CallFunction */";
};
width = 635;
},
{
associatedMasterId = m003;
background = {
shapes = (
{
closed = 1;
nodes = (
(254,0,l),
(254,354,ls),
(254,389,o),
(290,428,o),
(320,428,qs),
(351,428,o),
(387,389,o),
(387,354,qs),
(387,0,l),
(552,0,l),
(552,358,ls),
(552,476,o),
(425,588,o),
(320,588,qs),
(216,588,o),
(89,476,o),
(89,358,qs),
(89,0,l)
);
}
);
};
layerId = "7804F557-3A9C-4904-B8DD-791377916E0D";
name = "24 Jun 24 at 17:49";
shapes = (
{
closed = 1;
nodes = (
(224,0,l),
(224,343,ls),
(224,406,o),
(261,445,o),
(320,445,cs),
(379,445,o),
(416,406,o),
(416,343,cs),
(416,0,l),
(578,0,l),
(578,355,ls),
(578,509,o),
(485,585,o),
(320,585,cs),
(155,585,o),
(62,509,o),
(62,355,cs),
(62,0,l)
);
}
);
userData = {
assembly = "PUSHB[ ]	/* 8 values pushed */
13 12 3 3 1 2 1 76 
MPPEM[ ]	/* MeasurePixelPerEm */
PUSHB[ ]	/* 1 value pushed */
20 
LT[ ]	/* LessThan */
IF[ ]	/* If */
NPUSHB[ ]	/* 19 values pushed */
0 2 2 0 97 3 1 0 0 41 77 4 5 2 1 1 39 1 78 
ELSE[ ]	/* Else */
NPUSHB[ ]	/* 23 values pushed */
0 0 0 41 77 0 2 2 3 97 0 3 3 49 77 4 5 2 1 1 39 1 78 
EIF[ ]	/* EndIf */
NPUSHB[ ]	/* 16 values pushed */
0 0 22 21 17 15 9 7 0 4 0 4 17 6 8 23 
CALL[ ]	/* CallFunction */";
};
width = 635;
},
{
layerId = m004;
shapes = (
{
closed = 1;
nodes = (
(136,0,l),
(136,335,ls),
(136,439,o),
(196,503,o),
(291,503,cs),
(386,503,o),
(446,439,o),
(446,335,cs),
(446,0,l),
(492,0,l),
(492,342,ls),
(492,466,o),
(414,546,o),
(291,546,cs),
(168,546,o),
(90,466,o),
(90,342,cs),
(90,0,l)
);
}
);
width = 576;
},
{
associatedMasterId = m004;
layerId = "40505684-3423-4F8E-A65A-1B5C1E44E425";
width = 632;
},
{
associatedMasterId = m004;
layerId = "828B5BC0-5F42-4099-97C0-7ED4AFEE9DCA";
width = 635;
},
{
associatedMasterId = m004;
layerId = "F4DAFBEF-5AE8-4E1A-8BAA-6ABBE3A6A707";
width = 635;
},
{
associatedMasterId = m004;
layerId = "07D01551-749A-45CF-9FEE-8E08E5B59993";
width = 635;
}
);
metricLeft = n;
metricRight = n;
note = n;
userData = {
KernOnName = n.ss02;
};
},
{
glyphname = o;
kernLeft = KO_o;
kernRight = KO_o;
lastChange = "2025-03-16 19:02:43 +0000";
layers = (
{
anchors = (
{
name = bottom;
pos = (307,0);
},
{
name = top;
pos = (307,530);
}
);
layerId = m002;
shapes = (
{
closed = 1;
nodes = (
(467,-16,o),
(581,99,o),
(581,263,cs),
(581,428,o),
(468,546,o),
(307,546,cs),
(146,546,o),
(32,428,o),
(32,263,cs),
(32,98,o),
(147,-16,o),
(307,-16,cs)
);
},
{
closed = 1;
nodes = (
(242,124,o),
(196,179,o),
(196,263,cs),
(196,348,o),
(242,406,o),
(307,406,cs),
(372,406,o),
(417,347,o),
(417,263,cs),
(417,180,o),
(372,124,o),
(307,124,cs)
);
}
);
userData = {
assembly = "NPUSHB[ ]	/* 42 values pushed */
0 3 3 1 97 0 1 1 49 77 5 1 2 2 0 97 4 1 0 0 47 0 78 17 16 1 0 25 23 16 31 17 31 9 7 0 15 1 15 6 8 22 
CALL[ ]	/* CallFunction */";
};
width = 613;
},
{
anchors = (
{
name = bottom;
pos = (311,0);
},
{
name = center;
pos = (311,283);
},
{
name = ogonek;
pos = (559,10);
},
{
name = top;
pos = (311,566);
},
{
name = topright;
pos = (310,591);
}
);
associatedMasterId = m002;
layerId = "D122279E-2B12-47B6-B8A9-E7EDAED26989";
name = "4 Jun 24 at 12:31";
shapes = (
{
closed = 1;
nodes = (
(481,-12,o),
(590,105,o),
(590,290,cs),
(590,469,o),
(485,591,o),
(310,591,cs),
(141,591,o),
(31,474,o),
(31,290,cs),
(31,101,o),
(146,-12,o),
(310,-12,cs)
);
},
{
closed = 1;
nodes = (
(237,127,o),
(186,187,o),
(186,290,cs),
(186,392,o),
(237,452,o),
(310,452,cs),
(384,452,o),
(435,392,o),
(435,290,cs),
(435,187,o),
(385,127,o),
(310,127,cs)
);
}
);
userData = {
assembly = "NPUSHB[ ]	/* 42 values pushed */
0 3 3 1 97 0 1 1 49 77 5 1 2 2 0 97 4 1 0 0 47 0 78 17 16 1 0 25 23 16 31 17 31 9 7 0 15 1 15 6 8 22 
CALL[ ]	/* CallFunction */";
};
width = 621;
},
{
anchors = (
{
name = bottom;
pos = (299,0);
},
{
name = top;
pos = (299,530);
}
);
layerId = m003;
shapes = (
{
closed = 1;
nodes = (
(445,-15,o),
(548,99,o),
(548,262,cs),
(548,428,o),
(445,545,o),
(299,545,cs),
(152,545,o),
(48,428,o),
(48,262,cs),
(48,99,o),
(152,-15,o),
(299,-15,cs)
);
},
{
closed = 1;
nodes = (
(207,66,o),
(142,147,o),
(142,263,cs),
(142,381,o),
(207,464,o),
(299,464,cs),
(390,464,o),
(454,381,o),
(454,263,cs),
(454,147,o),
(390,66,o),
(299,66,cs)
);
}
);
width = 595;
},
{
anchors = (
{
name = bottom;
pos = (311,0);
},
{
name = center;
pos = (311,283);
},
{
name = ogonek;
pos = (559,10);
},
{
name = top;
pos = (311,566);
},
{
name = topright;
pos = (310,591);
}
);
associatedMasterId = m003;
layerId = "9767B1F2-6E5F-4FD1-AE05-B0B8DCFCAD20";
name = "4 Jun 24 at 12:31";
shapes = (
{
closed = 1;
nodes = (
(481,-12,o),
(590,105,o),
(590,290,cs),
(590,469,o),
(485,591,o),
(310,591,cs),
(141,591,o),
(31,474,o),
(31,290,cs),
(31,101,o),
(146,-12,o),
(310,-12,cs)
);
},
{
closed = 1;
nodes = (
(237,127,o),
(186,187,o),
(186,290,cs),
(186,392,o),
(237,452,o),
(310,452,cs),
(384,452,o),
(435,392,o),
(435,290,cs),
(435,187,o),
(385,127,o),
(310,127,cs)
);
}
);
userData = {
assembly = "NPUSHB[ ]	/* 42 values pushed */
0 3 3 1 97 0 1 1 49 77 5 1 2 2 0 97 4 1 0 0 47 0 78 17 16 1 0 25 23 16 31 17 31 9 7 0 15 1 15 6 8 22 
CALL[ ]	/* CallFunction */";
};
width = 621;
},
{
anchors = (
{
name = bottom;
pos = (291,0);
},
{
name = top;
pos = (291,530);
}
);
layerId = m004;
shapes = (
{
closed = 1;
nodes = (
(430,-15,o),
(527,101,o),
(527,264,cs),
(527,428,o),
(430,545,o),
(291,545,cs),
(151,545,o),
(53,429,o),
(53,264,cs),
(53,100,o),
(151,-15,o),
(291,-15,cs)
);
},
{
closed = 1;
nodes = (
(179,26,o),
(100,124,o),
(100,264,cs),
(100,405,o),
(179,503,o),
(291,503,cs),
(402,503,o),
(481,405,o),
(481,264,cs),
(481,125,o),
(403,26,o),
(291,26,cs)
);
}
);
width = 580;
},
{
associatedMasterId = m004;
layerId = "B35361C8-825A-45BD-AFDE-1581632ABDD9";
width = 621;
}
);
note = o;
unicode = 111;
userData = {
KernOnName = o;
};
},
{
glyphname = ohorn;
kernLeft = KO_ohorn;
lastChange = "2025-03-16 19:02:43 +0000";
layers = (
{
anchors = (
{
name = bottom;
pos = (307,-2);
},
{
name = top;
pos = (307,533);
}
);
layerId = m002;
shapes = (
{
closed = 1;
nodes = (
(467,-16,o),
(581,99,o),
(581,264,cs),
(581,428,o),
(467,546,o),
(306,546,cs),
(146,546,o),
(32,429,o),
(32,264,cs),
(32,99,o),
(146,-16,o),
(306,-16,cs)
);
},
{
closed = 1;
nodes = (
(242,124,o),
(196,180,o),
(196,264,cs),
(196,349,o),
(242,406,o),
(306,406,cs),
(371,406,o),
(416,348,o),
(416,264,cs),
(416,181,o),
(371,124,o),
(306,124,cs)
);
},
{
closed = 1;
nodes = (
(560,438,o),
(623,509,o),
(612,630,c),
(487,630,l),
(493,548,o),
(478,520,o),
(431,528,cs),
(390,535,o),
(369,546,o),
(307,546,c),
(458,443,l)
);
}
);
width = 645;
},
{
anchors = (
{
name = bottom;
pos = (297,0);
},
{
name = top;
pos = (297,530);
}
);
layerId = m003;
shapes = (
{
closed = 1;
nodes = (
(442,-15,o),
(545,98,o),
(545,262,cs),
(545,428,o),
(442,545,o),
(298,545,cs),
(152,545,o),
(48,429,o),
(48,262,cs),
(48,97,o),
(152,-15,o),
(298,-15,cs)
);
},
{
closed = 1;
nodes = (
(205,65,o),
(141,145,o),
(141,262,cs),
(141,381,o),
(206,463,o),
(298,463,cs),
(389,463,o),
(453,380,o),
(453,262,cs),
(453,145,o),
(389,65,o),
(298,65,cs)
);
},
{
closed = 1;
nodes = (
(522,460,o),
(575,500,o),
(566,631,c),
(489,631,l),
(495,539,o),
(474,514,o),
(436,517,cs),
(402,520,o),
(374,545,o),
(298,545,c),
(432,462,l)
);
}
);
width = 614;
},
{
anchors = (
{
name = bottom;
pos = (292,-4);
},
{
name = top;
pos = (292,536);
}
);
layerId = m004;
shapes = (
{
closed = 1;
nodes = (
(432,-16,o),
(529,101,o),
(529,264,cs),
(529,430,o),
(430,546,o),
(292,546,cs),
(152,546,o),
(53,430,o),
(53,264,cs),
(53,100,o),
(151,-16,o),
(292,-16,cs)
);
},
{
closed = 1;
nodes = (
(179,25,o),
(100,123,o),
(100,264,cs),
(100,406,o),
(179,504,o),
(292,504,cs),
(405,504,o),
(483,404,o),
(483,264,cs),
(483,126,o),
(405,25,o),
(292,25,cs)
);
},
{
closed = 1;
nodes = (
(493,478,o),
(540,498,o),
(533,634,c),
(489,634,l),
(493,546,o),
(478,512,o),
(428,512,cs),
(401,512,o),
(374,546,o),
(291,546,c),
(411,478,l)
);
}
);
width = 587;
}
);
metricLeft = o;
metricRight = o;
unicode = 417;
},
{
glyphname = oslash;
lastChange = "2025-03-16 19:02:43 +0000";
layers = (
{
layerId = m002;
shapes = (
{
closed = 1;
nodes = (
(621,566,l),
(514,643,l),
(32,7,l),
(138,-71,l)
);
},
{
pos = (3,0);
ref = o;
}
);
width = 653;
},
{
layerId = m003;
shapes = (
{
closed = 1;
nodes = (
(566,545,l),
(501,592,l),
(48,4,l),
(111,-44,l)
);
},
{
pos = (13,0);
ref = o;
}
);
width = 613;
},
{
layerId = m004;
shapes = (
{
closed = 1;
nodes = (
(523,530,l),
(489,554,l),
(58,2,l),
(90,-24,l)
);
},
{
ref = o;
}
);
width = 580;
}
);
metricLeft = o;
metricRight = o;
unicode = 248;
},
{
glyphname = oe;
lastChange = "2025-07-03 09:42:36 +0000";
layers = (
{
layerId = m002;
shapes = (
{
closed = 1;
nodes = (
(467,-16,o),
(581,99,o),
(581,263,cs),
(581,428,o),
(468,546,o),
(307,546,cs),
(146,546,o),
(32,428,o),
(32,263,cs),
(32,98,o),
(147,-16,o),
(307,-16,cs)
);
},
{
closed = 1;
nodes = (
(242,124,o),
(196,179,o),
(196,263,cs),
(196,348,o),
(242,406,o),
(307,406,cs),
(372,406,o),
(417,347,o),
(417,263,cs),
(417,180,o),
(372,124,o),
(307,124,cs)
);
},
{
closed = 1;
nodes = (
(821,-18,o),
(905,56,o),
(933,166,c),
(779,166,l),
(764,129,o),
(735,103,o),
(688,103,cs),
(626,103,o),
(578,155,o),
(578,232,cs),
(578,289,ls),
(578,376,o),
(624,420,o),
(683,420,cs),
(726,420,o),
(772,397,o),
(777,321,c),
(541,321,l),
(541,213,l),
(936,213,l),
(945,422,o),
(851,544,o),
(682,544,cs),
(521,544,o),
(417,434,o),
(417,263,cs),
(417,89,o),
(521,-18,o),
(683,-18,cs)
);
}
);
width = 964;
},
{
layerId = m003;
shapes = (
{
closed = 1;
nodes = (
(445,-15,o),
(548,99,o),
(548,262,cs),
(548,428,o),
(445,545,o),
(299,545,cs),
(152,545,o),
(48,428,o),
(48,262,cs),
(48,99,o),
(152,-15,o),
(299,-15,cs)
);
},
{
closed = 1;
nodes = (
(207,66,o),
(142,147,o),
(142,263,cs),
(142,381,o),
(207,464,o),
(299,464,cs),
(390,464,o),
(454,381,o),
(454,263,cs),
(454,147,o),
(390,66,o),
(299,66,cs)
);
},
{
closed = 1;
nodes = (
(827,-15,o),
(917,58,o),
(939,171,c),
(851,171,l),
(836,106,o),
(780,60,o),
(710,60,cs),
(612,60,o),
(546,135,o),
(546,250,cs),
(546,285,ls),
(546,350,o),
(585,471,o),
(705,471,cs),
(786,471,o),
(847,410,o),
(851,310,c),
(523,310,l),
(523,237,l),
(942,237,l),
(949,423,o),
(862,545,o),
(704,545,cs),
(555,545,o),
(454,431,o),
(454,263,cs),
(454,95,o),
(553,-15,o),
(709,-15,cs)
);
}
);
width = 983;
},
{
layerId = m004;
shapes = (
{
closed = 1;
nodes = (
(430,-15,o),
(527,101,o),
(527,264,cs),
(527,428,o),
(430,545,o),
(291,545,cs),
(151,545,o),
(53,429,o),
(53,264,cs),
(53,100,o),
(151,-15,o),
(291,-15,cs)
);
},
{
closed = 1;
nodes = (
(179,26,o),
(100,124,o),
(100,264,cs),
(100,405,o),
(179,503,o),
(291,503,cs),
(402,503,o),
(481,405,o),
(481,264,cs),
(481,125,o),
(403,26,o),
(291,26,cs)
);
},
{
closed = 1;
nodes = (
(838,-16,o),
(938,52,o),
(957,168,c),
(911,168,l),
(894,81,o),
(815,26,o),
(732,26,cs),
(605,26,o),
(528,122,o),
(528,262,cs),
(528,283,ls),
(528,332,o),
(560,504,o),
(727,504,cs),
(831,504,o),
(910,427,o),
(915,294,c),
(512,294,l),
(512,253,l),
(960,253,l),
(967,436,o),
(870,544,o),
(726,544,cs),
(580,544,o),
(481,431,o),
(481,264,cs),
(481,99,o),
(578,-16,o),
(733,-16,cs)
);
}
);
width = 1003;
}
);
metricLeft = o;
metricRight = e;
unicode = 339;
},
{
glyphname = p;
kernLeft = KO_p;
kernRight = KO_b;
lastChange = "2025-03-16 19:02:43 +0000";
layers = (
{
layerId = m002;
shapes = (
{
closed = 1;
nodes = (
(473,-16,o),
(604,63,o),
(604,267,cs),
(604,431,o),
(512,546,o),
(372,546,cs),
(278,546,o),
(193,479,o),
(179,369,c),
(179,151,l),
(192,42,o),
(267,-16,o),
(363,-16,cs)
);
},
{
closed = 1;
nodes = (
(223,-187,l),
(223,383,l),
(198,530,l),
(61,530,l),
(61,-187,l)
);
},
{
closed = 1;
nodes = (
(263,117,o),
(223,170,o),
(223,259,cs),
(223,348,o),
(263,404,o),
(329,404,cs),
(398,404,o),
(440,349,o),
(440,260,cs),
(440,170,o),
(397,117,o),
(329,117,cs)
);
}
);
userData = {
assembly = "PUSHB[ ]	/* 8 values pushed */
10 9 2 3 4 5 1 76 
MPPEM[ ]	/* MeasurePixelPerEm */
PUSHB[ ]	/* 1 value pushed */
20 
LT[ ]	/* LessThan */
IF[ ]	/* If */
NPUSHB[ ]	/* 29 values pushed */
0 5 5 0 97 3 1 0 0 41 77 7 1 4 4 2 97 6 1 2 2 47 77 0 1 1 43 1 78 
ELSE[ ]	/* Else */
NPUSHB[ ]	/* 33 values pushed */
0 0 0 41 77 0 5 5 3 97 0 3 3 49 77 7 1 4 4 2 97 6 1 2 2 47 77 0 1 1 43 1 78 
EIF[ ]	/* EndIf */
NPUSHB[ ]	/* 21 values pushed */
23 22 6 5 31 29 22 37 23 37 15 13 5 21 6 21 18 16 8 8 24 
CALL[ ]	/* CallFunction */";
};
width = 636;
},
{
layerId = m003;
shapes = (
{
closed = 1;
nodes = (
(465,-15,o),
(574,81,o),
(574,265,cs),
(574,433,o),
(481,545,o),
(346,545,cs),
(255,545,o),
(178,484,o),
(153,372,c),
(153,148,l),
(179,37,o),
(254,-15,o),
(342,-15,cs)
);
},
{
closed = 1;
nodes = (
(175,-180,l),
(175,389,l),
(165,530,l),
(84,530,l),
(84,-180,l)
);
},
{
closed = 1;
nodes = (
(237,64,o),
(178,143,o),
(178,262,cs),
(178,384,o),
(238,464,o),
(324,464,cs),
(416,464,o),
(480,385,o),
(480,262,cs),
(480,141,o),
(416,64,o),
(324,64,cs)
);
}
);
width = 623;
},
{
layerId = m004;
shapes = (
{
closed = 1;
nodes = (
(459,-15,o),
(554,91,o),
(554,263,cs),
(554,433,o),
(459,545,o),
(325,545,cs),
(230,545,o),
(158,484,o),
(125,374,c),
(125,149,l),
(160,40,o),
(236,-15,o),
(325,-15,cs)
);
},
{
closed = 1;
nodes = (
(136,-180,l),
(136,395,l),
(130,530,l),
(90,530,l),
(90,-180,l)
);
},
{
closed = 1;
nodes = (
(214,28,o),
(141,124,o),
(141,266,cs),
(141,408,o),
(214,504,o),
(318,504,cs),
(428,504,o),
(507,408,o),
(507,263,cs),
(507,122,o),
(428,28,o),
(318,28,cs)
);
}
);
width = 607;
}
);
note = p;
unicode = 112;
},
{
glyphname = thorn;
lastChange = "2025-03-16 19:02:43 +0000";
layers = (
{
layerId = m002;
shapes = (
{
closed = 1;
nodes = (
(496,-16,o),
(610,99,o),
(610,263,cs),
(610,428,o),
(497,546,o),
(336,546,cs),
(175,546,o),
(61,428,o),
(61,263,cs),
(61,98,o),
(176,-16,o),
(336,-16,cs)
);
},
{
closed = 1;
nodes = (
(228,-90,l),
(228,37,l),
(182,125,l),
(182,445,l),
(228,526,l),
(228,660,l),
(61,660,l),
(61,-90,l)
);
},
{
closed = 1;
nodes = (
(271,124,o),
(225,179,o),
(225,263,cs),
(225,348,o),
(271,406,o),
(336,406,cs),
(401,406,o),
(446,347,o),
(446,263,cs),
(446,180,o),
(401,124,o),
(336,124,cs)
);
}
);
width = 642;
},
{
layerId = m003;
shapes = (
{
closed = 1;
nodes = (
(486,-15,o),
(590,101,o),
(590,264,cs),
(590,428,o),
(486,545,o),
(338,545,cs),
(189,545,o),
(84,428,o),
(84,264,cs),
(84,100,o),
(189,-15,o),
(338,-15,cs)
);
},
{
closed = 1;
nodes = (
(179,-90,l),
(179,76,l),
(158,164,l),
(158,393,l),
(179,474,l),
(179,660,l),
(84,660,l),
(84,-90,l)
);
},
{
closed = 1;
nodes = (
(246,68,o),
(181,148,o),
(181,264,cs),
(181,381,o),
(246,462,o),
(338,462,cs),
(429,462,o),
(494,381,o),
(494,264,cs),
(494,149,o),
(430,68,o),
(338,68,cs)
);
}
);
width = 637;
},
{
layerId = m004;
shapes = (
{
closed = 1;
nodes = (
(467,-15,o),
(564,101,o),
(564,264,cs),
(564,428,o),
(467,545,o),
(328,545,cs),
(188,545,o),
(90,429,o),
(90,264,cs),
(90,100,o),
(188,-15,o),
(328,-15,cs)
);
},
{
closed = 1;
nodes = (
(135,-90,l),
(135,104,l),
(129,192,l),
(129,355,l),
(135,436,l),
(135,660,l),
(90,660,l),
(90,-90,l)
);
},
{
closed = 1;
nodes = (
(216,26,o),
(137,124,o),
(137,264,cs),
(137,405,o),
(216,503,o),
(328,503,cs),
(439,503,o),
(518,405,o),
(518,264,cs),
(518,125,o),
(440,26,o),
(328,26,cs)
);
}
);
width = 617;
}
);
metricLeft = l;
metricRight = o;
unicode = 254;
},
{
glyphname = q;
kernLeft = KO_q;
kernRight = KO_a;
lastChange = "2025-03-16 19:02:43 +0000";
layers = (
{
layerId = m002;
shapes = (
{
closed = 1;
nodes = (
(372,-16,o),
(444,45,o),
(457,151,c),
(457,369,l),
(444,477,o),
(381,546,o),
(284,546,cs),
(137,546,o),
(32,429,o),
(32,262,cs),
(32,98,o),
(130,-16,o),
(265,-16,cs)
);
},
{
closed = 1;
nodes = (
(239,117,o),
(196,170,o),
(196,260,cs),
(196,348,o),
(238,404,o),
(308,404,cs),
(374,404,o),
(414,347,o),
(414,259,cs),
(414,171,o),
(374,117,o),
(308,117,cs)
);
},
{
closed = 1;
nodes = (
(575,-187,l),
(575,530,l),
(439,530,l),
(414,383,l),
(414,-187,l)
);
}
);
userData = {
assembly = "PUSHB[ ]	/* 8 values pushed */
10 9 3 3 5 4 1 76 
MPPEM[ ]	/* MeasurePixelPerEm */
PUSHB[ ]	/* 1 value pushed */
20 
LT[ ]	/* LessThan */
IF[ ]	/* If */
NPUSHB[ ]	/* 30 values pushed */
8 1 4 4 1 97 7 2 6 3 1 1 41 77 0 5 5 3 97 0 3 3 47 77 0 0 0 43 0 78 
ELSE[ ]	/* Else */
NPUSHB[ ]	/* 34 values pushed */
6 1 1 1 41 77 8 1 4 4 2 97 7 1 2 2 49 77 0 5 5 3 97 0 3 3 47 77 0 0 0 43 0 78 
EIF[ ]	/* EndIf */
NPUSHB[ ]	/* 26 values pushed */
23 22 6 5 0 0 31 29 22 37 23 37 15 13 5 21 6 21 0 4 0 4 17 9 8 23 
CALL[ ]	/* CallFunction */";
};
width = 636;
},
{
layerId = m003;
shapes = (
{
closed = 1;
nodes = (
(371,-15,o),
(444,41,o),
(469,148,c),
(469,372,l),
(445,479,o),
(380,545,o),
(284,545,cs),
(147,545,o),
(49,432,o),
(49,263,cs),
(49,95,o),
(144,-15,o),
(276,-15,cs)
);
},
{
closed = 1;
nodes = (
(206,64,o),
(142,141,o),
(142,262,cs),
(142,384,o),
(205,464,o),
(298,464,cs),
(384,464,o),
(444,384,o),
(444,262,cs),
(444,142,o),
(384,64,o),
(298,64,cs)
);
},
{
closed = 1;
nodes = (
(539,-180,l),
(539,530,l),
(457,530,l),
(447,389,l),
(447,-180,l)
);
}
);
width = 623;
},
{
layerId = m004;
shapes = (
{
closed = 1;
nodes = (
(371,-15,o),
(447,40,o),
(482,149,c),
(482,374,l),
(448,488,o),
(374,545,o),
(283,545,cs),
(148,545,o),
(53,433,o),
(53,263,cs),
(53,92,o),
(147,-15,o),
(282,-15,cs)
);
},
{
closed = 1;
nodes = (
(179,28,o),
(100,122,o),
(100,263,cs),
(100,407,o),
(178,504,o),
(288,504,cs),
(393,504,o),
(465,407,o),
(465,266,cs),
(465,126,o),
(393,28,o),
(288,28,cs)
);
},
{
closed = 1;
nodes = (
(517,-180,l),
(517,530,l),
(477,530,l),
(471,395,l),
(471,-180,l)
);
}
);
width = 607;
}
);
note = q;
unicode = 113;
},
{
glyphname = r;
kernLeft = KO_n;
kernRight = KO_r;
lastChange = "2025-03-16 19:02:43 +0000";
layers = (
{
anchors = (
{
name = bottom;
pos = (198,0);
},
{
name = top;
pos = (198,530);
}
);
layerId = m002;
shapes = (
{
closed = 1;
nodes = (
(223,-1,l),
(223,276,ls),
(223,352,o),
(272,394,o),
(355,394,cs),
(366,394,o),
(376,393,o),
(386,391,c),
(386,543,l),
(376,545,o),
(368,546,o),
(360,546,cs),
(288,546,o),
(238,500,o),
(218,433,c),
(209,531,l),
(61,531,l),
(61,-1,l)
);
}
);
userData = {
assembly = "NPUSHB[ ]	/* 39 values pushed */
14 3 2 1 3 1 76 0 3 3 0 95 2 1 0 0 41 77 4 1 1 1 39 1 78 0 0 12 10 9 7 0 4 0 4 17 5 8 23 
CALL[ ]	/* CallFunction */";
};
width = 395;
},
{
associatedMasterId = m002;
layerId = "4C9EE824-E47E-4F8E-A63D-9911E50F14A3";
name = "27 Jun 24 at 12:25";
shapes = (
{
closed = 1;
nodes = (
(224,0,l),
(224,334,ls),
(224,393,o),
(259,430,o),
(316,430,cs),
(440,430,l),
(440,570,l),
(291,570,ls),
(150,570,o),
(62,483,o),
(62,345,cs),
(62,0,l)
);
}
);
userData = {
assembly = "NPUSHB[ ]	/* 39 values pushed */
14 3 2 1 3 1 76 0 3 3 0 95 2 1 0 0 41 77 4 1 1 1 39 1 78 0 0 12 10 9 7 0 4 0 4 17 5 8 23 
CALL[ ]	/* CallFunction */";
};
width = 486;
},
{
anchors = (
{
name = bottom;
pos = (195,0);
},
{
name = top;
pos = (195,530);
}
);
layerId = m003;
shapes = (
{
closed = 1;
nodes = (
(177,-6,l),
(177,297,ls),
(177,398,o),
(242,455,o),
(320,455,cs),
(330,455,o),
(347,454,o),
(360,451,c),
(360,542,l),
(351,544,o),
(335,546,o),
(321,546,cs),
(248,546,o),
(195,497,o),
(174,431,c),
(166,530,l),
(84,530,l),
(84,-6,l)
);
}
);
width = 390;
},
{
associatedMasterId = m003;
layerId = "A37181E9-1F54-47A2-990C-0BE5E0E2A0EA";
name = "27 Jun 24 at 12:25";
shapes = (
{
closed = 1;
nodes = (
(224,0,l),
(224,334,ls),
(224,393,o),
(259,430,o),
(316,430,cs),
(440,430,l),
(440,570,l),
(291,570,ls),
(150,570,o),
(62,483,o),
(62,345,cs),
(62,0,l)
);
}
);
userData = {
assembly = "NPUSHB[ ]	/* 39 values pushed */
14 3 2 1 3 1 76 0 3 3 0 95 2 1 0 0 41 77 4 1 1 1 39 1 78 0 0 12 10 9 7 0 4 0 4 17 5 8 23 
CALL[ ]	/* CallFunction */";
};
width = 486;
},
{
anchors = (
{
name = bottom;
pos = (180,0);
},
{
name = top;
pos = (180,530);
}
);
layerId = m004;
shapes = (
{
closed = 1;
nodes = (
(136,0,l),
(136,312,ls),
(136,428,o),
(208,500,o),
(281,500,cs),
(298,500,o),
(313,499,o),
(329,496,c),
(329,540,l),
(317,543,o),
(298,545,o),
(279,545,cs),
(207,545,o),
(157,493,o),
(135,429,c),
(129,530,l),
(90,530,l),
(90,0,l)
);
}
);
width = 360;
},
{
associatedMasterId = m004;
layerId = "DEAC3665-6DF5-4E1E-8D4F-DC9CF83C23E5";
width = 486;
}
);
note = r;
unicode = 114;
userData = {
KernOnName = r;
};
},
{
glyphname = s;
kernLeft = KO_s;
kernRight = KO_s;
lastChange = "2025-03-16 19:02:43 +0000";
layers = (
{
anchors = (
{
name = bottom;
pos = (249,0);
},
{
name = top;
pos = (249,530);
}
);
layerId = m002;
shapes = (
{
closed = 1;
nodes = (
(385,-16,o),
(468,49,o),
(468,166,cs),
(468,250,o),
(424,289,o),
(358,310,cs),
(329,319,o),
(278,330,o),
(241,340,cs),
(183,356,o),
(168,368,o),
(168,389,cs),
(168,419,o),
(204,431,o),
(231,431,cs),
(268,431,o),
(307,406,o),
(306,371,c),
(458,371,l),
(459,475,o),
(364,546,o),
(240,546,cs),
(141,546,o),
(18,500,o),
(18,362,cs),
(18,273,o),
(70,240,o),
(134,218,cs),
(172,205,o),
(196,199,o),
(242,188,cs),
(303,173,o),
(315,166,o),
(315,146,cs),
(315,117,o),
(286,101,o),
(247,101,cs),
(202,101,o),
(170,121,o),
(159,173,c),
(16,173,l),
(15,52,o),
(109,-16,o),
(249,-16,cs)
);
}
);
userData = {
assembly = "NPUSHB[ ]	/* 56 values pushed */
0 4 5 1 5 4 1 128 0 1 2 5 1 2 126 0 5 5 3 97 0 3 3 49 77 0 2 2 0 97 6 1 0 0 47 0 78 1 0 33 31 29 28 25 23 10 8 5 4 0 46 1 46 7 8 22 
CALL[ ]	/* CallFunction */";
};
width = 497;
},
{
associatedMasterId = m002;
layerId = "B8B70BFD-B17D-4B7F-BE53-4B6B2AECEDD1";
name = "27 Jun 24 at 12:36";
shapes = (
{
closed = 1;
nodes = (
(403,-15,o),
(524,41,o),
(524,181,cs),
(524,257,o),
(490,317,o),
(400,333,cs),
(355,341,o),
(322,346,o),
(275,353,cs),
(255,356,o),
(192,366,o),
(192,415,cs),
(192,457,o),
(239,470,o),
(273,470,cs),
(325,470,o),
(366,440,o),
(366,400,c),
(513,400,l),
(513,509,o),
(416,585,o),
(279,585,cs),
(171,585,o),
(44,532,o),
(44,399,cs),
(44,311,o),
(100,252,o),
(171,241,cs),
(211,235,o),
(248,229,o),
(287,222,cs),
(327,215,o),
(373,214,o),
(373,163,cs),
(373,123,o),
(342,101,o),
(286,101,cs),
(223,101,o),
(184,131,o),
(177,185,c),
(29,185,l),
(29,70,o),
(143,-15,o),
(287,-15,cs)
);
}
);
userData = {
assembly = "NPUSHB[ ]	/* 56 values pushed */
0 4 5 1 5 4 1 128 0 1 2 5 1 2 126 0 5 5 3 97 0 3 3 49 77 0 2 2 0 97 6 1 0 0 47 0 78 1 0 33 31 29 28 25 23 10 8 5 4 0 46 1 46 7 8 22 
CALL[ ]	/* CallFunction */";
};
width = 547;
},
{
anchors = (
{
name = bottom;
pos = (238,0);
},
{
name = top;
pos = (238,530);
}
);
layerId = m003;
shapes = (
{
closed = 1;
nodes = (
(328,-15,o),
(430,25,o),
(435,139,cs),
(438,207,o),
(417,262,o),
(311,294,cs),
(281,303,o),
(230,314,o),
(200,323,cs),
(142,341,o),
(120,360,o),
(120,397,cs),
(120,448,o),
(167,477,o),
(224,477,cs),
(288,477,o),
(337,440,o),
(339,377,c),
(425,377,l),
(423,479,o),
(345,545,o),
(230,545,cs),
(126,545,o),
(33,492,o),
(33,383,cs),
(33,299,o),
(85,270,o),
(147,250,cs),
(187,237,o),
(218,231,o),
(254,221,cs),
(320,202,o),
(347,188,o),
(347,143,cs),
(347,88,o),
(301,55,o),
(238,55,cs),
(162,55,o),
(117,101,o),
(111,170,c),
(29,170,l),
(31,56,o),
(111,-15,o),
(237,-15,cs)
);
}
);
width = 475;
},
{
associatedMasterId = m003;
layerId = "42222DB5-8ECC-4AD0-BCBB-6258D51A425F";
name = "27 Jun 24 at 12:36";
shapes = (
{
closed = 1;
nodes = (
(403,-15,o),
(524,41,o),
(524,181,cs),
(524,257,o),
(490,317,o),
(400,333,cs),
(355,341,o),
(322,346,o),
(275,353,cs),
(255,356,o),
(192,366,o),
(192,415,cs),
(192,457,o),
(239,470,o),
(273,470,cs),
(325,470,o),
(366,440,o),
(366,400,c),
(513,400,l),
(513,509,o),
(416,585,o),
(279,585,cs),
(171,585,o),
(44,532,o),
(44,399,cs),
(44,311,o),
(100,252,o),
(171,241,cs),
(211,235,o),
(248,229,o),
(287,222,cs),
(327,215,o),
(373,214,o),
(373,163,cs),
(373,123,o),
(342,101,o),
(286,101,cs),
(223,101,o),
(184,131,o),
(177,185,c),
(29,185,l),
(29,70,o),
(143,-15,o),
(287,-15,cs)
);
}
);
userData = {
assembly = "NPUSHB[ ]	/* 56 values pushed */
0 4 5 1 5 4 1 128 0 1 2 5 1 2 126 0 5 5 3 97 0 3 3 49 77 0 2 2 0 97 6 1 0 0 47 0 78 1 0 33 31 29 28 25 23 10 8 5 4 0 46 1 46 7 8 22 
CALL[ ]	/* CallFunction */";
};
width = 547;
},
{
anchors = (
{
name = bottom;
pos = (229,0);
},
{
name = top;
pos = (229,530);
}
);
layerId = m004;
shapes = (
{
closed = 1;
nodes = (
(336,-15,o),
(409,41,o),
(416,128,cs),
(423,216,o),
(374,262,o),
(275,289,cs),
(239,299,o),
(199,305,o),
(170,315,cs),
(115,333,o),
(86,357,o),
(86,408,cs),
(86,470,o),
(140,509,o),
(221,509,cs),
(303,509,o),
(360,464,o),
(363,385,c),
(407,385,l),
(404,488,o),
(328,545,o),
(223,545,cs),
(115,545,o),
(39,491,o),
(39,402,cs),
(39,322,o),
(92,293,o),
(157,274,cs),
(201,261,o),
(227,257,o),
(260,247,cs),
(320,230,o),
(371,204,o),
(371,137,cs),
(371,67,o),
(314,22,o),
(232,22,cs),
(136,22,o),
(80,83,o),
(77,164,c),
(33,164,l),
(36,55,o),
(112,-15,o),
(229,-15,cs)
);
}
);
width = 458;
},
{
associatedMasterId = m004;
layerId = "1BBC056B-0724-405D-9E9B-36A160875D3B";
width = 547;
}
);
note = s;
unicode = 115;
userData = {
KernOnName = s;
};
},
{
glyphname = germandbls;
lastChange = "2025-03-16 19:02:43 +0000";
layers = (
{
layerId = m002;
shapes = (
{
closed = 1;
nodes = (
(270,0,l),
(270,468,ls),
(270,522,o),
(297,580,o),
(368,580,cs),
(422,580,o),
(455,556,o),
(455,512,cs),
(455,472,o),
(421,446,o),
(368,446,cs),
(337,446,l),
(337,306,l),
(385,306,ls),
(438,306,o),
(472,277,o),
(472,237,cs),
(472,193,o),
(438,168,o),
(385,168,cs),
(338,168,l),
(338,0,l),
(405,0,ls),
(565,0,o),
(666,87,o),
(666,222,cs),
(666,293,o),
(626,349,o),
(550,377,c),
(617,405,o),
(649,459,o),
(649,528,cs),
(649,663,o),
(548,748,o),
(388,748,cs),
(169,748,o),
(74,603,o),
(74,468,cs),
(74,0,l)
);
}
);
width = 712;
},
{
layerId = m003;
shapes = (
{
closed = 1;
nodes = (
(201,0,l),
(201,463,ls),
(201,578,o),
(258,665,o),
(373,665,cs),
(454,665,o),
(511,614,o),
(511,541,cs),
(511,461,o),
(456,413,o),
(371,413,cs),
(283,413,l),
(283,337,l),
(384,337,ls),
(469,337,o),
(524,288,o),
(524,213,cs),
(524,137,o),
(469,89,o),
(384,89,cs),
(284,89,l),
(284,0,l),
(394,0,ls),
(536,0,o),
(627,80,o),
(627,206,cs),
(627,293,o),
(575,355,o),
(491,376,c),
(573,399,o),
(614,463,o),
(614,549,cs),
(614,671,o),
(521,754,o),
(384,754,cs),
(190,754,o),
(97,621,o),
(97,463,cs),
(97,0,l)
);
}
);
width = 694;
},
{
layerId = m004;
shapes = (
{
closed = 1;
nodes = (
(152,0,l),
(152,460,ls),
(152,611,o),
(226,716,o),
(368,716,cs),
(466,716,o),
(537,649,o),
(537,558,cs),
(537,454,o),
(469,393,o),
(365,393,cs),
(243,393,l),
(243,355,l),
(375,355,ls),
(480,355,o),
(547,295,o),
(547,198,cs),
(547,103,o),
(480,42,o),
(375,42,cs),
(243,42,l),
(243,0,l),
(379,0,ls),
(511,0,o),
(595,76,o),
(595,196,cs),
(595,290,o),
(540,358,o),
(447,376,c),
(535,395,o),
(585,462,o),
(585,561,cs),
(585,676,o),
(497,758,o),
(373,758,cs),
(195,758,o),
(103,633,o),
(103,460,cs),
(103,0,l)
);
}
);
width = 668;
}
);
metricLeft = B;
metricRight = B;
unicode = 223;
},
{
glyphname = t;
kernLeft = KO_t;
kernRight = KO_t;
lastChange = "2025-03-16 19:02:43 +0000";
layers = (
{
layerId = m002;
shapes = (
{
closed = 1;
nodes = (
(403,0,l),
(403,140,l),
(316,140,ls),
(298,140,o),
(281,156,o),
(281,172,cs),
(281,695,l),
(120,695,l),
(120,144,ls),
(120,60,o),
(181,0,o),
(266,0,cs)
);
},
{
closed = 1;
nodes = (
(388,401,l),
(388,530,l),
(33,530,l),
(33,401,l)
);
}
);
userData = {
assembly = "NPUSHB[ ]	/* 47 values pushed */
5 4 2 2 74 5 1 3 3 2 95 0 2 2 41 77 0 1 1 0 95 4 1 0 0 39 0 78 12 12 1 0 12 15 12 15 14 13 10 8 0 11 1 11 6 8 22 
CALL[ ]	/* CallFunction */";
};
width = 415;
},
{
layerId = m003;
shapes = (
{
closed = 1;
nodes = (
(357,0,l),
(357,81,l),
(288,81,ls),
(241,81,o),
(228,100,o),
(228,168,cs),
(228,700,l),
(136,700,l),
(136,156,ls),
(136,45,o),
(173,0,o),
(268,0,cs)
);
},
{
closed = 1;
nodes = (
(342,454,l),
(342,530,l),
(46,530,l),
(46,454,l)
);
}
);
width = 379;
},
{
layerId = m004;
shapes = (
{
closed = 1;
nodes = (
(327,0,l),
(327,41,l),
(269,41,ls),
(200,41,o),
(189,63,o),
(189,164,cs),
(189,700,l),
(143,700,l),
(143,163,ls),
(143,35,o),
(165,0,o),
(267,0,cs)
);
},
{
closed = 1;
nodes = (
(312,489,l),
(312,530,l),
(48,530,l),
(48,489,l)
);
}
);
width = 351;
}
);
note = t;
unicode = 116;
userData = {
KernOnName = t;
};
},
{
glyphname = tcaron;
lastChange = "2025-03-16 19:02:43 +0000";
layers = (
{
layerId = m002;
shapes = (
{
closed = 1;
nodes = (
(512,850,l),
(370,868,l),
(340,636,l),
(473,618,l)
);
},
{
ref = t;
}
);
width = 434;
},
{
layerId = m003;
shapes = (
{
closed = 1;
nodes = (
(403,857,l),
(317,868,l),
(287,636,l),
(364,625,l)
);
},
{
pos = (-13,0);
ref = t;
}
);
width = 421;
},
{
layerId = m004;
shapes = (
{
closed = 1;
nodes = (
(340,863,l),
(295,868,l),
(265,636,l),
(301,631,l)
);
},
{
pos = (-15,0);
ref = t;
}
);
width = 419;
}
);
unicode = 357;
},
{
glyphname = u;
kernLeft = KO_u;
kernRight = KO_u;
lastChange = "2025-03-16 19:02:43 +0000";
layers = (
{
anchors = (
{
name = bottom;
pos = (299,0);
},
{
name = ogonek;
pos = (415,10);
},
{
name = top;
pos = (299,530);
},
{
name = topright;
pos = (380,530);
}
);
layerId = m002;
shapes = (
{
closed = 1;
nodes = (
(440,-16,o),
(542,83,o),
(542,221,cs),
(542,530,l),
(380,530,l),
(380,215,ls),
(380,162,o),
(345,124,o),
(298,124,cs),
(252,124,o),
(217,162,o),
(217,215,cs),
(217,530,l),
(55,530,l),
(55,221,ls),
(55,83,o),
(157,-16,o),
(298,-16,cs)
);
}
);
userData = {
assembly = "PUSHB[ ]	/* 8 values pushed */
13 12 3 3 2 1 1 76 
MPPEM[ ]	/* MeasurePixelPerEm */
PUSHB[ ]	/* 1 value pushed */
20 
LT[ ]	/* LessThan */
IF[ ]	/* If */
NPUSHB[ ]	/* 19 values pushed */
4 5 2 1 1 41 77 0 2 2 0 98 3 1 0 0 39 0 78 
ELSE[ ]	/* Else */
NPUSHB[ ]	/* 23 values pushed */
4 5 2 1 1 41 77 0 0 0 39 77 0 2 2 3 98 0 3 3 47 3 78 
EIF[ ]	/* EndIf */
NPUSHB[ ]	/* 16 values pushed */
0 0 22 21 17 15 9 7 0 4 0 4 17 6 8 23 
CALL[ ]	/* CallFunction */";
};
width = 597;
},
{
anchors = (
{
name = bottom;
pos = (296,0);
},
{
name = ogonek;
pos = (405,10);
},
{
name = top;
pos = (297,530);
},
{
name = topright;
pos = (423,530);
}
);
layerId = m003;
shapes = (
{
closed = 1;
nodes = (
(425,-15,o),
(514,71,o),
(514,211,cs),
(514,530,l),
(423,530,l),
(423,209,ls),
(423,121,o),
(372,65,o),
(296,65,cs),
(221,65,o),
(170,120,o),
(170,209,cs),
(170,530,l),
(79,530,l),
(79,211,ls),
(79,73,o),
(166,-15,o),
(296,-15,cs)
);
}
);
width = 593;
},
{
anchors = (
{
name = bottom;
pos = (288,0);
},
{
name = ogonek;
pos = (396,10);
},
{
name = top;
pos = (293,530);
},
{
name = topright;
pos = (448,530);
}
);
layerId = m004;
shapes = (
{
closed = 1;
nodes = (
(414,-15,o),
(494,63,o),
(494,203,cs),
(494,530,l),
(448,530,l),
(448,204,ls),
(448,93,o),
(386,27,o),
(288,27,cs),
(192,27,o),
(130,92,o),
(130,204,cs),
(130,530,l),
(84,530,l),
(84,203,ls),
(84,64,o),
(163,-15,o),
(288,-15,cs)
);
}
);
width = 578;
}
);
note = u;
unicode = 117;
userData = {
KernOnName = u;
};
},
{
glyphname = v;
kernLeft = KO_v;
kernRight = KO_v;
lastChange = "2025-03-16 19:02:43 +0000";
layers = (
{
layerId = m002;
shapes = (
{
closed = 1;
nodes = (
(358,0,l),
(543,530,l),
(380,530,l),
(258,136,l),
(294,136,l),
(169,530,l),
(3,530,l),
(192,0,l)
);
}
);
userData = {
assembly = "NPUSHB[ ]	/* 30 values pushed */
3 1 2 0 1 76 1 1 0 0 41 77 3 1 2 2 39 2 78 0 0 0 6 0 6 18 17 4 8 24 
CALL[ ]	/* CallFunction */";
};
width = 546;
},
{
layerId = m003;
shapes = (
{
closed = 1;
nodes = (
(317,0,l),
(506,530,l),
(413,530,l),
(256,69,l),
(280,69,l),
(115,530,l),
(20,530,l),
(216,0,l)
);
}
);
width = 525;
},
{
layerId = m004;
shapes = (
{
closed = 1;
nodes = (
(290,0,l),
(484,530,l),
(436,530,l),
(253,24,l),
(269,24,l),
(73,530,l),
(24,530,l),
(231,0,l)
);
}
);
width = 508;
}
);
note = v;
unicode = 118;
userData = {
KernOnName = v;
};
},
{
glyphname = w;
kernLeft = KO_w;
kernRight = KO_w;
lastChange = "2025-03-16 19:02:43 +0000";
layers = (
{
anchors = (
{
name = bottom;
pos = (403,0);
},
{
name = top;
pos = (403,530);
}
);
layerId = m002;
shapes = (
{
closed = 1;
nodes = (
(323,0,l),
(416,345,l),
(390,345,l),
(483,0,l),
(651,0,l),
(802,530,l),
(642,530,l),
(549,145,l),
(576,145,l),
(479,530,l),
(326,530,l),
(233,147,l),
(260,147,l),
(169,530,l),
(4,530,l),
(159,0,l)
);
}
);
userData = {
assembly = "NPUSHB[ ]	/* 36 values pushed */
11 6 3 3 3 0 1 76 2 1 2 0 0 41 77 5 4 2 3 3 39 3 78 0 0 0 12 0 12 17 18 18 17 6 8 26 
CALL[ ]	/* CallFunction */";
};
width = 806;
},
{
anchors = (
{
name = bottom;
pos = (404,0);
},
{
name = top;
pos = (404,530);
}
);
layerId = m003;
shapes = (
{
closed = 1;
nodes = (
(284,0,l),
(415,446,l),
(391,446,l),
(522,0,l),
(622,0,l),
(786,530,l),
(696,530,l),
(563,74,l),
(580,74,l),
(450,530,l),
(357,530,l),
(229,76,l),
(246,76,l),
(114,530,l),
(20,530,l),
(185,0,l)
);
}
);
width = 807;
},
{
anchors = (
{
name = bottom;
pos = (406,0);
},
{
name = top;
pos = (406,530);
}
);
layerId = m004;
shapes = (
{
closed = 1;
nodes = (
(258,0,l),
(418,512,l),
(394,512,l),
(554,0,l),
(612,0,l),
(788,530,l),
(742,530,l),
(578,27,l),
(589,27,l),
(433,530,l),
(379,530,l),
(225,29,l),
(236,29,l),
(72,530,l),
(24,530,l),
(200,0,l)
);
}
);
width = 812;
}
);
note = w;
unicode = 119;
userData = {
KernOnName = w;
};
},
{
glyphname = x;
kernLeft = KO_x;
kernRight = KO_x;
lastChange = "2025-03-16 19:02:43 +0000";
layers = (
{
layerId = m002;
shapes = (
{
closed = 1;
nodes = (
(559,0,l),
(194,530,l),
(9,530,l),
(384,0,l)
);
},
{
closed = 1;
nodes = (
(199,0,l),
(324,200,l),
(220,293,l),
(28,0,l)
);
},
{
closed = 1;
nodes = (
(564,530,l),
(391,530,l),
(270,335,l),
(375,244,l)
);
}
);
userData = {
assembly = "NPUSHB[ ]	/* 33 values pushed */
2 1 0 0 41 77 5 3 4 3 1 1 39 1 78 4 4 0 0 4 7 4 7 6 5 0 3 0 3 17 6 8 23 
CALL[ ]	/* CallFunction */";
};
width = 574;
},
{
layerId = m003;
shapes = (
{
closed = 1;
nodes = (
(497,0,l),
(141,530,l),
(35,530,l),
(396,0,l)
);
},
{
closed = 1;
nodes = (
(143,0,l),
(287,224,l),
(227,282,l),
(45,0,l)
);
},
{
closed = 1;
nodes = (
(499,530,l),
(398,530,l),
(257,306,l),
(318,250,l)
);
}
);
width = 535;
},
{
layerId = m004;
shapes = (
{
closed = 1;
nodes = (
(455,0,l),
(97,530,l),
(42,530,l),
(402,0,l)
);
},
{
closed = 1;
nodes = (
(98,0,l),
(257,244,l),
(227,276,l),
(45,0,l)
);
},
{
closed = 1;
nodes = (
(454,530,l),
(401,530,l),
(243,290,l),
(273,256,l)
);
}
);
width = 496;
}
);
note = x;
unicode = 120;
userData = {
KernOnName = x;
};
},
{
glyphname = y;
kernLeft = KO_y;
kernRight = KO_y;
lastChange = "2025-03-16 19:02:43 +0000";
layers = (
{
anchors = (
{
name = bottom;
pos = (462,0);
},
{
name = top;
pos = (279,530);
}
);
layerId = m002;
shapes = (
{
closed = 1;
nodes = (
(279,-187,l),
(561,530,l),
(392,530,l),
(110,-187,l)
);
},
{
closed = 1;
nodes = (
(335,121,l),
(173,530,l),
(3,530,l),
(217,-8,l)
);
}
);
userData = {
assembly = "NPUSHB[ ]	/* 31 values pushed */
7 1 1 0 1 76 2 1 0 0 41 77 3 1 1 1 43 1 78 0 0 6 5 0 3 0 3 17 4 8 23 
CALL[ ]	/* CallFunction */";
};
width = 564;
},
{
anchors = (
{
name = bottom;
pos = (413,0);
},
{
name = top;
pos = (266,530);
}
);
layerId = m003;
shapes = (
{
closed = 1;
nodes = (
(237,-180,l),
(509,530,l),
(414,530,l),
(141,-180,l)
);
},
{
closed = 1;
nodes = (
(290,77,l),
(116,530,l),
(20,530,l),
(227,-12,l)
);
}
);
width = 529;
},
{
anchors = (
{
name = bottom;
pos = (395,0);
},
{
name = top;
pos = (256,530);
}
);
layerId = m004;
shapes = (
{
closed = 1;
nodes = (
(205,-180,l),
(478,530,l),
(430,530,l),
(156,-180,l)
);
},
{
closed = 1;
nodes = (
(259,50,l),
(73,530,l),
(24,530,l),
(233,-10,l)
);
}
);
width = 502;
}
);
note = y;
unicode = 121;
userData = {
KernOnName = y;
};
},
{
glyphname = z;
kernLeft = KO_z;
kernRight = KO_z;
lastChange = "2025-03-16 19:02:43 +0000";
layers = (
{
anchors = (
{
name = bottom;
pos = (240,0);
},
{
name = center;
pos = (240,265);
},
{
name = top;
pos = (240,530);
}
);
layerId = m002;
shapes = (
{
closed = 1;
nodes = (
(461,0,l),
(461,134,l),
(207,134,l),
(461,397,l),
(461,530,l),
(13,530,l),
(13,397,l),
(265,397,l),
(13,134,l),
(13,0,l)
);
}
);
userData = {
assembly = "NPUSHB[ ]	/* 42 values pushed */
1 1 2 6 1 0 2 75 0 2 2 3 95 4 1 3 3 41 77 0 0 0 1 95 0 1 1 39 1 78 0 0 0 9 0 9 18 17 18 5 8 25 
CALL[ ]	/* CallFunction */";
};
width = 480;
},
{
anchors = (
{
name = bottom;
pos = (226,0);
},
{
name = center;
pos = (226,265);
},
{
name = top;
pos = (226,530);
}
);
layerId = m003;
shapes = (
{
closed = 1;
nodes = (
(428,0,l),
(428,78,l),
(129,78,l),
(428,451,l),
(428,530,l),
(19,530,l),
(19,451,l),
(318,451,l),
(19,78,l),
(19,0,l)
);
}
);
width = 451;
},
{
anchors = (
{
name = bottom;
pos = (217,0);
},
{
name = center;
pos = (217,265);
},
{
name = top;
pos = (217,530);
}
);
layerId = m004;
shapes = (
{
closed = 1;
nodes = (
(412,0,l),
(412,40,l),
(76,40,l),
(412,489,l),
(412,530,l),
(20,530,l),
(20,489,l),
(357,489,l),
(20,40,l),
(20,0,l)
);
}
);
width = 434;
}
);
note = z;
unicode = 122;
userData = {
KernOnName = z;
};
},
{
export = 0;
glyphname = r.ss01;
lastChange = "2025-03-16 19:02:43 +0000";
layers = (
{
layerId = m002;
shapes = (
{
closed = 1;
nodes = (
(206,0,l),
(206,306,ls),
(206,391,o),
(259,405,o),
(311,405,cs),
(336,405,o),
(355,402,o),
(378,399,c),
(378,537,l),
(342,545,o),
(305,546,o),
(288,546,cs),
(133,546,o),
(45,460,o),
(45,307,cs),
(45,0,l)
);
}
);
userData = {
assembly = "NPUSHB[ ]	/* 39 values pushed */
14 3 2 1 3 1 76 0 3 3 0 95 2 1 0 0 41 77 4 1 1 1 39 1 78 0 0 12 10 9 7 0 4 0 4 17 5 8 23 
CALL[ ]	/* CallFunction */";
};
width = 418;
},
{
associatedMasterId = m002;
layerId = "4C9EE824-E47E-4F8E-A63D-9911E50F14A3";
name = "27 Jun 24 at 12:25";
shapes = (
{
closed = 1;
nodes = (
(224,0,l),
(224,334,ls),
(224,393,o),
(259,430,o),
(316,430,cs),
(440,430,l),
(440,570,l),
(291,570,ls),
(150,570,o),
(62,483,o),
(62,345,cs),
(62,0,l)
);
}
);
userData = {
assembly = "NPUSHB[ ]	/* 39 values pushed */
14 3 2 1 3 1 76 0 3 3 0 95 2 1 0 0 41 77 4 1 1 1 39 1 78 0 0 12 10 9 7 0 4 0 4 17 5 8 23 
CALL[ ]	/* CallFunction */";
};
width = 486;
},
{
layerId = m003;
shapes = (
{
closed = 1;
nodes = (
(164,-3,l),
(164,299,ls),
(164,421,o),
(215,467,o),
(301,467,cs),
(333,467,o),
(349,463,o),
(378,457,c),
(378,532,l),
(348,540,o),
(319,544,o),
(291,544,cs),
(150,544,o),
(77,463,o),
(77,300,cs),
(77,-3,l)
);
}
);
width = 428;
},
{
associatedMasterId = m003;
layerId = "A37181E9-1F54-47A2-990C-0BE5E0E2A0EA";
name = "27 Jun 24 at 12:25";
shapes = (
{
closed = 1;
nodes = (
(224,0,l),
(224,334,ls),
(224,393,o),
(259,430,o),
(316,430,cs),
(440,430,l),
(440,570,l),
(291,570,ls),
(150,570,o),
(62,483,o),
(62,345,cs),
(62,0,l)
);
}
);
userData = {
assembly = "NPUSHB[ ]	/* 39 values pushed */
14 3 2 1 3 1 76 0 3 3 0 95 2 1 0 0 41 77 4 1 1 1 39 1 78 0 0 12 10 9 7 0 4 0 4 17 5 8 23 
CALL[ ]	/* CallFunction */";
};
width = 486;
},
{
layerId = m004;
shapes = (
{
closed = 1;
nodes = (
(138,0,l),
(138,297,ls),
(138,440,o),
(187,504,o),
(291,504,cs),
(327,504,o),
(345,498,o),
(371,491,c),
(371,531,l),
(348,539,o),
(323,546,o),
(288,546,cs),
(156,546,o),
(92,467,o),
(92,298,cs),
(92,0,l)
);
}
);
width = 426;
},
{
associatedMasterId = m004;
layerId = "DEAC3665-6DF5-4E1E-8D4F-DC9CF83C23E5";
width = 486;
}
);
note = r;
},
{
glyphname = ordfeminine;
lastChange = "2025-03-16 19:02:43 +0000";
layers = (
{
anchors = (
{
name = bottom;
pos = (209,395);
},
{
name = ogonek;
pos = (375,395);
},
{
name = top;
pos = (209,739);
}
);
layerId = m002;
shapes = (
{
closed = 1;
nodes = (
(229,385,o),
(261,411,o),
(279,442,c),
(266,466,l),
(274,395,l),
(375,395,l),
(375,739,l),
(274,739,l),
(266,673,l),
(279,699,l),
(260,726,o),
(226,750,o),
(175,750,cs),
(94,750,o),
(32,675,o),
(32,570,cs),
(32,461,o),
(97,385,o),
(182,385,cs)
);
},
{
closed = 1;
nodes = (
(167,482,o),
(142,516,o),
(142,570,cs),
(142,624,o),
(167,659,o),
(207,659,cs),
(248,659,o),
(273,624,o),
(273,570,cs),
(273,516,o),
(248,482,o),
(207,482,cs)
);
}
);
width = 436;
},
{
anchors = (
{
name = bottom;
pos = (216,395);
},
{
name = ogonek;
pos = (366,395);
},
{
name = top;
pos = (216,739);
}
);
layerId = m003;
shapes = (
{
closed = 1;
nodes = (
(254,385,o),
(297,419,o),
(316,475,c),
(306,484,l),
(311,395,l),
(366,395,l),
(366,739,l),
(311,739,l),
(306,658,l),
(316,669,l),
(297,719,o),
(254,749,o),
(198,749,cs),
(109,749,o),
(49,675,o),
(49,568,cs),
(49,457,o),
(111,385,o),
(201,385,cs)
);
},
{
closed = 1;
nodes = (
(154,445,o),
(114,496,o),
(114,568,cs),
(114,641,o),
(154,692,o),
(211,692,cs),
(265,692,o),
(303,641,o),
(303,568,cs),
(303,496,o),
(265,445,o),
(211,445,cs)
);
}
);
width = 450;
},
{
anchors = (
{
name = bottom;
pos = (210,395);
},
{
name = ogonek;
pos = (360,395);
},
{
name = top;
pos = (210,739);
}
);
layerId = m004;
shapes = (
{
closed = 1;
nodes = (
(272,385,o),
(320,433,o),
(336,509,c),
(328,517,l),
(333,395,l),
(360,395,l),
(360,739,l),
(333,739,l),
(328,628,l),
(336,636,l),
(321,707,o),
(272,749,o),
(205,749,cs),
(115,749,o),
(53,677,o),
(53,567,cs),
(53,457,o),
(115,385,o),
(206,385,cs)
);
},
{
closed = 1;
nodes = (
(140,420,o),
(90,480,o),
(90,567,cs),
(90,654,o),
(140,715,o),
(211,715,cs),
(277,715,o),
(324,654,o),
(324,568,cs),
(324,481,o),
(277,420,o),
(211,420,cs)
);
}
);
width = 450;
}
);
metricLeft = a;
metricRight = a;
unicode = 170;
},
{
glyphname = ordmasculine;
lastChange = "2025-03-16 19:02:43 +0000";
layers = (
{
anchors = (
{
name = bottom;
pos = (211,396);
},
{
name = top;
pos = (211,740);
}
);
layerId = m002;
shapes = (
{
closed = 1;
nodes = (
(315,386,o),
(389,460,o),
(389,567,cs),
(389,674,o),
(315,751,o),
(211,751,cs),
(106,751,o),
(32,674,o),
(32,567,cs),
(32,460,o),
(107,386,o),
(211,386,cs)
);
},
{
closed = 1;
nodes = (
(170,481,o),
(142,515,o),
(142,567,cs),
(142,620,o),
(170,655,o),
(211,655,cs),
(251,655,o),
(278,619,o),
(278,567,cs),
(278,516,o),
(251,481,o),
(211,481,cs)
);
}
);
width = 421;
},
{
anchors = (
{
name = bottom;
pos = (211,396);
},
{
name = top;
pos = (211,740);
}
);
layerId = m003;
shapes = (
{
closed = 1;
nodes = (
(306,386,o),
(373,460,o),
(373,566,cs),
(373,674,o),
(306,750,o),
(211,750,cs),
(116,750,o),
(48,674,o),
(48,566,cs),
(48,460,o),
(116,386,o),
(211,386,cs)
);
},
{
closed = 1;
nodes = (
(154,445,o),
(114,495,o),
(114,567,cs),
(114,640,o),
(154,691,o),
(211,691,cs),
(267,691,o),
(307,640,o),
(307,567,cs),
(307,495,o),
(267,445,o),
(211,445,cs)
);
}
);
width = 420;
},
{
anchors = (
{
name = bottom;
pos = (208,396);
},
{
name = top;
pos = (208,741);
}
);
layerId = m004;
shapes = (
{
closed = 1;
nodes = (
(299,386,o),
(362,462,o),
(362,568,cs),
(362,674,o),
(299,750,o),
(208,750,cs),
(117,750,o),
(53,675,o),
(53,568,cs),
(53,461,o),
(117,386,o),
(208,386,cs)
);
},
{
closed = 1;
nodes = (
(139,421,o),
(90,481,o),
(90,568,cs),
(90,655,o),
(139,715,o),
(208,715,cs),
(277,715,o),
(325,655,o),
(325,568,cs),
(325,482,o),
(277,421,o),
(208,421,cs)
);
}
);
width = 415;
}
);
metricLeft = o;
metricRight = o;
unicode = 186;
},
{
glyphname = zero;
kernLeft = KO_zero;
kernRight = KO_zero;
lastChange = "2025-03-16 19:02:43 +0000";
layers = (
{
layerId = m002;
shapes = (
{
closed = 1;
nodes = (
(536,-12,o),
(655,136,o),
(655,372,cs),
(655,610,o),
(537,760,o),
(350,760,cs),
(161,760,o),
(43,612,o),
(43,375,cs),
(43,137,o),
(160,-12,o),
(346,-12,cs)
);
},
{
closed = 1;
nodes = (
(263,134,o),
(221,214,o),
(221,375,cs),
(221,535,o),
(263,614,o),
(349,614,cs),
(435,614,o),
(477,535,o),
(477,375,cs),
(477,214,o),
(435,134,o),
(349,134,cs)
);
}
);
userData = {
assembly = "NPUSHB[ ]	/* 42 values pushed */
5 1 2 2 0 97 4 1 0 0 46 77 0 3 3 1 97 0 1 1 47 1 78 17 16 1 0 24 22 16 30 17 30 9 7 0 15 1 15 6 8 22 
CALL[ ]	/* CallFunction */";
};
width = 698;
},
{
layerId = m003;
shapes = (
{
closed = 1;
nodes = (
(537,-15,o),
(646,130,o),
(646,374,cs),
(646,618,o),
(537,765,o),
(357,765,cs),
(174,765,o),
(64,620,o),
(64,375,cs),
(64,129,o),
(174,-15,o),
(355,-15,cs)
);
},
{
closed = 1;
nodes = (
(232,71,o),
(165,180,o),
(165,375,cs),
(165,571,o),
(232,680,o),
(356,680,cs),
(478,680,o),
(546,572,o),
(546,375,cs),
(546,179,o),
(478,71,o),
(356,71,cs)
);
}
);
userData = {
assembly = "NPUSHB[ ]	/* 42 values pushed */
5 1 2 2 0 97 4 1 0 0 46 77 0 3 3 1 97 0 1 1 47 1 78 17 16 1 0 24 22 16 30 17 30 9 7 0 15 1 15 6 8 22 
CALL[ ]	/* CallFunction */";
};
width = 710;
},
{
layerId = m004;
shapes = (
{
closed = 1;
nodes = (
(529,-12,o),
(631,129,o),
(631,374,cs),
(631,619,o),
(529,760,o),
(351,760,cs),
(172,760,o),
(69,619,o),
(69,374,cs),
(69,129,o),
(172,-12,o),
(351,-12,cs)
);
},
{
closed = 1;
nodes = (
(202,32,o),
(117,157,o),
(117,374,cs),
(117,592,o),
(202,717,o),
(351,717,cs),
(498,717,o),
(583,592,o),
(583,374,cs),
(583,157,o),
(498,32,o),
(351,32,cs)
);
}
);
userData = {
assembly = "NPUSHB[ ]	/* 42 values pushed */
5 1 2 2 0 97 4 1 0 0 46 77 0 3 3 1 97 0 1 1 47 1 78 17 16 1 0 24 22 16 30 17 30 9 7 0 15 1 15 6 8 22 
CALL[ ]	/* CallFunction */";
};
width = 700;
}
);
note = zero;
unicode = 48;
userData = {
KernOnName = zero;
};
},
{
glyphname = one;
kernLeft = KO_one;
lastChange = "2025-03-16 19:02:43 +0000";
layers = (
{
layerId = m002;
shapes = (
{
closed = 1;
nodes = (
(402,0,l),
(402,748,l),
(236,748,l),
(202,609,o),
(150,608,o),
(33,608,c),
(33,457,l),
(158,457,o),
(191,462,o),
(228,490,c),
(228,0,l)
);
}
);
userData = {
assembly = "PUSHB[ ]	/* 6 values pushed */
4 1 2 3 1 76 
MPPEM[ ]	/* MeasurePixelPerEm */
PUSHB[ ]	/* 1 value pushed */
30 
LT[ ]	/* LessThan */
IF[ ]	/* If */
NPUSHB[ ]	/* 21 values pushed */
0 0 0 38 77 0 2 2 3 97 0 3 3 49 77 0 1 1 39 1 78 
ELSE[ ]	/* Else */
NPUSHB[ ]	/* 19 values pushed */
0 3 0 2 1 3 2 105 0 0 0 38 77 0 1 1 39 1 78 
EIF[ ]	/* EndIf */
PUSHB[ ]	/* 7 values pushed */
33 35 17 16 4 8 26 
CALL[ ]	/* CallFunction */";
};
width = 475;
},
{
layerId = m003;
shapes = (
{
closed = 1;
nodes = (
(338,0,l),
(338,750,l),
(247,750,l),
(213,611,o),
(161,610,o),
(44,610,c),
(44,522,l),
(169,522,o),
(202,527,o),
(239,569,c),
(239,0,l)
);
}
);
userData = {
assembly = "PUSHB[ ]	/* 6 values pushed */
4 1 2 3 1 76 
MPPEM[ ]	/* MeasurePixelPerEm */
PUSHB[ ]	/* 1 value pushed */
30 
LT[ ]	/* LessThan */
IF[ ]	/* If */
NPUSHB[ ]	/* 21 values pushed */
0 0 0 38 77 0 2 2 3 97 0 3 3 49 77 0 1 1 39 1 78 
ELSE[ ]	/* Else */
NPUSHB[ ]	/* 19 values pushed */
0 3 0 2 1 3 2 105 0 0 0 38 77 0 1 1 39 1 78 
EIF[ ]	/* EndIf */
PUSHB[ ]	/* 7 values pushed */
33 35 17 16 4 8 26 
CALL[ ]	/* CallFunction */";
};
width = 435;
},
{
layerId = m004;
shapes = (
{
closed = 1;
nodes = (
(289,0,l),
(289,748,l),
(249,748,l),
(215,609,o),
(163,608,o),
(46,608,c),
(46,566,l),
(171,566,o),
(204,571,o),
(241,619,c),
(241,0,l)
);
}
);
userData = {
assembly = "PUSHB[ ]	/* 6 values pushed */
4 1 2 3 1 76 
MPPEM[ ]	/* MeasurePixelPerEm */
PUSHB[ ]	/* 1 value pushed */
30 
LT[ ]	/* LessThan */
IF[ ]	/* If */
NPUSHB[ ]	/* 21 values pushed */
0 0 0 38 77 0 2 2 3 97 0 3 3 49 77 0 1 1 39 1 78 
ELSE[ ]	/* Else */
NPUSHB[ ]	/* 19 values pushed */
0 3 0 2 1 3 2 105 0 0 0 38 77 0 1 1 39 1 78 
EIF[ ]	/* EndIf */
PUSHB[ ]	/* 7 values pushed */
33 35 17 16 4 8 26 
CALL[ ]	/* CallFunction */";
};
width = 393;
}
);
note = one;
unicode = 49;
userData = {
KernOnSpecialSpacing = {
R = NoKerning;
};
};
},
{
glyphname = two;
kernLeft = KO_two;
kernRight = KO_two;
lastChange = "2025-03-16 19:03:08 +0000";
layers = (
{
layerId = m002;
shapes = (
{
closed = 1;
nodes = (
(567,0,l),
(567,148,l),
(183,148,l),
(232,125,l),
(213,173,o),
(282,217,o),
(354,256,cs),
(486,327,o),
(583,395,o),
(583,534,cs),
(583,676,o),
(479,765,o),
(313,765,cs),
(129,765,o),
(31,647,o),
(37,481,c),
(201,481,l),
(203,569,o),
(252,619,o),
(313,619,cs),
(370,619,o),
(410,583,o),
(410,534,cs),
(410,456,o),
(329,420,o),
(259,387,cs),
(94,309,o),
(35,222,o),
(35,86,cs),
(35,0,l)
);
}
);
userData = {
assembly = "NPUSHB[ ]	/* 47 values pushed */
0 4 3 1 3 4 1 128 0 3 3 0 97 5 1 0 0 46 77 0 1 1 2 95 0 2 2 39 2 78 1 0 32 31 28 26 15 14 13 12 0 35 1 35 6 8 22 
CALL[ ]	/* CallFunction */";
};
width = 626;
},
{
layerId = m003;
shapes = (
{
closed = 1;
nodes = (
(547,0,l),
(547,84,l),
(120,84,l),
(161,50,l),
(141,185,o),
(245,243,o),
(337,292,cs),
(453,354,o),
(560,418,o),
(560,551,cs),
(560,679,o),
(462,765,o),
(318,765,cs),
(156,765,o),
(56,655,o),
(53,497,c),
(147,497,l),
(154,616,o),
(226,681,o),
(318,681,cs),
(402,681,o),
(462,628,o),
(462,553,cs),
(462,457,o),
(376,412,o),
(289,367,cs),
(154,299,o),
(51,220,o),
(51,48,cs),
(51,0,l)
);
}
);
userData = {
assembly = "NPUSHB[ ]	/* 47 values pushed */
0 4 3 1 3 4 1 128 0 3 3 0 97 5 1 0 0 46 77 0 1 1 2 95 0 2 2 39 2 78 1 0 32 31 28 26 15 14 13 12 0 35 1 35 6 8 22 
CALL[ ]	/* CallFunction */";
};
width = 614;
},
{
layerId = m004;
shapes = (
{
closed = 1;
nodes = (
(527,0,l),
(527,42,l),
(69,42,l),
(106,-1,l),
(85,191,o),
(212,258,o),
(319,315,cs),
(426,372,o),
(538,432,o),
(538,560,cs),
(538,677,o),
(445,760,o),
(315,760,cs),
(170,760,o),
(67,659,o),
(57,506,c),
(103,506,l),
(112,638,o),
(196,718,o),
(315,718,cs),
(419,718,o),
(490,655,o),
(490,562,cs),
(490,452,o),
(392,399,o),
(300,350,cs),
(193,293,o),
(55,221,o),
(55,22,cs),
(55,0,l)
);
}
);
userData = {
assembly = "NPUSHB[ ]	/* 47 values pushed */
0 4 3 1 3 4 1 128 0 3 3 0 97 5 1 0 0 46 77 0 1 1 2 95 0 2 2 39 2 78 1 0 32 31 28 26 15 14 13 12 0 35 1 35 6 8 22 
CALL[ ]	/* CallFunction */";
};
width = 594;
}
);
note = two;
unicode = 50;
userData = {
KernOnName = two;
};
},
{
glyphname = three;
kernLeft = KO_three;
kernRight = KO_three;
lastChange = "2025-03-16 19:02:43 +0000";
layers = (
{
layerId = m002;
shapes = (
{
closed = 1;
nodes = (
(474,-15,o),
(582,79,o),
(582,222,cs),
(582,334,o),
(515,388,o),
(391,403,c),
(407,377,l),
(503,396,o),
(566,466,o),
(566,558,cs),
(566,679,o),
(458,764,o),
(302,764,cs),
(127,764,o),
(35,657,o),
(37,512,c),
(192,512,l),
(189,566,o),
(225,620,o),
(297,620,cs),
(355,620,o),
(394,585,o),
(394,535,cs),
(394,486,o),
(356,454,o),
(303,454,cs),
(244,454,l),
(244,319,l),
(303,319,ls),
(372,319,o),
(413,284,o),
(413,228,cs),
(413,173,o),
(374,129,o),
(306,129,cs),
(237,129,o),
(192,173,o),
(186,248,c),
(31,248,l),
(35,95,o),
(123,-15,o),
(305,-15,cs)
);
}
);
userData = {
assembly = "NPUSHB[ ]	/* 75 values pushed */
43 1 3 4 1 76 0 6 5 4 5 6 4 128 0 1 3 2 3 1 2 128 0 4 0 3 1 4 3 105 0 5 5 7 97 0 7 7 46 77 0 2 2 0 97 8 1 0 0 47 0 78 1 0 36 34 31 30 28 26 20 18 17 15 9 7 5 4 0 50 1 50 9 8 22 
CALL[ ]	/* CallFunction */";
};
width = 627;
},
{
layerId = m003;
shapes = (
{
closed = 1;
nodes = (
(450,-15,o),
(551,77,o),
(551,214,cs),
(551,325,o),
(483,386,o),
(382,396,c),
(389,379,l),
(480,392,o),
(541,460,o),
(541,557,cs),
(541,679,o),
(441,765,o),
(300,765,cs),
(148,765,o),
(51,668,o),
(46,513,c),
(137,513,l),
(140,611,o),
(200,680,o),
(298,680,cs),
(384,680,o),
(443,625,o),
(443,545,cs),
(443,470,o),
(391,423,o),
(314,423,cs),
(236,423,l),
(236,344,l),
(314,344,ls),
(400,344,o),
(455,295,o),
(455,216,cs),
(455,130,o),
(394,68,o),
(301,68,cs),
(203,68,o),
(138,135,o),
(131,247,c),
(40,247,l),
(47,93,o),
(137,-15,o),
(301,-15,cs)
);
}
);
userData = {
assembly = "NPUSHB[ ]	/* 75 values pushed */
43 1 3 4 1 76 0 6 5 4 5 6 4 128 0 1 3 2 3 1 2 128 0 4 0 3 1 4 3 105 0 5 5 7 97 0 7 7 46 77 0 2 2 0 97 8 1 0 0 47 0 78 1 0 36 34 31 30 28 26 20 18 17 15 9 7 5 4 0 50 1 50 9 8 22 
CALL[ ]	/* CallFunction */";
};
width = 615;
},
{
layerId = m004;
shapes = (
{
closed = 1;
nodes = (
(431,-12,o),
(526,78,o),
(526,208,cs),
(526,310,o),
(467,383,o),
(372,391,c),
(371,380,l),
(464,389,o),
(521,459,o),
(521,554,cs),
(521,675,o),
(428,760,o),
(294,760,cs),
(152,760,o),
(57,664,o),
(48,512,c),
(94,512,l),
(101,639,o),
(178,718,o),
(293,718,cs),
(400,718,o),
(473,650,o),
(473,551,cs),
(473,460,o),
(413,403,o),
(318,403,cs),
(227,403,l),
(227,362,l),
(317,362,ls),
(417,362,o),
(478,304,o),
(478,209,cs),
(478,103,o),
(403,30,o),
(292,30,cs),
(174,30,o),
(95,114,o),
(88,248,c),
(42,248,l),
(51,88,o),
(148,-12,o),
(293,-12,cs)
);
}
);
userData = {
assembly = "NPUSHB[ ]	/* 75 values pushed */
43 1 3 4 1 76 0 6 5 4 5 6 4 128 0 1 3 2 3 1 2 128 0 4 0 3 1 4 3 105 0 5 5 7 97 0 7 7 46 77 0 2 2 0 97 8 1 0 0 47 0 78 1 0 36 34 31 30 28 26 20 18 17 15 9 7 5 4 0 50 1 50 9 8 22 
CALL[ ]	/* CallFunction */";
};
width = 595;
}
);
note = three;
unicode = 51;
},
{
glyphname = four;
kernLeft = KO_four;
kernRight = KO_four;
lastChange = "2025-03-16 19:02:43 +0000";
layers = (
{
layerId = m002;
shapes = (
{
closed = 1;
nodes = (
(515,0,l),
(515,142,l),
(605,142,l),
(605,284,l),
(515,284,l),
(515,465,l),
(355,465,l),
(355,284,l),
(206,284,l),
(439,748,l),
(257,748,l),
(24,291,l),
(24,142,l),
(355,142,l),
(355,0,l)
);
}
);
userData = {
assembly = "NPUSHB[ ]	/* 46 values pushed */
9 8 1 3 1 0 1 76 0 1 4 1 2 3 1 2 104 0 0 0 38 77 5 1 3 3 39 3 78 7 7 0 0 7 10 7 10 0 6 0 6 17 18 6 8 24 
CALL[ ]	/* CallFunction */";
};
width = 635;
},
{
layerId = m003;
shapes = (
{
closed = 1;
nodes = (
(479,0,l),
(479,164,l),
(570,164,l),
(570,248,l),
(479,248,l),
(479,466,l),
(389,466,l),
(389,248,l),
(129,248,l),
(363,750,l),
(259,750,l),
(25,249,l),
(25,164,l),
(389,164,l),
(389,0,l)
);
}
);
userData = {
assembly = "NPUSHB[ ]	/* 46 values pushed */
9 8 1 3 1 0 1 76 0 1 4 1 2 3 1 2 104 0 0 0 38 77 5 1 3 3 39 3 78 7 7 0 0 7 10 7 10 0 6 0 6 17 18 6 8 24 
CALL[ ]	/* CallFunction */";
};
width = 612;
},
{
layerId = m004;
shapes = (
{
closed = 1;
nodes = (
(456,0,l),
(456,180,l),
(548,180,l),
(548,222,l),
(456,222,l),
(456,465,l),
(411,465,l),
(411,222,l),
(76,222,l),
(312,748,l),
(261,748,l),
(26,219,l),
(26,180,l),
(411,180,l),
(411,0,l)
);
}
);
userData = {
assembly = "NPUSHB[ ]	/* 46 values pushed */
9 8 1 3 1 0 1 76 0 1 4 1 2 3 1 2 104 0 0 0 38 77 5 1 3 3 39 3 78 7 7 0 0 7 10 7 10 0 6 0 6 17 18 6 8 24 
CALL[ ]	/* CallFunction */";
};
width = 594;
}
);
note = four;
unicode = 52;
},
{
glyphname = five;
kernRight = KO_five;
lastChange = "2025-03-16 19:02:43 +0000";
layers = (
{
layerId = m002;
shapes = (
{
closed = 1;
nodes = (
(489,-15,o),
(588,95,o),
(588,251,cs),
(588,413,o),
(498,509,o),
(346,509,cs),
(279,509,o),
(239,481,o),
(224,466,c),
(241,601,l),
(563,601,l),
(563,748,l),
(93,748,l),
(42,309,l),
(207,309,l),
(223,345,o),
(256,367,o),
(305,367,cs),
(376,367,o),
(415,325,o),
(415,251,cs),
(415,177,o),
(376,135,o),
(307,135,cs),
(245,135,o),
(207,168,o),
(200,209,c),
(36,209,l),
(38,87,o),
(146,-15,o),
(307,-15,cs)
);
}
);
userData = {
assembly = "NPUSHB[ ]	/* 67 values pushed */
1 1 4 0 1 76 0 5 4 2 4 5 2 128 0 2 3 4 2 3 126 0 0 0 4 5 0 4 105 8 1 7 7 6 95 0 6 6 38 77 0 3 3 1 97 0 1 1 47 1 78 0 0 0 35 0 35 17 18 38 34 19 38 35 9 8 29 
CALL[ ]	/* CallFunction */";
};
width = 628;
},
{
layerId = m003;
shapes = (
{
closed = 1;
nodes = (
(453,-15,o),
(552,92,o),
(552,250,cs),
(552,406,o),
(460,509,o),
(322,509,cs),
(250,509,o),
(189,475,o),
(157,429,c),
(185,665,l),
(527,665,l),
(527,750,l),
(99,750,l),
(48,308,l),
(144,308,l),
(170,377,o),
(226,427,o),
(303,427,cs),
(393,427,o),
(454,358,o),
(454,250,cs),
(454,139,o),
(389,69,o),
(292,69,cs),
(200,69,o),
(150,130,o),
(143,198,c),
(49,198,l),
(56,83,o),
(141,-15,o),
(293,-15,cs)
);
}
);
userData = {
assembly = "NPUSHB[ ]	/* 67 values pushed */
1 1 4 0 1 76 0 5 4 2 4 5 2 128 0 2 3 4 2 3 126 0 0 0 4 5 0 4 105 8 1 7 7 6 95 0 6 6 38 77 0 3 3 1 97 0 1 1 47 1 78 0 0 0 35 0 35 17 18 38 34 19 38 35 9 8 29 
CALL[ ]	/* CallFunction */";
};
width = 604;
},
{
layerId = m004;
shapes = (
{
closed = 1;
nodes = (
(428,-12,o),
(526,95,o),
(526,252,cs),
(526,405,o),
(432,509,o),
(304,509,cs),
(224,509,o),
(152,469,o),
(109,406,c),
(145,706,l),
(501,706,l),
(501,748,l),
(101,748,l),
(50,309,l),
(99,309,l),
(134,407,o),
(209,469,o),
(298,469,cs),
(404,469,o),
(478,382,o),
(478,253,cs),
(478,118,o),
(398,30,o),
(280,30,cs),
(170,30,o),
(104,106,o),
(97,199,c),
(51,199,l),
(60,80,o),
(143,-12,o),
(282,-12,cs)
);
}
);
userData = {
assembly = "NPUSHB[ ]	/* 67 values pushed */
1 1 4 0 1 76 0 5 4 2 4 5 2 128 0 2 3 4 2 3 126 0 0 0 4 5 0 4 105 8 1 7 7 6 95 0 6 6 38 77 0 3 3 1 97 0 1 1 47 1 78 0 0 0 35 0 35 17 18 38 34 19 38 35 9 8 29 
CALL[ ]	/* CallFunction */";
};
width = 582;
}
);
note = five;
unicode = 53;
userData = {
KernOnSpecialSpacing = {
L = NoKerning;
};
};
},
